<?xml version="1.0" encoding="utf-8" standalone="no"?>
<!DOCTYPE svg PUBLIC "-//W3C//DTD SVG 1.1//EN"
  "http://www.w3.org/Graphics/SVG/1.1/DTD/svg11.dtd">
<!-- Created with matplotlib (https://matplotlib.org/) -->
<svg height="216pt" version="1.1" viewBox="0 0 216 216" width="216pt" xmlns="http://www.w3.org/2000/svg" xmlns:xlink="http://www.w3.org/1999/xlink">
 <metadata>
  <rdf:RDF xmlns:cc="http://creativecommons.org/ns#" xmlns:dc="http://purl.org/dc/elements/1.1/" xmlns:rdf="http://www.w3.org/1999/02/22-rdf-syntax-ns#">
   <cc:Work>
    <dc:type rdf:resource="http://purl.org/dc/dcmitype/StillImage"/>
    <dc:date>2021-05-04T23:02:01.079323</dc:date>
    <dc:format>image/svg+xml</dc:format>
    <dc:creator>
     <cc:Agent>
      <dc:title>Matplotlib v3.3.4, https://matplotlib.org/</dc:title>
     </cc:Agent>
    </dc:creator>
   </cc:Work>
  </rdf:RDF>
 </metadata>
 <defs>
  <style type="text/css">*{stroke-linecap:butt;stroke-linejoin:round;}</style>
 </defs>
 <g id="figure_1">
  <g id="patch_1">
   <path d="M 0 216 
L 216 216 
L 216 0 
L 0 0 
z
" style="fill:#ffffff;"/>
  </g>
  <g id="axes_1">
   <g id="patch_2">
    <path d="M 27 192.24 
L 194.4 192.24 
L 194.4 25.92 
L 27 25.92 
z
" style="fill:#eaeaf2;"/>
   </g>
   <g id="matplotlib.axis_1">
    <g id="xtick_1">
     <g id="line2d_1">
      <path clip-path="url(#pd6249c6cef)" d="M 34.609091 192.24 
L 34.609091 25.92 
" style="fill:none;stroke:#ffffff;stroke-linecap:round;"/>
     </g>
     <g id="text_1">
      <!-- 0.00 -->
      <g style="fill:#262626;" transform="translate(22.362997 210.098281)scale(0.11 -0.11)">
       <defs>
        <path d="M 31.78125 66.40625 
Q 24.171875 66.40625 20.328125 58.90625 
Q 16.5 51.421875 16.5 36.375 
Q 16.5 21.390625 20.328125 13.890625 
Q 24.171875 6.390625 31.78125 6.390625 
Q 39.453125 6.390625 43.28125 13.890625 
Q 47.125 21.390625 47.125 36.375 
Q 47.125 51.421875 43.28125 58.90625 
Q 39.453125 66.40625 31.78125 66.40625 
z
M 31.78125 74.21875 
Q 44.046875 74.21875 50.515625 64.515625 
Q 56.984375 54.828125 56.984375 36.375 
Q 56.984375 17.96875 50.515625 8.265625 
Q 44.046875 -1.421875 31.78125 -1.421875 
Q 19.53125 -1.421875 13.0625 8.265625 
Q 6.59375 17.96875 6.59375 36.375 
Q 6.59375 54.828125 13.0625 64.515625 
Q 19.53125 74.21875 31.78125 74.21875 
z
" id="DejaVuSans-48"/>
        <path d="M 10.6875 12.40625 
L 21 12.40625 
L 21 0 
L 10.6875 0 
z
" id="DejaVuSans-46"/>
       </defs>
       <use xlink:href="#DejaVuSans-48"/>
       <use x="63.623047" xlink:href="#DejaVuSans-46"/>
       <use x="95.410156" xlink:href="#DejaVuSans-48"/>
       <use x="159.033203" xlink:href="#DejaVuSans-48"/>
      </g>
     </g>
    </g>
    <g id="xtick_2">
     <g id="line2d_2">
      <path clip-path="url(#pd6249c6cef)" d="M 72.654545 192.24 
L 72.654545 25.92 
" style="fill:none;stroke:#ffffff;stroke-linecap:round;"/>
     </g>
     <g id="text_2">
      <!-- 0.25 -->
      <g style="fill:#262626;" transform="translate(60.408452 210.098281)scale(0.11 -0.11)">
       <defs>
        <path d="M 19.1875 8.296875 
L 53.609375 8.296875 
L 53.609375 0 
L 7.328125 0 
L 7.328125 8.296875 
Q 12.9375 14.109375 22.625 23.890625 
Q 32.328125 33.6875 34.8125 36.53125 
Q 39.546875 41.84375 41.421875 45.53125 
Q 43.3125 49.21875 43.3125 52.78125 
Q 43.3125 58.59375 39.234375 62.25 
Q 35.15625 65.921875 28.609375 65.921875 
Q 23.96875 65.921875 18.8125 64.3125 
Q 13.671875 62.703125 7.8125 59.421875 
L 7.8125 69.390625 
Q 13.765625 71.78125 18.9375 73 
Q 24.125 74.21875 28.421875 74.21875 
Q 39.75 74.21875 46.484375 68.546875 
Q 53.21875 62.890625 53.21875 53.421875 
Q 53.21875 48.921875 51.53125 44.890625 
Q 49.859375 40.875 45.40625 35.40625 
Q 44.1875 33.984375 37.640625 27.21875 
Q 31.109375 20.453125 19.1875 8.296875 
z
" id="DejaVuSans-50"/>
        <path d="M 10.796875 72.90625 
L 49.515625 72.90625 
L 49.515625 64.59375 
L 19.828125 64.59375 
L 19.828125 46.734375 
Q 21.96875 47.46875 24.109375 47.828125 
Q 26.265625 48.1875 28.421875 48.1875 
Q 40.625 48.1875 47.75 41.5 
Q 54.890625 34.8125 54.890625 23.390625 
Q 54.890625 11.625 47.5625 5.09375 
Q 40.234375 -1.421875 26.90625 -1.421875 
Q 22.3125 -1.421875 17.546875 -0.640625 
Q 12.796875 0.140625 7.71875 1.703125 
L 7.71875 11.625 
Q 12.109375 9.234375 16.796875 8.0625 
Q 21.484375 6.890625 26.703125 6.890625 
Q 35.15625 6.890625 40.078125 11.328125 
Q 45.015625 15.765625 45.015625 23.390625 
Q 45.015625 31 40.078125 35.4375 
Q 35.15625 39.890625 26.703125 39.890625 
Q 22.75 39.890625 18.8125 39.015625 
Q 14.890625 38.140625 10.796875 36.28125 
z
" id="DejaVuSans-53"/>
       </defs>
       <use xlink:href="#DejaVuSans-48"/>
       <use x="63.623047" xlink:href="#DejaVuSans-46"/>
       <use x="95.410156" xlink:href="#DejaVuSans-50"/>
       <use x="159.033203" xlink:href="#DejaVuSans-53"/>
      </g>
     </g>
    </g>
    <g id="xtick_3">
     <g id="line2d_3">
      <path clip-path="url(#pd6249c6cef)" d="M 110.7 192.24 
L 110.7 25.92 
" style="fill:none;stroke:#ffffff;stroke-linecap:round;"/>
     </g>
     <g id="text_3">
      <!-- 0.50 -->
      <g style="fill:#262626;" transform="translate(98.453906 210.098281)scale(0.11 -0.11)">
       <use xlink:href="#DejaVuSans-48"/>
       <use x="63.623047" xlink:href="#DejaVuSans-46"/>
       <use x="95.410156" xlink:href="#DejaVuSans-53"/>
       <use x="159.033203" xlink:href="#DejaVuSans-48"/>
      </g>
     </g>
    </g>
    <g id="xtick_4">
     <g id="line2d_4">
      <path clip-path="url(#pd6249c6cef)" d="M 148.745455 192.24 
L 148.745455 25.92 
" style="fill:none;stroke:#ffffff;stroke-linecap:round;"/>
     </g>
     <g id="text_4">
      <!-- 0.75 -->
      <g style="fill:#262626;" transform="translate(136.499361 210.098281)scale(0.11 -0.11)">
       <defs>
        <path d="M 8.203125 72.90625 
L 55.078125 72.90625 
L 55.078125 68.703125 
L 28.609375 0 
L 18.3125 0 
L 43.21875 64.59375 
L 8.203125 64.59375 
z
" id="DejaVuSans-55"/>
       </defs>
       <use xlink:href="#DejaVuSans-48"/>
       <use x="63.623047" xlink:href="#DejaVuSans-46"/>
       <use x="95.410156" xlink:href="#DejaVuSans-55"/>
       <use x="159.033203" xlink:href="#DejaVuSans-53"/>
      </g>
     </g>
    </g>
    <g id="xtick_5">
     <g id="line2d_5">
      <path clip-path="url(#pd6249c6cef)" d="M 186.790909 192.24 
L 186.790909 25.92 
" style="fill:none;stroke:#ffffff;stroke-linecap:round;"/>
     </g>
     <g id="text_5">
      <!-- 1.00 -->
      <g style="fill:#262626;" transform="translate(174.544815 210.098281)scale(0.11 -0.11)">
       <defs>
        <path d="M 12.40625 8.296875 
L 28.515625 8.296875 
L 28.515625 63.921875 
L 10.984375 60.40625 
L 10.984375 69.390625 
L 28.421875 72.90625 
L 38.28125 72.90625 
L 38.28125 8.296875 
L 54.390625 8.296875 
L 54.390625 0 
L 12.40625 0 
z
" id="DejaVuSans-49"/>
       </defs>
       <use xlink:href="#DejaVuSans-49"/>
       <use x="63.623047" xlink:href="#DejaVuSans-46"/>
       <use x="95.410156" xlink:href="#DejaVuSans-48"/>
       <use x="159.033203" xlink:href="#DejaVuSans-48"/>
      </g>
     </g>
    </g>
    <g id="text_6">
     <!-- $\theta$ -->
     <g style="fill:#262626;" transform="translate(106.98 225.504063)scale(0.12 -0.12)">
      <defs>
       <path d="M 45.515625 34.671875 
L 14.453125 34.671875 
Q 12.359375 20.0625 14.5 13.875 
Q 17.1875 6.25 24.46875 6.25 
Q 31.78125 6.25 37.359375 13.921875 
Q 42.234375 20.65625 45.515625 34.671875 
z
M 47.015625 42.96875 
Q 48.34375 56.84375 46.625 61.71875 
Q 43.953125 69.4375 36.765625 69.4375 
Q 29.296875 69.4375 23.828125 61.8125 
Q 19.53125 55.671875 16.15625 42.96875 
z
M 38.1875 76.765625 
Q 49.90625 76.765625 54.59375 66.40625 
Q 59.28125 56.109375 55.71875 37.84375 
Q 52.203125 19.625 43.453125 9.28125 
Q 34.765625 -1.125 23.046875 -1.125 
Q 11.28125 -1.125 6.640625 9.28125 
Q 2 19.625 5.515625 37.84375 
Q 9.078125 56.109375 17.71875 66.40625 
Q 26.421875 76.765625 38.1875 76.765625 
z
" id="DejaVuSans-Oblique-952"/>
      </defs>
      <use transform="translate(0 0.234375)" xlink:href="#DejaVuSans-Oblique-952"/>
     </g>
    </g>
   </g>
   <g id="matplotlib.axis_2">
    <g id="ytick_1">
     <g id="line2d_6">
      <path clip-path="url(#pd6249c6cef)" d="M 27 184.68 
L 194.4 184.68 
" style="fill:none;stroke:#ffffff;stroke-linecap:round;"/>
     </g>
     <g id="text_7">
      <!-- 0.0 -->
      <g style="fill:#262626;" transform="translate(0.006563 188.859141)scale(0.11 -0.11)">
       <use xlink:href="#DejaVuSans-48"/>
       <use x="63.623047" xlink:href="#DejaVuSans-46"/>
       <use x="95.410156" xlink:href="#DejaVuSans-48"/>
      </g>
     </g>
    </g>
    <g id="ytick_2">
     <g id="line2d_7">
      <path clip-path="url(#pd6249c6cef)" d="M 27 142.155 
L 194.4 142.155 
" style="fill:none;stroke:#ffffff;stroke-linecap:round;"/>
     </g>
     <g id="text_8">
      <!-- 0.5 -->
      <g style="fill:#262626;" transform="translate(0.006563 146.334141)scale(0.11 -0.11)">
       <use xlink:href="#DejaVuSans-48"/>
       <use x="63.623047" xlink:href="#DejaVuSans-46"/>
       <use x="95.410156" xlink:href="#DejaVuSans-53"/>
      </g>
     </g>
    </g>
    <g id="ytick_3">
     <g id="line2d_8">
      <path clip-path="url(#pd6249c6cef)" d="M 27 99.63 
L 194.4 99.63 
" style="fill:none;stroke:#ffffff;stroke-linecap:round;"/>
     </g>
     <g id="text_9">
      <!-- 1.0 -->
      <g style="fill:#262626;" transform="translate(0.006563 103.809141)scale(0.11 -0.11)">
       <use xlink:href="#DejaVuSans-49"/>
       <use x="63.623047" xlink:href="#DejaVuSans-46"/>
       <use x="95.410156" xlink:href="#DejaVuSans-48"/>
      </g>
     </g>
    </g>
    <g id="ytick_4">
     <g id="line2d_9">
      <path clip-path="url(#pd6249c6cef)" d="M 27 57.105 
L 194.4 57.105 
" style="fill:none;stroke:#ffffff;stroke-linecap:round;"/>
     </g>
     <g id="text_10">
      <!-- 1.5 -->
      <g style="fill:#262626;" transform="translate(0.006563 61.284141)scale(0.11 -0.11)">
       <use xlink:href="#DejaVuSans-49"/>
       <use x="63.623047" xlink:href="#DejaVuSans-46"/>
       <use x="95.410156" xlink:href="#DejaVuSans-53"/>
      </g>
     </g>
    </g>
    <g id="text_11">
     <!-- density -->
     <g style="fill:#262626;" transform="translate(-6.489063 131.079375)rotate(-90)scale(0.12 -0.12)">
      <defs>
       <path d="M 45.40625 46.390625 
L 45.40625 75.984375 
L 54.390625 75.984375 
L 54.390625 0 
L 45.40625 0 
L 45.40625 8.203125 
Q 42.578125 3.328125 38.25 0.953125 
Q 33.9375 -1.421875 27.875 -1.421875 
Q 17.96875 -1.421875 11.734375 6.484375 
Q 5.515625 14.40625 5.515625 27.296875 
Q 5.515625 40.1875 11.734375 48.09375 
Q 17.96875 56 27.875 56 
Q 33.9375 56 38.25 53.625 
Q 42.578125 51.265625 45.40625 46.390625 
z
M 14.796875 27.296875 
Q 14.796875 17.390625 18.875 11.75 
Q 22.953125 6.109375 30.078125 6.109375 
Q 37.203125 6.109375 41.296875 11.75 
Q 45.40625 17.390625 45.40625 27.296875 
Q 45.40625 37.203125 41.296875 42.84375 
Q 37.203125 48.484375 30.078125 48.484375 
Q 22.953125 48.484375 18.875 42.84375 
Q 14.796875 37.203125 14.796875 27.296875 
z
" id="DejaVuSans-100"/>
       <path d="M 56.203125 29.59375 
L 56.203125 25.203125 
L 14.890625 25.203125 
Q 15.484375 15.921875 20.484375 11.0625 
Q 25.484375 6.203125 34.421875 6.203125 
Q 39.59375 6.203125 44.453125 7.46875 
Q 49.3125 8.734375 54.109375 11.28125 
L 54.109375 2.78125 
Q 49.265625 0.734375 44.1875 -0.34375 
Q 39.109375 -1.421875 33.890625 -1.421875 
Q 20.796875 -1.421875 13.15625 6.1875 
Q 5.515625 13.8125 5.515625 26.8125 
Q 5.515625 40.234375 12.765625 48.109375 
Q 20.015625 56 32.328125 56 
Q 43.359375 56 49.78125 48.890625 
Q 56.203125 41.796875 56.203125 29.59375 
z
M 47.21875 32.234375 
Q 47.125 39.59375 43.09375 43.984375 
Q 39.0625 48.390625 32.421875 48.390625 
Q 24.90625 48.390625 20.390625 44.140625 
Q 15.875 39.890625 15.1875 32.171875 
z
" id="DejaVuSans-101"/>
       <path d="M 54.890625 33.015625 
L 54.890625 0 
L 45.90625 0 
L 45.90625 32.71875 
Q 45.90625 40.484375 42.875 44.328125 
Q 39.84375 48.1875 33.796875 48.1875 
Q 26.515625 48.1875 22.3125 43.546875 
Q 18.109375 38.921875 18.109375 30.90625 
L 18.109375 0 
L 9.078125 0 
L 9.078125 54.6875 
L 18.109375 54.6875 
L 18.109375 46.1875 
Q 21.34375 51.125 25.703125 53.5625 
Q 30.078125 56 35.796875 56 
Q 45.21875 56 50.046875 50.171875 
Q 54.890625 44.34375 54.890625 33.015625 
z
" id="DejaVuSans-110"/>
       <path d="M 44.28125 53.078125 
L 44.28125 44.578125 
Q 40.484375 46.53125 36.375 47.5 
Q 32.28125 48.484375 27.875 48.484375 
Q 21.1875 48.484375 17.84375 46.4375 
Q 14.5 44.390625 14.5 40.28125 
Q 14.5 37.15625 16.890625 35.375 
Q 19.28125 33.59375 26.515625 31.984375 
L 29.59375 31.296875 
Q 39.15625 29.25 43.1875 25.515625 
Q 47.21875 21.78125 47.21875 15.09375 
Q 47.21875 7.46875 41.1875 3.015625 
Q 35.15625 -1.421875 24.609375 -1.421875 
Q 20.21875 -1.421875 15.453125 -0.5625 
Q 10.6875 0.296875 5.421875 2 
L 5.421875 11.28125 
Q 10.40625 8.6875 15.234375 7.390625 
Q 20.0625 6.109375 24.8125 6.109375 
Q 31.15625 6.109375 34.5625 8.28125 
Q 37.984375 10.453125 37.984375 14.40625 
Q 37.984375 18.0625 35.515625 20.015625 
Q 33.0625 21.96875 24.703125 23.78125 
L 21.578125 24.515625 
Q 13.234375 26.265625 9.515625 29.90625 
Q 5.8125 33.546875 5.8125 39.890625 
Q 5.8125 47.609375 11.28125 51.796875 
Q 16.75 56 26.8125 56 
Q 31.78125 56 36.171875 55.265625 
Q 40.578125 54.546875 44.28125 53.078125 
z
" id="DejaVuSans-115"/>
       <path d="M 9.421875 54.6875 
L 18.40625 54.6875 
L 18.40625 0 
L 9.421875 0 
z
M 9.421875 75.984375 
L 18.40625 75.984375 
L 18.40625 64.59375 
L 9.421875 64.59375 
z
" id="DejaVuSans-105"/>
       <path d="M 18.3125 70.21875 
L 18.3125 54.6875 
L 36.8125 54.6875 
L 36.8125 47.703125 
L 18.3125 47.703125 
L 18.3125 18.015625 
Q 18.3125 11.328125 20.140625 9.421875 
Q 21.96875 7.515625 27.59375 7.515625 
L 36.8125 7.515625 
L 36.8125 0 
L 27.59375 0 
Q 17.1875 0 13.234375 3.875 
Q 9.28125 7.765625 9.28125 18.015625 
L 9.28125 47.703125 
L 2.6875 47.703125 
L 2.6875 54.6875 
L 9.28125 54.6875 
L 9.28125 70.21875 
z
" id="DejaVuSans-116"/>
       <path d="M 32.171875 -5.078125 
Q 28.375 -14.84375 24.75 -17.8125 
Q 21.140625 -20.796875 15.09375 -20.796875 
L 7.90625 -20.796875 
L 7.90625 -13.28125 
L 13.1875 -13.28125 
Q 16.890625 -13.28125 18.9375 -11.515625 
Q 21 -9.765625 23.484375 -3.21875 
L 25.09375 0.875 
L 2.984375 54.6875 
L 12.5 54.6875 
L 29.59375 11.921875 
L 46.6875 54.6875 
L 56.203125 54.6875 
z
" id="DejaVuSans-121"/>
      </defs>
      <use xlink:href="#DejaVuSans-100"/>
      <use x="63.476562" xlink:href="#DejaVuSans-101"/>
      <use x="125" xlink:href="#DejaVuSans-110"/>
      <use x="188.378906" xlink:href="#DejaVuSans-115"/>
      <use x="240.478516" xlink:href="#DejaVuSans-105"/>
      <use x="268.261719" xlink:href="#DejaVuSans-116"/>
      <use x="307.470703" xlink:href="#DejaVuSans-121"/>
     </g>
    </g>
   </g>
   <g id="PolyCollection_1">
    <defs>
     <path d="M 34.609091 -31.32 
L 34.609091 -31.32 
L 34.761425 -31.321022 
L 34.913759 -31.324082 
L 35.066093 -31.329176 
L 35.218428 -31.336297 
L 35.370762 -31.345438 
L 35.523096 -31.356594 
L 35.67543 -31.369758 
L 35.827764 -31.384925 
L 35.980098 -31.402088 
L 36.132432 -31.421241 
L 36.284767 -31.442377 
L 36.437101 -31.465492 
L 36.589435 -31.490578 
L 36.741769 -31.517629 
L 36.894103 -31.54664 
L 37.046437 -31.577604 
L 37.198771 -31.610515 
L 37.351106 -31.645367 
L 37.50344 -31.682153 
L 37.655774 -31.720868 
L 37.808108 -31.761506 
L 37.960442 -31.80406 
L 38.112776 -31.848524 
L 38.265111 -31.894892 
L 38.417445 -31.943158 
L 38.569779 -31.993316 
L 38.722113 -32.045359 
L 38.874447 -32.099282 
L 39.026781 -32.155078 
L 39.179115 -32.212741 
L 39.33145 -32.272265 
L 39.483784 -32.333644 
L 39.636118 -32.396872 
L 39.788452 -32.461943 
L 39.940786 -32.528849 
L 40.09312 -32.597587 
L 40.245455 -32.668148 
L 40.397789 -32.740528 
L 40.550123 -32.814719 
L 40.702457 -32.890716 
L 40.854791 -32.968513 
L 41.007125 -33.048103 
L 41.159459 -33.12948 
L 41.311794 -33.212639 
L 41.464128 -33.297573 
L 41.616462 -33.384276 
L 41.768796 -33.472741 
L 41.92113 -33.562963 
L 42.073464 -33.654935 
L 42.225799 -33.748652 
L 42.378133 -33.844107 
L 42.530467 -33.941294 
L 42.682801 -34.040207 
L 42.835135 -34.14084 
L 42.987469 -34.243186 
L 43.139803 -34.34724 
L 43.292138 -34.452995 
L 43.444472 -34.560445 
L 43.596806 -34.669585 
L 43.74914 -34.780407 
L 43.901474 -34.892906 
L 44.053808 -35.007076 
L 44.206143 -35.12291 
L 44.358477 -35.240403 
L 44.510811 -35.359547 
L 44.663145 -35.480338 
L 44.815479 -35.602769 
L 44.967813 -35.726833 
L 45.120147 -35.852525 
L 45.272482 -35.979839 
L 45.424816 -36.108768 
L 45.57715 -36.239306 
L 45.729484 -36.371447 
L 45.881818 -36.505185 
L 46.034152 -36.640514 
L 46.186486 -36.777428 
L 46.338821 -36.91592 
L 46.491155 -37.055984 
L 46.643489 -37.197615 
L 46.795823 -37.340805 
L 46.948157 -37.48555 
L 47.100491 -37.631842 
L 47.252826 -37.779676 
L 47.40516 -37.929046 
L 47.557494 -38.079945 
L 47.709828 -38.232367 
L 47.862162 -38.386306 
L 48.014496 -38.541756 
L 48.16683 -38.698711 
L 48.319165 -38.857165 
L 48.471499 -39.017111 
L 48.623833 -39.178543 
L 48.776167 -39.341456 
L 48.928501 -39.505843 
L 49.080835 -39.671697 
L 49.23317 -39.839014 
L 49.385504 -40.007786 
L 49.537838 -40.178007 
L 49.690172 -40.349672 
L 49.842506 -40.522775 
L 49.99484 -40.697308 
L 50.147174 -40.873266 
L 50.299509 -41.050643 
L 50.451843 -41.229433 
L 50.604177 -41.409629 
L 50.756511 -41.591226 
L 50.908845 -41.774217 
L 51.061179 -41.958596 
L 51.213514 -42.144357 
L 51.365848 -42.331494 
L 51.518182 -42.52 
L 51.670516 -42.70987 
L 51.82285 -42.901097 
L 51.975184 -43.093676 
L 52.127518 -43.287599 
L 52.279853 -43.482862 
L 52.432187 -43.679457 
L 52.584521 -43.87738 
L 52.736855 -44.076622 
L 52.889189 -44.277179 
L 53.041523 -44.479045 
L 53.193857 -44.682212 
L 53.346192 -44.886675 
L 53.498526 -45.092428 
L 53.65086 -45.299465 
L 53.803194 -45.50778 
L 53.955528 -45.717365 
L 54.107862 -45.928216 
L 54.260197 -46.140327 
L 54.412531 -46.35369 
L 54.564865 -46.5683 
L 54.717199 -46.78415 
L 54.869533 -47.001235 
L 55.021867 -47.219549 
L 55.174201 -47.439085 
L 55.326536 -47.659837 
L 55.47887 -47.881799 
L 55.631204 -48.104964 
L 55.783538 -48.329328 
L 55.935872 -48.554883 
L 56.088206 -48.781623 
L 56.240541 -49.009543 
L 56.392875 -49.238636 
L 56.545209 -49.468895 
L 56.697543 -49.700316 
L 56.849877 -49.932891 
L 57.002211 -50.166615 
L 57.154545 -50.401481 
L 57.30688 -50.637484 
L 57.459214 -50.874617 
L 57.611548 -51.112873 
L 57.763882 -51.352248 
L 57.916216 -51.592734 
L 58.06855 -51.834326 
L 58.220885 -52.077017 
L 58.373219 -52.320802 
L 58.525553 -52.565673 
L 58.677887 -52.811626 
L 58.830221 -53.058653 
L 58.982555 -53.306749 
L 59.134889 -53.555908 
L 59.287224 -53.806123 
L 59.439558 -54.057389 
L 59.591892 -54.309698 
L 59.744226 -54.563046 
L 59.89656 -54.817425 
L 60.048894 -55.07283 
L 60.201229 -55.329255 
L 60.353563 -55.586693 
L 60.505897 -55.845139 
L 60.658231 -56.104585 
L 60.810565 -56.365027 
L 60.962899 -56.626457 
L 61.115233 -56.888871 
L 61.267568 -57.15226 
L 61.419902 -57.416621 
L 61.572236 -57.681945 
L 61.72457 -57.948228 
L 61.876904 -58.215462 
L 62.029238 -58.483643 
L 62.181572 -58.752763 
L 62.333907 -59.022817 
L 62.486241 -59.293798 
L 62.638575 -59.565701 
L 62.790909 -59.838519 
L 62.943243 -60.112245 
L 63.095577 -60.386875 
L 63.247912 -60.662401 
L 63.400246 -60.938818 
L 63.55258 -61.21612 
L 63.704914 -61.494299 
L 63.857248 -61.773351 
L 64.009582 -62.053269 
L 64.161916 -62.334047 
L 64.314251 -62.615678 
L 64.466585 -62.898158 
L 64.618919 -63.181478 
L 64.771253 -63.465634 
L 64.923587 -63.750619 
L 65.075921 -64.036427 
L 65.228256 -64.323052 
L 65.38059 -64.610488 
L 65.532924 -64.898728 
L 65.685258 -65.187767 
L 65.837592 -65.477598 
L 65.989926 -65.768215 
L 66.14226 -66.059613 
L 66.294595 -66.351784 
L 66.446929 -66.644723 
L 66.599263 -66.938423 
L 66.751597 -67.232879 
L 66.903931 -67.528085 
L 67.056265 -67.824033 
L 67.2086 -68.120719 
L 67.360934 -68.418135 
L 67.513268 -68.716277 
L 67.665602 -69.015136 
L 67.817936 -69.314709 
L 67.97027 -69.614987 
L 68.122604 -69.915966 
L 68.274939 -70.217639 
L 68.427273 -70.52 
L 68.579607 -70.823043 
L 68.731941 -71.126761 
L 68.884275 -71.431148 
L 69.036609 -71.736199 
L 69.188943 -72.041908 
L 69.341278 -72.348267 
L 69.493612 -72.655271 
L 69.645946 -72.962914 
L 69.79828 -73.271189 
L 69.950614 -73.580092 
L 70.102948 -73.889614 
L 70.255283 -74.19975 
L 70.407617 -74.510495 
L 70.559951 -74.821842 
L 70.712285 -75.133784 
L 70.864619 -75.446316 
L 71.016953 -75.759431 
L 71.169287 -76.073124 
L 71.321622 -76.387388 
L 71.473956 -76.702217 
L 71.62629 -77.017605 
L 71.778624 -77.333546 
L 71.930958 -77.650033 
L 72.083292 -77.967061 
L 72.235627 -78.284624 
L 72.387961 -78.602714 
L 72.540295 -78.921327 
L 72.692629 -79.240455 
L 72.844963 -79.560093 
L 72.997297 -79.880235 
L 73.149631 -80.200875 
L 73.301966 -80.522006 
L 73.4543 -80.843622 
L 73.606634 -81.165717 
L 73.758968 -81.488285 
L 73.911302 -81.811319 
L 74.063636 -82.134815 
L 74.215971 -82.458765 
L 74.368305 -82.783163 
L 74.520639 -83.108004 
L 74.672973 -83.43328 
L 74.825307 -83.758987 
L 74.977641 -84.085117 
L 75.129975 -84.411665 
L 75.28231 -84.738625 
L 75.434644 -85.06599 
L 75.586978 -85.393754 
L 75.739312 -85.721911 
L 75.891646 -86.050455 
L 76.04398 -86.37938 
L 76.196314 -86.70868 
L 76.348649 -87.038348 
L 76.500983 -87.368379 
L 76.653317 -87.698765 
L 76.805651 -88.029502 
L 76.957985 -88.360583 
L 77.110319 -88.692002 
L 77.262654 -89.023752 
L 77.414988 -89.355828 
L 77.567322 -89.688223 
L 77.719656 -90.020931 
L 77.87199 -90.353947 
L 78.024324 -90.687264 
L 78.176658 -91.020875 
L 78.328993 -91.354775 
L 78.481327 -91.688957 
L 78.633661 -92.023416 
L 78.785995 -92.358146 
L 78.938329 -92.693139 
L 79.090663 -93.02839 
L 79.242998 -93.363893 
L 79.395332 -93.699642 
L 79.547666 -94.03563 
L 79.7 -94.371852 
L 79.852334 -94.708301 
L 80.004668 -95.044971 
L 80.157002 -95.381856 
L 80.309337 -95.71895 
L 80.461671 -96.056246 
L 80.614005 -96.393739 
L 80.766339 -96.731423 
L 80.918673 -97.069291 
L 81.071007 -97.407336 
L 81.223342 -97.745554 
L 81.375676 -98.083938 
L 81.52801 -98.422481 
L 81.680344 -98.761178 
L 81.832678 -99.100023 
L 81.985012 -99.439008 
L 82.137346 -99.778129 
L 82.289681 -100.117379 
L 82.442015 -100.456751 
L 82.594349 -100.79624 
L 82.746683 -101.13584 
L 82.899017 -101.475544 
L 83.051351 -101.815347 
L 83.203686 -102.155241 
L 83.35602 -102.495222 
L 83.508354 -102.835282 
L 83.660688 -103.175417 
L 83.813022 -103.515618 
L 83.965356 -103.855881 
L 84.11769 -104.1962 
L 84.270025 -104.536567 
L 84.422359 -104.876978 
L 84.574693 -105.217425 
L 84.727027 -105.557903 
L 84.879361 -105.898406 
L 85.031695 -106.238927 
L 85.184029 -106.57946 
L 85.336364 -106.92 
L 85.488698 -107.26054 
L 85.641032 -107.601073 
L 85.793366 -107.941594 
L 85.9457 -108.282097 
L 86.098034 -108.622575 
L 86.250369 -108.963022 
L 86.402703 -109.303433 
L 86.555037 -109.6438 
L 86.707371 -109.984119 
L 86.859705 -110.324382 
L 87.012039 -110.664583 
L 87.164373 -111.004718 
L 87.316708 -111.344778 
L 87.469042 -111.684759 
L 87.621376 -112.024653 
L 87.77371 -112.364456 
L 87.926044 -112.70416 
L 88.078378 -113.04376 
L 88.230713 -113.383249 
L 88.383047 -113.722621 
L 88.535381 -114.061871 
L 88.687715 -114.400992 
L 88.840049 -114.739977 
L 88.992383 -115.078822 
L 89.144717 -115.417519 
L 89.297052 -115.756062 
L 89.449386 -116.094446 
L 89.60172 -116.432664 
L 89.754054 -116.770709 
L 89.906388 -117.108577 
L 90.058722 -117.446261 
L 90.211057 -117.783754 
L 90.363391 -118.12105 
L 90.515725 -118.458144 
L 90.668059 -118.795029 
L 90.820393 -119.131699 
L 90.972727 -119.468148 
L 91.125061 -119.80437 
L 91.277396 -120.140358 
L 91.42973 -120.476107 
L 91.582064 -120.81161 
L 91.734398 -121.146861 
L 91.886732 -121.481854 
L 92.039066 -121.816584 
L 92.1914 -122.151043 
L 92.343735 -122.485225 
L 92.496069 -122.819125 
L 92.648403 -123.152736 
L 92.800737 -123.486053 
L 92.953071 -123.819069 
L 93.105405 -124.151777 
L 93.25774 -124.484172 
L 93.410074 -124.816248 
L 93.562408 -125.147998 
L 93.714742 -125.479417 
L 93.867076 -125.810498 
L 94.01941 -126.141235 
L 94.171744 -126.471621 
L 94.324079 -126.801652 
L 94.476413 -127.13132 
L 94.628747 -127.46062 
L 94.781081 -127.789545 
L 94.933415 -128.118089 
L 95.085749 -128.446246 
L 95.238084 -128.77401 
L 95.390418 -129.101375 
L 95.542752 -129.428335 
L 95.695086 -129.754883 
L 95.84742 -130.081013 
L 95.999754 -130.40672 
L 96.152088 -130.731996 
L 96.304423 -131.056837 
L 96.456757 -131.381235 
L 96.609091 -131.705185 
L 96.761425 -132.028681 
L 96.913759 -132.351715 
L 97.066093 -132.674283 
L 97.218428 -132.996378 
L 97.370762 -133.317994 
L 97.523096 -133.639125 
L 97.67543 -133.959765 
L 97.827764 -134.279907 
L 97.980098 -134.599545 
L 98.132432 -134.918673 
L 98.284767 -135.237286 
L 98.437101 -135.555376 
L 98.589435 -135.872939 
L 98.741769 -136.189967 
L 98.894103 -136.506454 
L 99.046437 -136.822395 
L 99.198771 -137.137783 
L 99.351106 -137.452612 
L 99.50344 -137.766876 
L 99.655774 -138.080569 
L 99.808108 -138.393684 
L 99.960442 -138.706216 
L 100.112776 -139.018158 
L 100.265111 -139.329505 
L 100.417445 -139.64025 
L 100.569779 -139.950386 
L 100.722113 -140.259908 
L 100.874447 -140.568811 
L 101.026781 -140.877086 
L 101.179115 -141.184729 
L 101.33145 -141.491733 
L 101.483784 -141.798092 
L 101.636118 -142.103801 
L 101.788452 -142.408852 
L 101.940786 -142.713239 
L 102.09312 -143.016957 
L 102.245455 -143.32 
L 102.397789 -143.622361 
L 102.550123 -143.924034 
L 102.702457 -144.225013 
L 102.854791 -144.525291 
L 103.007125 -144.824864 
L 103.159459 -145.123723 
L 103.311794 -145.421865 
L 103.464128 -145.719281 
L 103.616462 -146.015967 
L 103.768796 -146.311915 
L 103.92113 -146.607121 
L 104.073464 -146.901577 
L 104.225799 -147.195277 
L 104.378133 -147.488216 
L 104.530467 -147.780387 
L 104.682801 -148.071785 
L 104.835135 -148.362402 
L 104.987469 -148.652233 
L 105.139803 -148.941272 
L 105.292138 -149.229512 
L 105.444472 -149.516948 
L 105.596806 -149.803573 
L 105.74914 -150.089381 
L 105.901474 -150.374366 
L 106.053808 -150.658522 
L 106.206143 -150.941842 
L 106.358477 -151.224322 
L 106.510811 -151.505953 
L 106.663145 -151.786731 
L 106.815479 -152.066649 
L 106.967813 -152.345701 
L 107.120147 -152.62388 
L 107.272482 -152.901182 
L 107.424816 -153.177599 
L 107.57715 -153.453125 
L 107.729484 -153.727755 
L 107.881818 -154.001481 
L 108.034152 -154.274299 
L 108.186486 -154.546202 
L 108.338821 -154.817183 
L 108.491155 -155.087237 
L 108.643489 -155.356357 
L 108.795823 -155.624538 
L 108.948157 -155.891772 
L 109.100491 -156.158055 
L 109.252826 -156.423379 
L 109.40516 -156.68774 
L 109.557494 -156.951129 
L 109.709828 -157.213543 
L 109.862162 -157.474973 
L 110.014496 -157.735415 
L 110.16683 -157.994861 
L 110.319165 -158.253307 
L 110.471499 -158.510745 
L 110.623833 -158.76717 
L 110.776167 -159.022575 
L 110.928501 -159.276954 
L 111.080835 -159.530302 
L 111.23317 -159.782611 
L 111.385504 -160.033877 
L 111.537838 -160.284092 
L 111.690172 -160.533251 
L 111.842506 -160.781347 
L 111.99484 -161.028374 
L 112.147174 -161.274327 
L 112.299509 -161.519198 
L 112.451843 -161.762983 
L 112.604177 -162.005674 
L 112.756511 -162.247266 
L 112.908845 -162.487752 
L 113.061179 -162.727127 
L 113.213514 -162.965383 
L 113.365848 -163.202516 
L 113.518182 -163.438519 
L 113.670516 -163.673385 
L 113.82285 -163.907109 
L 113.975184 -164.139684 
L 114.127518 -164.371105 
L 114.279853 -164.601364 
L 114.432187 -164.830457 
L 114.584521 -165.058377 
L 114.736855 -165.285117 
L 114.889189 -165.510672 
L 115.041523 -165.735036 
L 115.193857 -165.958201 
L 115.346192 -166.180163 
L 115.498526 -166.400915 
L 115.65086 -166.620451 
L 115.803194 -166.838765 
L 115.955528 -167.05585 
L 116.107862 -167.2717 
L 116.260197 -167.48631 
L 116.412531 -167.699673 
L 116.564865 -167.911784 
L 116.717199 -168.122635 
L 116.869533 -168.33222 
L 117.021867 -168.540535 
L 117.174201 -168.747572 
L 117.326536 -168.953325 
L 117.47887 -169.157788 
L 117.631204 -169.360955 
L 117.783538 -169.562821 
L 117.935872 -169.763378 
L 118.088206 -169.96262 
L 118.240541 -170.160543 
L 118.392875 -170.357138 
L 118.545209 -170.552401 
L 118.697543 -170.746324 
L 118.849877 -170.938903 
L 119.002211 -171.13013 
L 119.154545 -171.32 
L 119.30688 -171.508506 
L 119.459214 -171.695643 
L 119.611548 -171.881404 
L 119.763882 -172.065783 
L 119.916216 -172.248774 
L 120.06855 -172.430371 
L 120.220885 -172.610567 
L 120.373219 -172.789357 
L 120.525553 -172.966734 
L 120.677887 -173.142692 
L 120.830221 -173.317225 
L 120.982555 -173.490328 
L 121.134889 -173.661993 
L 121.287224 -173.832214 
L 121.439558 -174.000986 
L 121.591892 -174.168303 
L 121.744226 -174.334157 
L 121.89656 -174.498544 
L 122.048894 -174.661457 
L 122.201229 -174.822889 
L 122.353563 -174.982835 
L 122.505897 -175.141289 
L 122.658231 -175.298244 
L 122.810565 -175.453694 
L 122.962899 -175.607633 
L 123.115233 -175.760055 
L 123.267568 -175.910954 
L 123.419902 -176.060324 
L 123.572236 -176.208158 
L 123.72457 -176.35445 
L 123.876904 -176.499195 
L 124.029238 -176.642385 
L 124.181572 -176.784016 
L 124.333907 -176.92408 
L 124.486241 -177.062572 
L 124.638575 -177.199486 
L 124.790909 -177.334815 
L 124.943243 -177.468553 
L 125.095577 -177.600694 
L 125.247912 -177.731232 
L 125.400246 -177.860161 
L 125.55258 -177.987475 
L 125.704914 -178.113167 
L 125.857248 -178.237231 
L 126.009582 -178.359662 
L 126.161916 -178.480453 
L 126.314251 -178.599597 
L 126.466585 -178.71709 
L 126.618919 -178.832924 
L 126.771253 -178.947094 
L 126.923587 -179.059593 
L 127.075921 -179.170415 
L 127.228256 -179.279555 
L 127.38059 -179.387005 
L 127.532924 -179.49276 
L 127.685258 -179.596814 
L 127.837592 -179.69916 
L 127.989926 -179.799793 
L 128.14226 -179.898706 
L 128.294595 -179.995893 
L 128.446929 -180.091348 
L 128.599263 -180.185065 
L 128.751597 -180.277037 
L 128.903931 -180.367259 
L 129.056265 -180.455724 
L 129.2086 -180.542427 
L 129.360934 -180.627361 
L 129.513268 -180.71052 
L 129.665602 -180.791897 
L 129.817936 -180.871487 
L 129.97027 -180.949284 
L 130.122604 -181.025281 
L 130.274939 -181.099472 
L 130.427273 -181.171852 
L 130.579607 -181.242413 
L 130.731941 -181.311151 
L 130.884275 -181.378057 
L 131.036609 -181.443128 
L 131.188943 -181.506356 
L 131.341278 -181.567735 
L 131.493612 -181.627259 
L 131.645946 -181.684922 
L 131.79828 -181.740718 
L 131.950614 -181.794641 
L 132.102948 -181.846684 
L 132.255283 -181.896842 
L 132.407617 -181.945108 
L 132.559951 -181.991476 
L 132.712285 -182.03594 
L 132.864619 -182.078494 
L 133.016953 -182.119132 
L 133.169287 -182.157847 
L 133.321622 -182.194633 
L 133.473956 -182.229485 
L 133.62629 -182.262396 
L 133.778624 -182.29336 
L 133.930958 -182.322371 
L 134.083292 -182.349422 
L 134.235627 -182.374508 
L 134.387961 -182.397623 
L 134.540295 -182.418759 
L 134.692629 -182.437912 
L 134.844963 -182.455075 
L 134.997297 -182.470242 
L 135.149631 -182.483406 
L 135.301966 -182.494562 
L 135.4543 -182.503703 
L 135.606634 -182.510824 
L 135.758968 -182.515918 
L 135.911302 -182.518978 
L 136.063636 -182.52 
L 136.215971 -182.518976 
L 136.368305 -182.515901 
L 136.520639 -182.510769 
L 136.672973 -182.503572 
L 136.825307 -182.494306 
L 136.977641 -182.482964 
L 137.129975 -182.469539 
L 137.28231 -182.454027 
L 137.434644 -182.43642 
L 137.586978 -182.416712 
L 137.739312 -182.394898 
L 137.891646 -182.37097 
L 138.04398 -182.344924 
L 138.196314 -182.316753 
L 138.348649 -182.28645 
L 138.500983 -182.25401 
L 138.653317 -182.219427 
L 138.805651 -182.182693 
L 138.957985 -182.143804 
L 139.110319 -182.102753 
L 139.262654 -182.059534 
L 139.414988 -182.01414 
L 139.567322 -181.966566 
L 139.719656 -181.916806 
L 139.87199 -181.864853 
L 140.024324 -181.8107 
L 140.176658 -181.754343 
L 140.328993 -181.695775 
L 140.481327 -181.63499 
L 140.633661 -181.571981 
L 140.785995 -181.506743 
L 140.938329 -181.439269 
L 141.090663 -181.369553 
L 141.242998 -181.297589 
L 141.395332 -181.223371 
L 141.547666 -181.146893 
L 141.7 -181.068148 
L 141.852334 -180.987131 
L 142.004668 -180.903835 
L 142.157002 -180.818254 
L 142.309337 -180.730383 
L 142.461671 -180.640214 
L 142.614005 -180.547742 
L 142.766339 -180.452961 
L 142.918673 -180.355864 
L 143.071007 -180.256445 
L 143.223342 -180.154699 
L 143.375676 -180.050618 
L 143.52801 -179.944198 
L 143.680344 -179.835431 
L 143.832678 -179.724312 
L 143.985012 -179.610834 
L 144.137346 -179.494992 
L 144.289681 -179.376778 
L 144.442015 -179.256188 
L 144.594349 -179.133215 
L 144.746683 -179.007853 
L 144.899017 -178.880095 
L 145.051351 -178.749935 
L 145.203686 -178.617368 
L 145.35602 -178.482388 
L 145.508354 -178.344987 
L 145.660688 -178.20516 
L 145.813022 -178.062901 
L 145.965356 -177.918203 
L 146.11769 -177.771061 
L 146.270025 -177.621468 
L 146.422359 -177.469419 
L 146.574693 -177.314907 
L 146.727027 -177.157925 
L 146.879361 -176.998468 
L 147.031695 -176.83653 
L 147.184029 -176.672104 
L 147.336364 -176.505185 
L 147.488698 -176.335766 
L 147.641032 -176.163841 
L 147.793366 -175.989404 
L 147.9457 -175.812449 
L 148.098034 -175.632969 
L 148.250369 -175.450959 
L 148.402703 -175.266412 
L 148.555037 -175.079322 
L 148.707371 -174.889684 
L 148.859705 -174.69749 
L 149.012039 -174.502735 
L 149.164373 -174.305413 
L 149.316708 -174.105517 
L 149.469042 -173.903042 
L 149.621376 -173.697981 
L 149.77371 -173.490328 
L 149.926044 -173.280076 
L 150.078378 -173.067221 
L 150.230713 -172.851755 
L 150.383047 -172.633673 
L 150.535381 -172.412968 
L 150.687715 -172.189635 
L 150.840049 -171.963666 
L 150.992383 -171.735056 
L 151.144717 -171.5038 
L 151.297052 -171.269889 
L 151.449386 -171.03332 
L 151.60172 -170.794084 
L 151.754054 -170.552177 
L 151.906388 -170.307592 
L 152.058722 -170.060323 
L 152.211057 -169.810364 
L 152.363391 -169.557709 
L 152.515725 -169.302351 
L 152.668059 -169.044284 
L 152.820393 -168.783502 
L 152.972727 -168.52 
L 153.125061 -168.253771 
L 153.277396 -167.984808 
L 153.42973 -167.713106 
L 153.582064 -167.438659 
L 153.734398 -167.16146 
L 153.886732 -166.881503 
L 154.039066 -166.598782 
L 154.1914 -166.313291 
L 154.343735 -166.025024 
L 154.496069 -165.733975 
L 154.648403 -165.440137 
L 154.800737 -165.143505 
L 154.953071 -164.844072 
L 155.105405 -164.541832 
L 155.25774 -164.236779 
L 155.410074 -163.928907 
L 155.562408 -163.618209 
L 155.714742 -163.30468 
L 155.867076 -162.988313 
L 156.01941 -162.669103 
L 156.171744 -162.347043 
L 156.324079 -162.022127 
L 156.476413 -161.694348 
L 156.628747 -161.363701 
L 156.781081 -161.03018 
L 156.933415 -160.693778 
L 157.085749 -160.35449 
L 157.238084 -160.012308 
L 157.390418 -159.667228 
L 157.542752 -159.319242 
L 157.695086 -158.968345 
L 157.84742 -158.61453 
L 157.999754 -158.257792 
L 158.152088 -157.898125 
L 158.304423 -157.535521 
L 158.456757 -157.169975 
L 158.609091 -156.801481 
L 158.761425 -156.430033 
L 158.913759 -156.055625 
L 159.066093 -155.67825 
L 159.218428 -155.297902 
L 159.370762 -154.914575 
L 159.523096 -154.528263 
L 159.67543 -154.13896 
L 159.827764 -153.74666 
L 159.980098 -153.351356 
L 160.132432 -152.953043 
L 160.284767 -152.551714 
L 160.437101 -152.147363 
L 160.589435 -151.739984 
L 160.741769 -151.329571 
L 160.894103 -150.916118 
L 161.046437 -150.499618 
L 161.198771 -150.080066 
L 161.351106 -149.657454 
L 161.50344 -149.231779 
L 161.655774 -148.803032 
L 161.808108 -148.371208 
L 161.960442 -147.9363 
L 162.112776 -147.498303 
L 162.265111 -147.057211 
L 162.417445 -146.613017 
L 162.569779 -146.165715 
L 162.722113 -145.715299 
L 162.874447 -145.261763 
L 163.026781 -144.805101 
L 163.179115 -144.345306 
L 163.33145 -143.882372 
L 163.483784 -143.416294 
L 163.636118 -142.947065 
L 163.788452 -142.47468 
L 163.940786 -141.999131 
L 164.09312 -141.520412 
L 164.245455 -141.038519 
L 164.397789 -140.553443 
L 164.550123 -140.06518 
L 164.702457 -139.573723 
L 164.854791 -139.079067 
L 165.007125 -138.581204 
L 165.159459 -138.080128 
L 165.311794 -137.575835 
L 165.464128 -137.068317 
L 165.616462 -136.557568 
L 165.768796 -136.043582 
L 165.92113 -135.526353 
L 166.073464 -135.005876 
L 166.225799 -134.482142 
L 166.378133 -133.955148 
L 166.530467 -133.424886 
L 166.682801 -132.89135 
L 166.835135 -132.354535 
L 166.987469 -131.814433 
L 167.139803 -131.271039 
L 167.292138 -130.724348 
L 167.444472 -130.174351 
L 167.596806 -129.621044 
L 167.74914 -129.064421 
L 167.901474 -128.504474 
L 168.053808 -127.941199 
L 168.206143 -127.374589 
L 168.358477 -126.804637 
L 168.510811 -126.231338 
L 168.663145 -125.654685 
L 168.815479 -125.074673 
L 168.967813 -124.491295 
L 169.120147 -123.904545 
L 169.272482 -123.314417 
L 169.424816 -122.720904 
L 169.57715 -122.124001 
L 169.729484 -121.523702 
L 169.881818 -120.92 
L 170.034152 -120.312889 
L 170.186486 -119.702363 
L 170.338821 -119.088416 
L 170.491155 -118.471042 
L 170.643489 -117.850235 
L 170.795823 -117.225988 
L 170.948157 -116.598295 
L 171.100491 -115.967151 
L 171.252826 -115.332548 
L 171.40516 -114.694482 
L 171.557494 -114.052945 
L 171.709828 -113.407932 
L 171.862162 -112.759436 
L 172.014496 -112.107452 
L 172.16683 -111.451972 
L 172.319165 -110.792992 
L 172.471499 -110.130505 
L 172.623833 -109.464505 
L 172.776167 -108.794985 
L 172.928501 -108.12194 
L 173.080835 -107.445363 
L 173.23317 -106.765248 
L 173.385504 -106.081589 
L 173.537838 -105.394381 
L 173.690172 -104.703616 
L 173.842506 -104.009288 
L 173.99484 -103.311392 
L 174.147174 -102.609922 
L 174.299509 -101.904871 
L 174.451843 -101.196232 
L 174.604177 -100.484001 
L 174.756511 -99.768171 
L 174.908845 -99.048735 
L 175.061179 -98.325687 
L 175.213514 -97.599022 
L 175.365848 -96.868734 
L 175.518182 -96.134815 
L 175.670516 -95.39726 
L 175.82285 -94.656063 
L 175.975184 -93.911218 
L 176.127518 -93.162718 
L 176.279853 -92.410557 
L 176.432187 -91.65473 
L 176.584521 -90.89523 
L 176.736855 -90.132051 
L 176.889189 -89.365186 
L 177.041523 -88.59463 
L 177.193857 -87.820377 
L 177.346192 -87.04242 
L 177.498526 -86.260753 
L 177.65086 -85.475371 
L 177.803194 -84.686266 
L 177.955528 -83.893433 
L 178.107862 -83.096866 
L 178.260197 -82.296558 
L 178.412531 -81.492504 
L 178.564865 -80.684697 
L 178.717199 -79.873131 
L 178.869533 -79.0578 
L 179.021867 -78.238698 
L 179.174201 -77.415818 
L 179.326536 -76.589155 
L 179.47887 -75.758703 
L 179.631204 -74.924454 
L 179.783538 -74.086404 
L 179.935872 -73.244545 
L 180.088206 -72.398873 
L 180.240541 -71.54938 
L 180.392875 -70.696061 
L 180.545209 -69.838909 
L 180.697543 -68.977918 
L 180.849877 -68.113082 
L 181.002211 -67.244396 
L 181.154545 -66.371852 
L 181.30688 -65.495445 
L 181.459214 -64.615168 
L 181.611548 -63.731016 
L 181.763882 -62.842982 
L 181.916216 -61.95106 
L 182.06855 -61.055244 
L 182.220885 -60.155528 
L 182.373219 -59.251906 
L 182.525553 -58.344371 
L 182.677887 -57.432917 
L 182.830221 -56.517539 
L 182.982555 -55.59823 
L 183.134889 -54.674984 
L 183.287224 -53.747795 
L 183.439558 -52.816656 
L 183.591892 -51.881562 
L 183.744226 -50.942506 
L 183.89656 -49.999483 
L 184.048894 -49.052486 
L 184.201229 -48.101508 
L 184.353563 -47.146545 
L 184.505897 -46.187589 
L 184.658231 -45.224635 
L 184.810565 -44.257676 
L 184.962899 -43.286707 
L 185.115233 -42.31172 
L 185.267568 -41.332711 
L 185.419902 -40.349672 
L 185.572236 -39.362599 
L 185.72457 -38.371483 
L 185.876904 -37.37632 
L 186.029238 -36.377104 
L 186.181572 -35.373827 
L 186.333907 -34.366485 
L 186.486241 -33.35507 
L 186.638575 -32.339577 
L 186.790909 -31.32 
L 186.790909 -31.32 
L 186.790909 -31.32 
L 186.638575 -31.32 
L 186.486241 -31.32 
L 186.333907 -31.32 
L 186.181572 -31.32 
L 186.029238 -31.32 
L 185.876904 -31.32 
L 185.72457 -31.32 
L 185.572236 -31.32 
L 185.419902 -31.32 
L 185.267568 -31.32 
L 185.115233 -31.32 
L 184.962899 -31.32 
L 184.810565 -31.32 
L 184.658231 -31.32 
L 184.505897 -31.32 
L 184.353563 -31.32 
L 184.201229 -31.32 
L 184.048894 -31.32 
L 183.89656 -31.32 
L 183.744226 -31.32 
L 183.591892 -31.32 
L 183.439558 -31.32 
L 183.287224 -31.32 
L 183.134889 -31.32 
L 182.982555 -31.32 
L 182.830221 -31.32 
L 182.677887 -31.32 
L 182.525553 -31.32 
L 182.373219 -31.32 
L 182.220885 -31.32 
L 182.06855 -31.32 
L 181.916216 -31.32 
L 181.763882 -31.32 
L 181.611548 -31.32 
L 181.459214 -31.32 
L 181.30688 -31.32 
L 181.154545 -31.32 
L 181.002211 -31.32 
L 180.849877 -31.32 
L 180.697543 -31.32 
L 180.545209 -31.32 
L 180.392875 -31.32 
L 180.240541 -31.32 
L 180.088206 -31.32 
L 179.935872 -31.32 
L 179.783538 -31.32 
L 179.631204 -31.32 
L 179.47887 -31.32 
L 179.326536 -31.32 
L 179.174201 -31.32 
L 179.021867 -31.32 
L 178.869533 -31.32 
L 178.717199 -31.32 
L 178.564865 -31.32 
L 178.412531 -31.32 
L 178.260197 -31.32 
L 178.107862 -31.32 
L 177.955528 -31.32 
L 177.803194 -31.32 
L 177.65086 -31.32 
L 177.498526 -31.32 
L 177.346192 -31.32 
L 177.193857 -31.32 
L 177.041523 -31.32 
L 176.889189 -31.32 
L 176.736855 -31.32 
L 176.584521 -31.32 
L 176.432187 -31.32 
L 176.279853 -31.32 
L 176.127518 -31.32 
L 175.975184 -31.32 
L 175.82285 -31.32 
L 175.670516 -31.32 
L 175.518182 -31.32 
L 175.365848 -31.32 
L 175.213514 -31.32 
L 175.061179 -31.32 
L 174.908845 -31.32 
L 174.756511 -31.32 
L 174.604177 -31.32 
L 174.451843 -31.32 
L 174.299509 -31.32 
L 174.147174 -31.32 
L 173.99484 -31.32 
L 173.842506 -31.32 
L 173.690172 -31.32 
L 173.537838 -31.32 
L 173.385504 -31.32 
L 173.23317 -31.32 
L 173.080835 -31.32 
L 172.928501 -31.32 
L 172.776167 -31.32 
L 172.623833 -31.32 
L 172.471499 -31.32 
L 172.319165 -31.32 
L 172.16683 -31.32 
L 172.014496 -31.32 
L 171.862162 -31.32 
L 171.709828 -31.32 
L 171.557494 -31.32 
L 171.40516 -31.32 
L 171.252826 -31.32 
L 171.100491 -31.32 
L 170.948157 -31.32 
L 170.795823 -31.32 
L 170.643489 -31.32 
L 170.491155 -31.32 
L 170.338821 -31.32 
L 170.186486 -31.32 
L 170.034152 -31.32 
L 169.881818 -31.32 
L 169.729484 -31.32 
L 169.57715 -31.32 
L 169.424816 -31.32 
L 169.272482 -31.32 
L 169.120147 -31.32 
L 168.967813 -31.32 
L 168.815479 -31.32 
L 168.663145 -31.32 
L 168.510811 -31.32 
L 168.358477 -31.32 
L 168.206143 -31.32 
L 168.053808 -31.32 
L 167.901474 -31.32 
L 167.74914 -31.32 
L 167.596806 -31.32 
L 167.444472 -31.32 
L 167.292138 -31.32 
L 167.139803 -31.32 
L 166.987469 -31.32 
L 166.835135 -31.32 
L 166.682801 -31.32 
L 166.530467 -31.32 
L 166.378133 -31.32 
L 166.225799 -31.32 
L 166.073464 -31.32 
L 165.92113 -31.32 
L 165.768796 -31.32 
L 165.616462 -31.32 
L 165.464128 -31.32 
L 165.311794 -31.32 
L 165.159459 -31.32 
L 165.007125 -31.32 
L 164.854791 -31.32 
L 164.702457 -31.32 
L 164.550123 -31.32 
L 164.397789 -31.32 
L 164.245455 -31.32 
L 164.09312 -31.32 
L 163.940786 -31.32 
L 163.788452 -31.32 
L 163.636118 -31.32 
L 163.483784 -31.32 
L 163.33145 -31.32 
L 163.179115 -31.32 
L 163.026781 -31.32 
L 162.874447 -31.32 
L 162.722113 -31.32 
L 162.569779 -31.32 
L 162.417445 -31.32 
L 162.265111 -31.32 
L 162.112776 -31.32 
L 161.960442 -31.32 
L 161.808108 -31.32 
L 161.655774 -31.32 
L 161.50344 -31.32 
L 161.351106 -31.32 
L 161.198771 -31.32 
L 161.046437 -31.32 
L 160.894103 -31.32 
L 160.741769 -31.32 
L 160.589435 -31.32 
L 160.437101 -31.32 
L 160.284767 -31.32 
L 160.132432 -31.32 
L 159.980098 -31.32 
L 159.827764 -31.32 
L 159.67543 -31.32 
L 159.523096 -31.32 
L 159.370762 -31.32 
L 159.218428 -31.32 
L 159.066093 -31.32 
L 158.913759 -31.32 
L 158.761425 -31.32 
L 158.609091 -31.32 
L 158.456757 -31.32 
L 158.304423 -31.32 
L 158.152088 -31.32 
L 157.999754 -31.32 
L 157.84742 -31.32 
L 157.695086 -31.32 
L 157.542752 -31.32 
L 157.390418 -31.32 
L 157.238084 -31.32 
L 157.085749 -31.32 
L 156.933415 -31.32 
L 156.781081 -31.32 
L 156.628747 -31.32 
L 156.476413 -31.32 
L 156.324079 -31.32 
L 156.171744 -31.32 
L 156.01941 -31.32 
L 155.867076 -31.32 
L 155.714742 -31.32 
L 155.562408 -31.32 
L 155.410074 -31.32 
L 155.25774 -31.32 
L 155.105405 -31.32 
L 154.953071 -31.32 
L 154.800737 -31.32 
L 154.648403 -31.32 
L 154.496069 -31.32 
L 154.343735 -31.32 
L 154.1914 -31.32 
L 154.039066 -31.32 
L 153.886732 -31.32 
L 153.734398 -31.32 
L 153.582064 -31.32 
L 153.42973 -31.32 
L 153.277396 -31.32 
L 153.125061 -31.32 
L 152.972727 -31.32 
L 152.820393 -31.32 
L 152.668059 -31.32 
L 152.515725 -31.32 
L 152.363391 -31.32 
L 152.211057 -31.32 
L 152.058722 -31.32 
L 151.906388 -31.32 
L 151.754054 -31.32 
L 151.60172 -31.32 
L 151.449386 -31.32 
L 151.297052 -31.32 
L 151.144717 -31.32 
L 150.992383 -31.32 
L 150.840049 -31.32 
L 150.687715 -31.32 
L 150.535381 -31.32 
L 150.383047 -31.32 
L 150.230713 -31.32 
L 150.078378 -31.32 
L 149.926044 -31.32 
L 149.77371 -31.32 
L 149.621376 -31.32 
L 149.469042 -31.32 
L 149.316708 -31.32 
L 149.164373 -31.32 
L 149.012039 -31.32 
L 148.859705 -31.32 
L 148.707371 -31.32 
L 148.555037 -31.32 
L 148.402703 -31.32 
L 148.250369 -31.32 
L 148.098034 -31.32 
L 147.9457 -31.32 
L 147.793366 -31.32 
L 147.641032 -31.32 
L 147.488698 -31.32 
L 147.336364 -31.32 
L 147.184029 -31.32 
L 147.031695 -31.32 
L 146.879361 -31.32 
L 146.727027 -31.32 
L 146.574693 -31.32 
L 146.422359 -31.32 
L 146.270025 -31.32 
L 146.11769 -31.32 
L 145.965356 -31.32 
L 145.813022 -31.32 
L 145.660688 -31.32 
L 145.508354 -31.32 
L 145.35602 -31.32 
L 145.203686 -31.32 
L 145.051351 -31.32 
L 144.899017 -31.32 
L 144.746683 -31.32 
L 144.594349 -31.32 
L 144.442015 -31.32 
L 144.289681 -31.32 
L 144.137346 -31.32 
L 143.985012 -31.32 
L 143.832678 -31.32 
L 143.680344 -31.32 
L 143.52801 -31.32 
L 143.375676 -31.32 
L 143.223342 -31.32 
L 143.071007 -31.32 
L 142.918673 -31.32 
L 142.766339 -31.32 
L 142.614005 -31.32 
L 142.461671 -31.32 
L 142.309337 -31.32 
L 142.157002 -31.32 
L 142.004668 -31.32 
L 141.852334 -31.32 
L 141.7 -31.32 
L 141.547666 -31.32 
L 141.395332 -31.32 
L 141.242998 -31.32 
L 141.090663 -31.32 
L 140.938329 -31.32 
L 140.785995 -31.32 
L 140.633661 -31.32 
L 140.481327 -31.32 
L 140.328993 -31.32 
L 140.176658 -31.32 
L 140.024324 -31.32 
L 139.87199 -31.32 
L 139.719656 -31.32 
L 139.567322 -31.32 
L 139.414988 -31.32 
L 139.262654 -31.32 
L 139.110319 -31.32 
L 138.957985 -31.32 
L 138.805651 -31.32 
L 138.653317 -31.32 
L 138.500983 -31.32 
L 138.348649 -31.32 
L 138.196314 -31.32 
L 138.04398 -31.32 
L 137.891646 -31.32 
L 137.739312 -31.32 
L 137.586978 -31.32 
L 137.434644 -31.32 
L 137.28231 -31.32 
L 137.129975 -31.32 
L 136.977641 -31.32 
L 136.825307 -31.32 
L 136.672973 -31.32 
L 136.520639 -31.32 
L 136.368305 -31.32 
L 136.215971 -31.32 
L 136.063636 -31.32 
L 135.911302 -31.32 
L 135.758968 -31.32 
L 135.606634 -31.32 
L 135.4543 -31.32 
L 135.301966 -31.32 
L 135.149631 -31.32 
L 134.997297 -31.32 
L 134.844963 -31.32 
L 134.692629 -31.32 
L 134.540295 -31.32 
L 134.387961 -31.32 
L 134.235627 -31.32 
L 134.083292 -31.32 
L 133.930958 -31.32 
L 133.778624 -31.32 
L 133.62629 -31.32 
L 133.473956 -31.32 
L 133.321622 -31.32 
L 133.169287 -31.32 
L 133.016953 -31.32 
L 132.864619 -31.32 
L 132.712285 -31.32 
L 132.559951 -31.32 
L 132.407617 -31.32 
L 132.255283 -31.32 
L 132.102948 -31.32 
L 131.950614 -31.32 
L 131.79828 -31.32 
L 131.645946 -31.32 
L 131.493612 -31.32 
L 131.341278 -31.32 
L 131.188943 -31.32 
L 131.036609 -31.32 
L 130.884275 -31.32 
L 130.731941 -31.32 
L 130.579607 -31.32 
L 130.427273 -31.32 
L 130.274939 -31.32 
L 130.122604 -31.32 
L 129.97027 -31.32 
L 129.817936 -31.32 
L 129.665602 -31.32 
L 129.513268 -31.32 
L 129.360934 -31.32 
L 129.2086 -31.32 
L 129.056265 -31.32 
L 128.903931 -31.32 
L 128.751597 -31.32 
L 128.599263 -31.32 
L 128.446929 -31.32 
L 128.294595 -31.32 
L 128.14226 -31.32 
L 127.989926 -31.32 
L 127.837592 -31.32 
L 127.685258 -31.32 
L 127.532924 -31.32 
L 127.38059 -31.32 
L 127.228256 -31.32 
L 127.075921 -31.32 
L 126.923587 -31.32 
L 126.771253 -31.32 
L 126.618919 -31.32 
L 126.466585 -31.32 
L 126.314251 -31.32 
L 126.161916 -31.32 
L 126.009582 -31.32 
L 125.857248 -31.32 
L 125.704914 -31.32 
L 125.55258 -31.32 
L 125.400246 -31.32 
L 125.247912 -31.32 
L 125.095577 -31.32 
L 124.943243 -31.32 
L 124.790909 -31.32 
L 124.638575 -31.32 
L 124.486241 -31.32 
L 124.333907 -31.32 
L 124.181572 -31.32 
L 124.029238 -31.32 
L 123.876904 -31.32 
L 123.72457 -31.32 
L 123.572236 -31.32 
L 123.419902 -31.32 
L 123.267568 -31.32 
L 123.115233 -31.32 
L 122.962899 -31.32 
L 122.810565 -31.32 
L 122.658231 -31.32 
L 122.505897 -31.32 
L 122.353563 -31.32 
L 122.201229 -31.32 
L 122.048894 -31.32 
L 121.89656 -31.32 
L 121.744226 -31.32 
L 121.591892 -31.32 
L 121.439558 -31.32 
L 121.287224 -31.32 
L 121.134889 -31.32 
L 120.982555 -31.32 
L 120.830221 -31.32 
L 120.677887 -31.32 
L 120.525553 -31.32 
L 120.373219 -31.32 
L 120.220885 -31.32 
L 120.06855 -31.32 
L 119.916216 -31.32 
L 119.763882 -31.32 
L 119.611548 -31.32 
L 119.459214 -31.32 
L 119.30688 -31.32 
L 119.154545 -31.32 
L 119.002211 -31.32 
L 118.849877 -31.32 
L 118.697543 -31.32 
L 118.545209 -31.32 
L 118.392875 -31.32 
L 118.240541 -31.32 
L 118.088206 -31.32 
L 117.935872 -31.32 
L 117.783538 -31.32 
L 117.631204 -31.32 
L 117.47887 -31.32 
L 117.326536 -31.32 
L 117.174201 -31.32 
L 117.021867 -31.32 
L 116.869533 -31.32 
L 116.717199 -31.32 
L 116.564865 -31.32 
L 116.412531 -31.32 
L 116.260197 -31.32 
L 116.107862 -31.32 
L 115.955528 -31.32 
L 115.803194 -31.32 
L 115.65086 -31.32 
L 115.498526 -31.32 
L 115.346192 -31.32 
L 115.193857 -31.32 
L 115.041523 -31.32 
L 114.889189 -31.32 
L 114.736855 -31.32 
L 114.584521 -31.32 
L 114.432187 -31.32 
L 114.279853 -31.32 
L 114.127518 -31.32 
L 113.975184 -31.32 
L 113.82285 -31.32 
L 113.670516 -31.32 
L 113.518182 -31.32 
L 113.365848 -31.32 
L 113.213514 -31.32 
L 113.061179 -31.32 
L 112.908845 -31.32 
L 112.756511 -31.32 
L 112.604177 -31.32 
L 112.451843 -31.32 
L 112.299509 -31.32 
L 112.147174 -31.32 
L 111.99484 -31.32 
L 111.842506 -31.32 
L 111.690172 -31.32 
L 111.537838 -31.32 
L 111.385504 -31.32 
L 111.23317 -31.32 
L 111.080835 -31.32 
L 110.928501 -31.32 
L 110.776167 -31.32 
L 110.623833 -31.32 
L 110.471499 -31.32 
L 110.319165 -31.32 
L 110.16683 -31.32 
L 110.014496 -31.32 
L 109.862162 -31.32 
L 109.709828 -31.32 
L 109.557494 -31.32 
L 109.40516 -31.32 
L 109.252826 -31.32 
L 109.100491 -31.32 
L 108.948157 -31.32 
L 108.795823 -31.32 
L 108.643489 -31.32 
L 108.491155 -31.32 
L 108.338821 -31.32 
L 108.186486 -31.32 
L 108.034152 -31.32 
L 107.881818 -31.32 
L 107.729484 -31.32 
L 107.57715 -31.32 
L 107.424816 -31.32 
L 107.272482 -31.32 
L 107.120147 -31.32 
L 106.967813 -31.32 
L 106.815479 -31.32 
L 106.663145 -31.32 
L 106.510811 -31.32 
L 106.358477 -31.32 
L 106.206143 -31.32 
L 106.053808 -31.32 
L 105.901474 -31.32 
L 105.74914 -31.32 
L 105.596806 -31.32 
L 105.444472 -31.32 
L 105.292138 -31.32 
L 105.139803 -31.32 
L 104.987469 -31.32 
L 104.835135 -31.32 
L 104.682801 -31.32 
L 104.530467 -31.32 
L 104.378133 -31.32 
L 104.225799 -31.32 
L 104.073464 -31.32 
L 103.92113 -31.32 
L 103.768796 -31.32 
L 103.616462 -31.32 
L 103.464128 -31.32 
L 103.311794 -31.32 
L 103.159459 -31.32 
L 103.007125 -31.32 
L 102.854791 -31.32 
L 102.702457 -31.32 
L 102.550123 -31.32 
L 102.397789 -31.32 
L 102.245455 -31.32 
L 102.09312 -31.32 
L 101.940786 -31.32 
L 101.788452 -31.32 
L 101.636118 -31.32 
L 101.483784 -31.32 
L 101.33145 -31.32 
L 101.179115 -31.32 
L 101.026781 -31.32 
L 100.874447 -31.32 
L 100.722113 -31.32 
L 100.569779 -31.32 
L 100.417445 -31.32 
L 100.265111 -31.32 
L 100.112776 -31.32 
L 99.960442 -31.32 
L 99.808108 -31.32 
L 99.655774 -31.32 
L 99.50344 -31.32 
L 99.351106 -31.32 
L 99.198771 -31.32 
L 99.046437 -31.32 
L 98.894103 -31.32 
L 98.741769 -31.32 
L 98.589435 -31.32 
L 98.437101 -31.32 
L 98.284767 -31.32 
L 98.132432 -31.32 
L 97.980098 -31.32 
L 97.827764 -31.32 
L 97.67543 -31.32 
L 97.523096 -31.32 
L 97.370762 -31.32 
L 97.218428 -31.32 
L 97.066093 -31.32 
L 96.913759 -31.32 
L 96.761425 -31.32 
L 96.609091 -31.32 
L 96.456757 -31.32 
L 96.304423 -31.32 
L 96.152088 -31.32 
L 95.999754 -31.32 
L 95.84742 -31.32 
L 95.695086 -31.32 
L 95.542752 -31.32 
L 95.390418 -31.32 
L 95.238084 -31.32 
L 95.085749 -31.32 
L 94.933415 -31.32 
L 94.781081 -31.32 
L 94.628747 -31.32 
L 94.476413 -31.32 
L 94.324079 -31.32 
L 94.171744 -31.32 
L 94.01941 -31.32 
L 93.867076 -31.32 
L 93.714742 -31.32 
L 93.562408 -31.32 
L 93.410074 -31.32 
L 93.25774 -31.32 
L 93.105405 -31.32 
L 92.953071 -31.32 
L 92.800737 -31.32 
L 92.648403 -31.32 
L 92.496069 -31.32 
L 92.343735 -31.32 
L 92.1914 -31.32 
L 92.039066 -31.32 
L 91.886732 -31.32 
L 91.734398 -31.32 
L 91.582064 -31.32 
L 91.42973 -31.32 
L 91.277396 -31.32 
L 91.125061 -31.32 
L 90.972727 -31.32 
L 90.820393 -31.32 
L 90.668059 -31.32 
L 90.515725 -31.32 
L 90.363391 -31.32 
L 90.211057 -31.32 
L 90.058722 -31.32 
L 89.906388 -31.32 
L 89.754054 -31.32 
L 89.60172 -31.32 
L 89.449386 -31.32 
L 89.297052 -31.32 
L 89.144717 -31.32 
L 88.992383 -31.32 
L 88.840049 -31.32 
L 88.687715 -31.32 
L 88.535381 -31.32 
L 88.383047 -31.32 
L 88.230713 -31.32 
L 88.078378 -31.32 
L 87.926044 -31.32 
L 87.77371 -31.32 
L 87.621376 -31.32 
L 87.469042 -31.32 
L 87.316708 -31.32 
L 87.164373 -31.32 
L 87.012039 -31.32 
L 86.859705 -31.32 
L 86.707371 -31.32 
L 86.555037 -31.32 
L 86.402703 -31.32 
L 86.250369 -31.32 
L 86.098034 -31.32 
L 85.9457 -31.32 
L 85.793366 -31.32 
L 85.641032 -31.32 
L 85.488698 -31.32 
L 85.336364 -31.32 
L 85.184029 -31.32 
L 85.031695 -31.32 
L 84.879361 -31.32 
L 84.727027 -31.32 
L 84.574693 -31.32 
L 84.422359 -31.32 
L 84.270025 -31.32 
L 84.11769 -31.32 
L 83.965356 -31.32 
L 83.813022 -31.32 
L 83.660688 -31.32 
L 83.508354 -31.32 
L 83.35602 -31.32 
L 83.203686 -31.32 
L 83.051351 -31.32 
L 82.899017 -31.32 
L 82.746683 -31.32 
L 82.594349 -31.32 
L 82.442015 -31.32 
L 82.289681 -31.32 
L 82.137346 -31.32 
L 81.985012 -31.32 
L 81.832678 -31.32 
L 81.680344 -31.32 
L 81.52801 -31.32 
L 81.375676 -31.32 
L 81.223342 -31.32 
L 81.071007 -31.32 
L 80.918673 -31.32 
L 80.766339 -31.32 
L 80.614005 -31.32 
L 80.461671 -31.32 
L 80.309337 -31.32 
L 80.157002 -31.32 
L 80.004668 -31.32 
L 79.852334 -31.32 
L 79.7 -31.32 
L 79.547666 -31.32 
L 79.395332 -31.32 
L 79.242998 -31.32 
L 79.090663 -31.32 
L 78.938329 -31.32 
L 78.785995 -31.32 
L 78.633661 -31.32 
L 78.481327 -31.32 
L 78.328993 -31.32 
L 78.176658 -31.32 
L 78.024324 -31.32 
L 77.87199 -31.32 
L 77.719656 -31.32 
L 77.567322 -31.32 
L 77.414988 -31.32 
L 77.262654 -31.32 
L 77.110319 -31.32 
L 76.957985 -31.32 
L 76.805651 -31.32 
L 76.653317 -31.32 
L 76.500983 -31.32 
L 76.348649 -31.32 
L 76.196314 -31.32 
L 76.04398 -31.32 
L 75.891646 -31.32 
L 75.739312 -31.32 
L 75.586978 -31.32 
L 75.434644 -31.32 
L 75.28231 -31.32 
L 75.129975 -31.32 
L 74.977641 -31.32 
L 74.825307 -31.32 
L 74.672973 -31.32 
L 74.520639 -31.32 
L 74.368305 -31.32 
L 74.215971 -31.32 
L 74.063636 -31.32 
L 73.911302 -31.32 
L 73.758968 -31.32 
L 73.606634 -31.32 
L 73.4543 -31.32 
L 73.301966 -31.32 
L 73.149631 -31.32 
L 72.997297 -31.32 
L 72.844963 -31.32 
L 72.692629 -31.32 
L 72.540295 -31.32 
L 72.387961 -31.32 
L 72.235627 -31.32 
L 72.083292 -31.32 
L 71.930958 -31.32 
L 71.778624 -31.32 
L 71.62629 -31.32 
L 71.473956 -31.32 
L 71.321622 -31.32 
L 71.169287 -31.32 
L 71.016953 -31.32 
L 70.864619 -31.32 
L 70.712285 -31.32 
L 70.559951 -31.32 
L 70.407617 -31.32 
L 70.255283 -31.32 
L 70.102948 -31.32 
L 69.950614 -31.32 
L 69.79828 -31.32 
L 69.645946 -31.32 
L 69.493612 -31.32 
L 69.341278 -31.32 
L 69.188943 -31.32 
L 69.036609 -31.32 
L 68.884275 -31.32 
L 68.731941 -31.32 
L 68.579607 -31.32 
L 68.427273 -31.32 
L 68.274939 -31.32 
L 68.122604 -31.32 
L 67.97027 -31.32 
L 67.817936 -31.32 
L 67.665602 -31.32 
L 67.513268 -31.32 
L 67.360934 -31.32 
L 67.2086 -31.32 
L 67.056265 -31.32 
L 66.903931 -31.32 
L 66.751597 -31.32 
L 66.599263 -31.32 
L 66.446929 -31.32 
L 66.294595 -31.32 
L 66.14226 -31.32 
L 65.989926 -31.32 
L 65.837592 -31.32 
L 65.685258 -31.32 
L 65.532924 -31.32 
L 65.38059 -31.32 
L 65.228256 -31.32 
L 65.075921 -31.32 
L 64.923587 -31.32 
L 64.771253 -31.32 
L 64.618919 -31.32 
L 64.466585 -31.32 
L 64.314251 -31.32 
L 64.161916 -31.32 
L 64.009582 -31.32 
L 63.857248 -31.32 
L 63.704914 -31.32 
L 63.55258 -31.32 
L 63.400246 -31.32 
L 63.247912 -31.32 
L 63.095577 -31.32 
L 62.943243 -31.32 
L 62.790909 -31.32 
L 62.638575 -31.32 
L 62.486241 -31.32 
L 62.333907 -31.32 
L 62.181572 -31.32 
L 62.029238 -31.32 
L 61.876904 -31.32 
L 61.72457 -31.32 
L 61.572236 -31.32 
L 61.419902 -31.32 
L 61.267568 -31.32 
L 61.115233 -31.32 
L 60.962899 -31.32 
L 60.810565 -31.32 
L 60.658231 -31.32 
L 60.505897 -31.32 
L 60.353563 -31.32 
L 60.201229 -31.32 
L 60.048894 -31.32 
L 59.89656 -31.32 
L 59.744226 -31.32 
L 59.591892 -31.32 
L 59.439558 -31.32 
L 59.287224 -31.32 
L 59.134889 -31.32 
L 58.982555 -31.32 
L 58.830221 -31.32 
L 58.677887 -31.32 
L 58.525553 -31.32 
L 58.373219 -31.32 
L 58.220885 -31.32 
L 58.06855 -31.32 
L 57.916216 -31.32 
L 57.763882 -31.32 
L 57.611548 -31.32 
L 57.459214 -31.32 
L 57.30688 -31.32 
L 57.154545 -31.32 
L 57.002211 -31.32 
L 56.849877 -31.32 
L 56.697543 -31.32 
L 56.545209 -31.32 
L 56.392875 -31.32 
L 56.240541 -31.32 
L 56.088206 -31.32 
L 55.935872 -31.32 
L 55.783538 -31.32 
L 55.631204 -31.32 
L 55.47887 -31.32 
L 55.326536 -31.32 
L 55.174201 -31.32 
L 55.021867 -31.32 
L 54.869533 -31.32 
L 54.717199 -31.32 
L 54.564865 -31.32 
L 54.412531 -31.32 
L 54.260197 -31.32 
L 54.107862 -31.32 
L 53.955528 -31.32 
L 53.803194 -31.32 
L 53.65086 -31.32 
L 53.498526 -31.32 
L 53.346192 -31.32 
L 53.193857 -31.32 
L 53.041523 -31.32 
L 52.889189 -31.32 
L 52.736855 -31.32 
L 52.584521 -31.32 
L 52.432187 -31.32 
L 52.279853 -31.32 
L 52.127518 -31.32 
L 51.975184 -31.32 
L 51.82285 -31.32 
L 51.670516 -31.32 
L 51.518182 -31.32 
L 51.365848 -31.32 
L 51.213514 -31.32 
L 51.061179 -31.32 
L 50.908845 -31.32 
L 50.756511 -31.32 
L 50.604177 -31.32 
L 50.451843 -31.32 
L 50.299509 -31.32 
L 50.147174 -31.32 
L 49.99484 -31.32 
L 49.842506 -31.32 
L 49.690172 -31.32 
L 49.537838 -31.32 
L 49.385504 -31.32 
L 49.23317 -31.32 
L 49.080835 -31.32 
L 48.928501 -31.32 
L 48.776167 -31.32 
L 48.623833 -31.32 
L 48.471499 -31.32 
L 48.319165 -31.32 
L 48.16683 -31.32 
L 48.014496 -31.32 
L 47.862162 -31.32 
L 47.709828 -31.32 
L 47.557494 -31.32 
L 47.40516 -31.32 
L 47.252826 -31.32 
L 47.100491 -31.32 
L 46.948157 -31.32 
L 46.795823 -31.32 
L 46.643489 -31.32 
L 46.491155 -31.32 
L 46.338821 -31.32 
L 46.186486 -31.32 
L 46.034152 -31.32 
L 45.881818 -31.32 
L 45.729484 -31.32 
L 45.57715 -31.32 
L 45.424816 -31.32 
L 45.272482 -31.32 
L 45.120147 -31.32 
L 44.967813 -31.32 
L 44.815479 -31.32 
L 44.663145 -31.32 
L 44.510811 -31.32 
L 44.358477 -31.32 
L 44.206143 -31.32 
L 44.053808 -31.32 
L 43.901474 -31.32 
L 43.74914 -31.32 
L 43.596806 -31.32 
L 43.444472 -31.32 
L 43.292138 -31.32 
L 43.139803 -31.32 
L 42.987469 -31.32 
L 42.835135 -31.32 
L 42.682801 -31.32 
L 42.530467 -31.32 
L 42.378133 -31.32 
L 42.225799 -31.32 
L 42.073464 -31.32 
L 41.92113 -31.32 
L 41.768796 -31.32 
L 41.616462 -31.32 
L 41.464128 -31.32 
L 41.311794 -31.32 
L 41.159459 -31.32 
L 41.007125 -31.32 
L 40.854791 -31.32 
L 40.702457 -31.32 
L 40.550123 -31.32 
L 40.397789 -31.32 
L 40.245455 -31.32 
L 40.09312 -31.32 
L 39.940786 -31.32 
L 39.788452 -31.32 
L 39.636118 -31.32 
L 39.483784 -31.32 
L 39.33145 -31.32 
L 39.179115 -31.32 
L 39.026781 -31.32 
L 38.874447 -31.32 
L 38.722113 -31.32 
L 38.569779 -31.32 
L 38.417445 -31.32 
L 38.265111 -31.32 
L 38.112776 -31.32 
L 37.960442 -31.32 
L 37.808108 -31.32 
L 37.655774 -31.32 
L 37.50344 -31.32 
L 37.351106 -31.32 
L 37.198771 -31.32 
L 37.046437 -31.32 
L 36.894103 -31.32 
L 36.741769 -31.32 
L 36.589435 -31.32 
L 36.437101 -31.32 
L 36.284767 -31.32 
L 36.132432 -31.32 
L 35.980098 -31.32 
L 35.827764 -31.32 
L 35.67543 -31.32 
L 35.523096 -31.32 
L 35.370762 -31.32 
L 35.218428 -31.32 
L 35.066093 -31.32 
L 34.913759 -31.32 
L 34.761425 -31.32 
L 34.609091 -31.32 
z
" id="m469cf158af" style="stroke:#ffffff;"/>
    </defs>
    <g clip-path="url(#pd6249c6cef)">
     <use style="fill:#4c72b0;stroke:#ffffff;" x="0" xlink:href="#m469cf158af" y="216"/>
    </g>
   </g>
   <g id="patch_3">
    <path d="M 27 192.24 
L 27 25.92 
" style="fill:none;stroke:#ffffff;stroke-linecap:square;stroke-linejoin:miter;stroke-width:1.25;"/>
   </g>
   <g id="patch_4">
    <path d="M 194.4 192.24 
L 194.4 25.92 
" style="fill:none;stroke:#ffffff;stroke-linecap:square;stroke-linejoin:miter;stroke-width:1.25;"/>
   </g>
   <g id="patch_5">
    <path d="M 27 192.24 
L 194.4 192.24 
" style="fill:none;stroke:#ffffff;stroke-linecap:square;stroke-linejoin:miter;stroke-width:1.25;"/>
   </g>
   <g id="patch_6">
    <path d="M 27 25.92 
L 194.4 25.92 
" style="fill:none;stroke:#ffffff;stroke-linecap:square;stroke-linejoin:miter;stroke-width:1.25;"/>
   </g>
   <g id="text_12">
    <!-- $\theta \sim Beta(3, 2)$ -->
    <g style="fill:#262626;" transform="translate(70.38 19.92)scale(0.12 -0.12)">
     <defs>
      <path d="M 73.1875 39.9375 
L 73.1875 31.203125 
Q 68.0625 27.390625 63.6875 25.703125 
Q 59.328125 24.03125 54.59375 24.03125 
Q 49.21875 24.03125 42.09375 26.90625 
Q 41.609375 27.09375 41.265625 27.25 
Q 40.96875 27.34375 40.234375 27.640625 
Q 32.671875 30.609375 28.078125 30.609375 
Q 23.78125 30.609375 19.578125 28.75 
Q 15.375 26.90625 10.59375 22.796875 
L 10.59375 31.546875 
Q 15.71875 35.359375 20.09375 37.03125 
Q 24.46875 38.71875 29.203125 38.71875 
Q 34.578125 38.71875 41.75 35.84375 
Q 42.28125 35.59375 42.53125 35.5 
Q 42.828125 35.40625 43.5625 35.109375 
Q 51.125 32.125 55.71875 32.125 
Q 59.90625 32.125 64.03125 33.953125 
Q 68.171875 35.796875 73.1875 39.9375 
z
" id="DejaVuSans-8764"/>
      <path d="M 16.890625 72.90625 
L 42.09375 72.90625 
Q 52.34375 72.90625 57.421875 69.09375 
Q 62.5 65.28125 62.5 57.625 
Q 62.5 50.59375 58.125 45.484375 
Q 53.765625 40.375 46.6875 39.3125 
Q 52.734375 37.9375 55.765625 34.078125 
Q 58.796875 30.21875 58.796875 23.78125 
Q 58.796875 12.796875 50.65625 6.390625 
Q 42.53125 0 28.421875 0 
L 2.6875 0 
z
M 19.28125 34.8125 
L 14.109375 8.109375 
L 29.984375 8.109375 
Q 38.921875 8.109375 43.75 12.203125 
Q 48.578125 16.3125 48.578125 23.78125 
Q 48.578125 29.546875 45.375 32.171875 
Q 42.1875 34.8125 35.109375 34.8125 
z
M 25.09375 64.796875 
L 20.796875 42.828125 
L 35.5 42.828125 
Q 43.359375 42.828125 47.78125 46.234375 
Q 52.203125 49.65625 52.203125 55.71875 
Q 52.203125 60.453125 49.21875 62.625 
Q 46.234375 64.796875 39.703125 64.796875 
z
" id="DejaVuSans-Oblique-66"/>
      <path d="M 48.09375 32.234375 
Q 48.25 33.015625 48.3125 33.84375 
Q 48.390625 34.671875 48.390625 35.5 
Q 48.390625 41.453125 44.890625 44.921875 
Q 41.40625 48.390625 35.40625 48.390625 
Q 28.71875 48.390625 23.578125 44.15625 
Q 18.453125 39.9375 15.828125 32.171875 
z
M 55.90625 25.203125 
L 14.109375 25.203125 
Q 13.8125 23.34375 13.71875 22.265625 
Q 13.625 21.1875 13.625 20.40625 
Q 13.625 13.625 17.796875 9.90625 
Q 21.96875 6.203125 29.59375 6.203125 
Q 35.453125 6.203125 40.671875 7.515625 
Q 45.90625 8.84375 50.390625 11.375 
L 48.6875 2.484375 
Q 43.84375 0.53125 38.6875 -0.4375 
Q 33.546875 -1.421875 28.21875 -1.421875 
Q 16.84375 -1.421875 10.71875 4.015625 
Q 4.59375 9.46875 4.59375 19.484375 
Q 4.59375 28.03125 7.640625 35.375 
Q 10.6875 42.71875 16.609375 48.484375 
Q 20.40625 52.09375 25.65625 54.046875 
Q 30.90625 56 36.8125 56 
Q 46.09375 56 51.578125 50.4375 
Q 57.078125 44.875 57.078125 35.5 
Q 57.078125 33.25 56.78125 30.6875 
Q 56.5 28.125 55.90625 25.203125 
z
" id="DejaVuSans-Oblique-101"/>
      <path d="M 42.28125 54.6875 
L 40.921875 47.703125 
L 23 47.703125 
L 17.1875 18.015625 
Q 16.890625 16.359375 16.75 15.234375 
Q 16.609375 14.109375 16.609375 13.484375 
Q 16.609375 10.359375 18.484375 8.9375 
Q 20.359375 7.515625 24.515625 7.515625 
L 33.59375 7.515625 
L 32.078125 0 
L 23.484375 0 
Q 15.484375 0 11.546875 3.125 
Q 7.625 6.25 7.625 12.59375 
Q 7.625 13.71875 7.765625 15.0625 
Q 7.90625 16.40625 8.203125 18.015625 
L 14.015625 47.703125 
L 6.390625 47.703125 
L 7.8125 54.6875 
L 15.28125 54.6875 
L 18.3125 70.21875 
L 27.296875 70.21875 
L 24.3125 54.6875 
z
" id="DejaVuSans-Oblique-116"/>
      <path d="M 53.71875 31.203125 
L 47.609375 0 
L 38.625 0 
L 40.28125 8.296875 
Q 36.328125 3.421875 31.265625 1 
Q 26.21875 -1.421875 20.015625 -1.421875 
Q 13.03125 -1.421875 8.5625 2.84375 
Q 4.109375 7.125 4.109375 13.8125 
Q 4.109375 23.390625 11.75 28.953125 
Q 19.390625 34.515625 32.8125 34.515625 
L 45.3125 34.515625 
L 45.796875 36.921875 
Q 45.90625 37.3125 45.953125 37.765625 
Q 46 38.234375 46 39.203125 
Q 46 43.5625 42.453125 45.96875 
Q 38.921875 48.390625 32.515625 48.390625 
Q 28.125 48.390625 23.5 47.265625 
Q 18.890625 46.140625 14.015625 43.890625 
L 15.578125 52.203125 
Q 20.65625 54.109375 25.515625 55.046875 
Q 30.375 56 34.90625 56 
Q 44.578125 56 49.625 51.796875 
Q 54.6875 47.609375 54.6875 39.59375 
Q 54.6875 37.984375 54.4375 35.8125 
Q 54.203125 33.640625 53.71875 31.203125 
z
M 44 27.484375 
L 35.015625 27.484375 
Q 23.96875 27.484375 18.671875 24.53125 
Q 13.375 21.578125 13.375 15.375 
Q 13.375 11.078125 16.078125 8.640625 
Q 18.796875 6.203125 23.578125 6.203125 
Q 30.90625 6.203125 36.375 11.453125 
Q 41.84375 16.703125 43.609375 25.484375 
z
" id="DejaVuSans-Oblique-97"/>
      <path d="M 31 75.875 
Q 24.46875 64.65625 21.28125 53.65625 
Q 18.109375 42.671875 18.109375 31.390625 
Q 18.109375 20.125 21.3125 9.0625 
Q 24.515625 -2 31 -13.1875 
L 23.1875 -13.1875 
Q 15.875 -1.703125 12.234375 9.375 
Q 8.59375 20.453125 8.59375 31.390625 
Q 8.59375 42.28125 12.203125 53.3125 
Q 15.828125 64.359375 23.1875 75.875 
z
" id="DejaVuSans-40"/>
      <path d="M 40.578125 39.3125 
Q 47.65625 37.796875 51.625 33 
Q 55.609375 28.21875 55.609375 21.1875 
Q 55.609375 10.40625 48.1875 4.484375 
Q 40.765625 -1.421875 27.09375 -1.421875 
Q 22.515625 -1.421875 17.65625 -0.515625 
Q 12.796875 0.390625 7.625 2.203125 
L 7.625 11.71875 
Q 11.71875 9.328125 16.59375 8.109375 
Q 21.484375 6.890625 26.8125 6.890625 
Q 36.078125 6.890625 40.9375 10.546875 
Q 45.796875 14.203125 45.796875 21.1875 
Q 45.796875 27.640625 41.28125 31.265625 
Q 36.765625 34.90625 28.71875 34.90625 
L 20.21875 34.90625 
L 20.21875 43.015625 
L 29.109375 43.015625 
Q 36.375 43.015625 40.234375 45.921875 
Q 44.09375 48.828125 44.09375 54.296875 
Q 44.09375 59.90625 40.109375 62.90625 
Q 36.140625 65.921875 28.71875 65.921875 
Q 24.65625 65.921875 20.015625 65.03125 
Q 15.375 64.15625 9.8125 62.3125 
L 9.8125 71.09375 
Q 15.4375 72.65625 20.34375 73.4375 
Q 25.25 74.21875 29.59375 74.21875 
Q 40.828125 74.21875 47.359375 69.109375 
Q 53.90625 64.015625 53.90625 55.328125 
Q 53.90625 49.265625 50.4375 45.09375 
Q 46.96875 40.921875 40.578125 39.3125 
z
" id="DejaVuSans-51"/>
      <path d="M 11.71875 12.40625 
L 22.015625 12.40625 
L 22.015625 4 
L 14.015625 -11.625 
L 7.71875 -11.625 
L 11.71875 4 
z
" id="DejaVuSans-44"/>
      <path d="M 8.015625 75.875 
L 15.828125 75.875 
Q 23.140625 64.359375 26.78125 53.3125 
Q 30.421875 42.28125 30.421875 31.390625 
Q 30.421875 20.453125 26.78125 9.375 
Q 23.140625 -1.703125 15.828125 -13.1875 
L 8.015625 -13.1875 
Q 14.5 -2 17.703125 9.0625 
Q 20.90625 20.125 20.90625 31.390625 
Q 20.90625 42.671875 17.703125 53.65625 
Q 14.5 64.65625 8.015625 75.875 
z
" id="DejaVuSans-41"/>
     </defs>
     <use transform="translate(0 0.234375)" xlink:href="#DejaVuSans-Oblique-952"/>
     <use transform="translate(80.664062 0.234375)" xlink:href="#DejaVuSans-8764"/>
     <use transform="translate(183.935547 0.234375)" xlink:href="#DejaVuSans-Oblique-66"/>
     <use transform="translate(252.539062 0.234375)" xlink:href="#DejaVuSans-Oblique-101"/>
     <use transform="translate(314.0625 0.234375)" xlink:href="#DejaVuSans-Oblique-116"/>
     <use transform="translate(353.271484 0.234375)" xlink:href="#DejaVuSans-Oblique-97"/>
     <use transform="translate(414.550781 0.234375)" xlink:href="#DejaVuSans-40"/>
     <use transform="translate(453.564453 0.234375)" xlink:href="#DejaVuSans-51"/>
     <use transform="translate(517.1875 0.234375)" xlink:href="#DejaVuSans-44"/>
     <use transform="translate(568.457031 0.234375)" xlink:href="#DejaVuSans-50"/>
     <use transform="translate(632.080078 0.234375)" xlink:href="#DejaVuSans-41"/>
    </g>
   </g>
  </g>
 </g>
 <defs>
  <clipPath id="pd6249c6cef">
   <rect height="166.32" width="167.4" x="27" y="25.92"/>
  </clipPath>
 </defs>
</svg>
