<?xml version="1.0" encoding="utf-8" standalone="no"?>
<!DOCTYPE svg PUBLIC "-//W3C//DTD SVG 1.1//EN"
  "http://www.w3.org/Graphics/SVG/1.1/DTD/svg11.dtd">
<!-- Created with matplotlib (https://matplotlib.org/) -->
<svg height="216pt" version="1.1" viewBox="0 0 216 216" width="216pt" xmlns="http://www.w3.org/2000/svg" xmlns:xlink="http://www.w3.org/1999/xlink">
 <metadata>
  <rdf:RDF xmlns:cc="http://creativecommons.org/ns#" xmlns:dc="http://purl.org/dc/elements/1.1/" xmlns:rdf="http://www.w3.org/1999/02/22-rdf-syntax-ns#">
   <cc:Work>
    <dc:type rdf:resource="http://purl.org/dc/dcmitype/StillImage"/>
    <dc:date>2021-05-04T22:54:10.806434</dc:date>
    <dc:format>image/svg+xml</dc:format>
    <dc:creator>
     <cc:Agent>
      <dc:title>Matplotlib v3.3.4, https://matplotlib.org/</dc:title>
     </cc:Agent>
    </dc:creator>
   </cc:Work>
  </rdf:RDF>
 </metadata>
 <defs>
  <style type="text/css">*{stroke-linecap:butt;stroke-linejoin:round;}</style>
 </defs>
 <g id="figure_1">
  <g id="patch_1">
   <path d="M 0 216 
L 216 216 
L 216 0 
L 0 0 
z
" style="fill:#ffffff;"/>
  </g>
  <g id="axes_1">
   <g id="patch_2">
    <path d="M 27 192.24 
L 194.4 192.24 
L 194.4 25.92 
L 27 25.92 
z
" style="fill:#eaeaf2;"/>
   </g>
   <g id="matplotlib.axis_1">
    <g id="xtick_1">
     <g id="line2d_1">
      <path clip-path="url(#p91b680a393)" d="M 34.609091 192.24 
L 34.609091 25.92 
" style="fill:none;stroke:#ffffff;stroke-linecap:round;"/>
     </g>
     <g id="text_1">
      <!-- 0.00 -->
      <g style="fill:#262626;" transform="translate(22.362997 210.098281)scale(0.11 -0.11)">
       <defs>
        <path d="M 31.78125 66.40625 
Q 24.171875 66.40625 20.328125 58.90625 
Q 16.5 51.421875 16.5 36.375 
Q 16.5 21.390625 20.328125 13.890625 
Q 24.171875 6.390625 31.78125 6.390625 
Q 39.453125 6.390625 43.28125 13.890625 
Q 47.125 21.390625 47.125 36.375 
Q 47.125 51.421875 43.28125 58.90625 
Q 39.453125 66.40625 31.78125 66.40625 
z
M 31.78125 74.21875 
Q 44.046875 74.21875 50.515625 64.515625 
Q 56.984375 54.828125 56.984375 36.375 
Q 56.984375 17.96875 50.515625 8.265625 
Q 44.046875 -1.421875 31.78125 -1.421875 
Q 19.53125 -1.421875 13.0625 8.265625 
Q 6.59375 17.96875 6.59375 36.375 
Q 6.59375 54.828125 13.0625 64.515625 
Q 19.53125 74.21875 31.78125 74.21875 
z
" id="DejaVuSans-48"/>
        <path d="M 10.6875 12.40625 
L 21 12.40625 
L 21 0 
L 10.6875 0 
z
" id="DejaVuSans-46"/>
       </defs>
       <use xlink:href="#DejaVuSans-48"/>
       <use x="63.623047" xlink:href="#DejaVuSans-46"/>
       <use x="95.410156" xlink:href="#DejaVuSans-48"/>
       <use x="159.033203" xlink:href="#DejaVuSans-48"/>
      </g>
     </g>
    </g>
    <g id="xtick_2">
     <g id="line2d_2">
      <path clip-path="url(#p91b680a393)" d="M 72.654545 192.24 
L 72.654545 25.92 
" style="fill:none;stroke:#ffffff;stroke-linecap:round;"/>
     </g>
     <g id="text_2">
      <!-- 0.25 -->
      <g style="fill:#262626;" transform="translate(60.408452 210.098281)scale(0.11 -0.11)">
       <defs>
        <path d="M 19.1875 8.296875 
L 53.609375 8.296875 
L 53.609375 0 
L 7.328125 0 
L 7.328125 8.296875 
Q 12.9375 14.109375 22.625 23.890625 
Q 32.328125 33.6875 34.8125 36.53125 
Q 39.546875 41.84375 41.421875 45.53125 
Q 43.3125 49.21875 43.3125 52.78125 
Q 43.3125 58.59375 39.234375 62.25 
Q 35.15625 65.921875 28.609375 65.921875 
Q 23.96875 65.921875 18.8125 64.3125 
Q 13.671875 62.703125 7.8125 59.421875 
L 7.8125 69.390625 
Q 13.765625 71.78125 18.9375 73 
Q 24.125 74.21875 28.421875 74.21875 
Q 39.75 74.21875 46.484375 68.546875 
Q 53.21875 62.890625 53.21875 53.421875 
Q 53.21875 48.921875 51.53125 44.890625 
Q 49.859375 40.875 45.40625 35.40625 
Q 44.1875 33.984375 37.640625 27.21875 
Q 31.109375 20.453125 19.1875 8.296875 
z
" id="DejaVuSans-50"/>
        <path d="M 10.796875 72.90625 
L 49.515625 72.90625 
L 49.515625 64.59375 
L 19.828125 64.59375 
L 19.828125 46.734375 
Q 21.96875 47.46875 24.109375 47.828125 
Q 26.265625 48.1875 28.421875 48.1875 
Q 40.625 48.1875 47.75 41.5 
Q 54.890625 34.8125 54.890625 23.390625 
Q 54.890625 11.625 47.5625 5.09375 
Q 40.234375 -1.421875 26.90625 -1.421875 
Q 22.3125 -1.421875 17.546875 -0.640625 
Q 12.796875 0.140625 7.71875 1.703125 
L 7.71875 11.625 
Q 12.109375 9.234375 16.796875 8.0625 
Q 21.484375 6.890625 26.703125 6.890625 
Q 35.15625 6.890625 40.078125 11.328125 
Q 45.015625 15.765625 45.015625 23.390625 
Q 45.015625 31 40.078125 35.4375 
Q 35.15625 39.890625 26.703125 39.890625 
Q 22.75 39.890625 18.8125 39.015625 
Q 14.890625 38.140625 10.796875 36.28125 
z
" id="DejaVuSans-53"/>
       </defs>
       <use xlink:href="#DejaVuSans-48"/>
       <use x="63.623047" xlink:href="#DejaVuSans-46"/>
       <use x="95.410156" xlink:href="#DejaVuSans-50"/>
       <use x="159.033203" xlink:href="#DejaVuSans-53"/>
      </g>
     </g>
    </g>
    <g id="xtick_3">
     <g id="line2d_3">
      <path clip-path="url(#p91b680a393)" d="M 110.7 192.24 
L 110.7 25.92 
" style="fill:none;stroke:#ffffff;stroke-linecap:round;"/>
     </g>
     <g id="text_3">
      <!-- 0.50 -->
      <g style="fill:#262626;" transform="translate(98.453906 210.098281)scale(0.11 -0.11)">
       <use xlink:href="#DejaVuSans-48"/>
       <use x="63.623047" xlink:href="#DejaVuSans-46"/>
       <use x="95.410156" xlink:href="#DejaVuSans-53"/>
       <use x="159.033203" xlink:href="#DejaVuSans-48"/>
      </g>
     </g>
    </g>
    <g id="xtick_4">
     <g id="line2d_4">
      <path clip-path="url(#p91b680a393)" d="M 148.745455 192.24 
L 148.745455 25.92 
" style="fill:none;stroke:#ffffff;stroke-linecap:round;"/>
     </g>
     <g id="text_4">
      <!-- 0.75 -->
      <g style="fill:#262626;" transform="translate(136.499361 210.098281)scale(0.11 -0.11)">
       <defs>
        <path d="M 8.203125 72.90625 
L 55.078125 72.90625 
L 55.078125 68.703125 
L 28.609375 0 
L 18.3125 0 
L 43.21875 64.59375 
L 8.203125 64.59375 
z
" id="DejaVuSans-55"/>
       </defs>
       <use xlink:href="#DejaVuSans-48"/>
       <use x="63.623047" xlink:href="#DejaVuSans-46"/>
       <use x="95.410156" xlink:href="#DejaVuSans-55"/>
       <use x="159.033203" xlink:href="#DejaVuSans-53"/>
      </g>
     </g>
    </g>
    <g id="xtick_5">
     <g id="line2d_5">
      <path clip-path="url(#p91b680a393)" d="M 186.790909 192.24 
L 186.790909 25.92 
" style="fill:none;stroke:#ffffff;stroke-linecap:round;"/>
     </g>
     <g id="text_5">
      <!-- 1.00 -->
      <g style="fill:#262626;" transform="translate(174.544815 210.098281)scale(0.11 -0.11)">
       <defs>
        <path d="M 12.40625 8.296875 
L 28.515625 8.296875 
L 28.515625 63.921875 
L 10.984375 60.40625 
L 10.984375 69.390625 
L 28.421875 72.90625 
L 38.28125 72.90625 
L 38.28125 8.296875 
L 54.390625 8.296875 
L 54.390625 0 
L 12.40625 0 
z
" id="DejaVuSans-49"/>
       </defs>
       <use xlink:href="#DejaVuSans-49"/>
       <use x="63.623047" xlink:href="#DejaVuSans-46"/>
       <use x="95.410156" xlink:href="#DejaVuSans-48"/>
       <use x="159.033203" xlink:href="#DejaVuSans-48"/>
      </g>
     </g>
    </g>
    <g id="text_6">
     <!-- $\theta$ -->
     <g style="fill:#262626;" transform="translate(106.98 225.504063)scale(0.12 -0.12)">
      <defs>
       <path d="M 45.515625 34.671875 
L 14.453125 34.671875 
Q 12.359375 20.0625 14.5 13.875 
Q 17.1875 6.25 24.46875 6.25 
Q 31.78125 6.25 37.359375 13.921875 
Q 42.234375 20.65625 45.515625 34.671875 
z
M 47.015625 42.96875 
Q 48.34375 56.84375 46.625 61.71875 
Q 43.953125 69.4375 36.765625 69.4375 
Q 29.296875 69.4375 23.828125 61.8125 
Q 19.53125 55.671875 16.15625 42.96875 
z
M 38.1875 76.765625 
Q 49.90625 76.765625 54.59375 66.40625 
Q 59.28125 56.109375 55.71875 37.84375 
Q 52.203125 19.625 43.453125 9.28125 
Q 34.765625 -1.125 23.046875 -1.125 
Q 11.28125 -1.125 6.640625 9.28125 
Q 2 19.625 5.515625 37.84375 
Q 9.078125 56.109375 17.71875 66.40625 
Q 26.421875 76.765625 38.1875 76.765625 
z
" id="DejaVuSans-Oblique-952"/>
      </defs>
      <use transform="translate(0 0.234375)" xlink:href="#DejaVuSans-Oblique-952"/>
     </g>
    </g>
   </g>
   <g id="matplotlib.axis_2">
    <g id="ytick_1">
     <g id="line2d_6">
      <path clip-path="url(#p91b680a393)" d="M 27 184.68 
L 194.4 184.68 
" style="fill:none;stroke:#ffffff;stroke-linecap:round;"/>
     </g>
     <g id="text_7">
      <!-- 0.0 -->
      <g style="fill:#262626;" transform="translate(0.006563 188.859141)scale(0.11 -0.11)">
       <use xlink:href="#DejaVuSans-48"/>
       <use x="63.623047" xlink:href="#DejaVuSans-46"/>
       <use x="95.410156" xlink:href="#DejaVuSans-48"/>
      </g>
     </g>
    </g>
    <g id="ytick_2">
     <g id="line2d_7">
      <path clip-path="url(#p91b680a393)" d="M 27 154.44 
L 194.4 154.44 
" style="fill:none;stroke:#ffffff;stroke-linecap:round;"/>
     </g>
     <g id="text_8">
      <!-- 0.2 -->
      <g style="fill:#262626;" transform="translate(0.006563 158.619141)scale(0.11 -0.11)">
       <use xlink:href="#DejaVuSans-48"/>
       <use x="63.623047" xlink:href="#DejaVuSans-46"/>
       <use x="95.410156" xlink:href="#DejaVuSans-50"/>
      </g>
     </g>
    </g>
    <g id="ytick_3">
     <g id="line2d_8">
      <path clip-path="url(#p91b680a393)" d="M 27 124.2 
L 194.4 124.2 
" style="fill:none;stroke:#ffffff;stroke-linecap:round;"/>
     </g>
     <g id="text_9">
      <!-- 0.4 -->
      <g style="fill:#262626;" transform="translate(0.006563 128.379141)scale(0.11 -0.11)">
       <defs>
        <path d="M 37.796875 64.3125 
L 12.890625 25.390625 
L 37.796875 25.390625 
z
M 35.203125 72.90625 
L 47.609375 72.90625 
L 47.609375 25.390625 
L 58.015625 25.390625 
L 58.015625 17.1875 
L 47.609375 17.1875 
L 47.609375 0 
L 37.796875 0 
L 37.796875 17.1875 
L 4.890625 17.1875 
L 4.890625 26.703125 
z
" id="DejaVuSans-52"/>
       </defs>
       <use xlink:href="#DejaVuSans-48"/>
       <use x="63.623047" xlink:href="#DejaVuSans-46"/>
       <use x="95.410156" xlink:href="#DejaVuSans-52"/>
      </g>
     </g>
    </g>
    <g id="ytick_4">
     <g id="line2d_9">
      <path clip-path="url(#p91b680a393)" d="M 27 93.96 
L 194.4 93.96 
" style="fill:none;stroke:#ffffff;stroke-linecap:round;"/>
     </g>
     <g id="text_10">
      <!-- 0.6 -->
      <g style="fill:#262626;" transform="translate(0.006563 98.139141)scale(0.11 -0.11)">
       <defs>
        <path d="M 33.015625 40.375 
Q 26.375 40.375 22.484375 35.828125 
Q 18.609375 31.296875 18.609375 23.390625 
Q 18.609375 15.53125 22.484375 10.953125 
Q 26.375 6.390625 33.015625 6.390625 
Q 39.65625 6.390625 43.53125 10.953125 
Q 47.40625 15.53125 47.40625 23.390625 
Q 47.40625 31.296875 43.53125 35.828125 
Q 39.65625 40.375 33.015625 40.375 
z
M 52.59375 71.296875 
L 52.59375 62.3125 
Q 48.875 64.0625 45.09375 64.984375 
Q 41.3125 65.921875 37.59375 65.921875 
Q 27.828125 65.921875 22.671875 59.328125 
Q 17.53125 52.734375 16.796875 39.40625 
Q 19.671875 43.65625 24.015625 45.921875 
Q 28.375 48.1875 33.59375 48.1875 
Q 44.578125 48.1875 50.953125 41.515625 
Q 57.328125 34.859375 57.328125 23.390625 
Q 57.328125 12.15625 50.6875 5.359375 
Q 44.046875 -1.421875 33.015625 -1.421875 
Q 20.359375 -1.421875 13.671875 8.265625 
Q 6.984375 17.96875 6.984375 36.375 
Q 6.984375 53.65625 15.1875 63.9375 
Q 23.390625 74.21875 37.203125 74.21875 
Q 40.921875 74.21875 44.703125 73.484375 
Q 48.484375 72.75 52.59375 71.296875 
z
" id="DejaVuSans-54"/>
       </defs>
       <use xlink:href="#DejaVuSans-48"/>
       <use x="63.623047" xlink:href="#DejaVuSans-46"/>
       <use x="95.410156" xlink:href="#DejaVuSans-54"/>
      </g>
     </g>
    </g>
    <g id="ytick_5">
     <g id="line2d_10">
      <path clip-path="url(#p91b680a393)" d="M 27 63.72 
L 194.4 63.72 
" style="fill:none;stroke:#ffffff;stroke-linecap:round;"/>
     </g>
     <g id="text_11">
      <!-- 0.8 -->
      <g style="fill:#262626;" transform="translate(0.006563 67.899141)scale(0.11 -0.11)">
       <defs>
        <path d="M 31.78125 34.625 
Q 24.75 34.625 20.71875 30.859375 
Q 16.703125 27.09375 16.703125 20.515625 
Q 16.703125 13.921875 20.71875 10.15625 
Q 24.75 6.390625 31.78125 6.390625 
Q 38.8125 6.390625 42.859375 10.171875 
Q 46.921875 13.96875 46.921875 20.515625 
Q 46.921875 27.09375 42.890625 30.859375 
Q 38.875 34.625 31.78125 34.625 
z
M 21.921875 38.8125 
Q 15.578125 40.375 12.03125 44.71875 
Q 8.5 49.078125 8.5 55.328125 
Q 8.5 64.0625 14.71875 69.140625 
Q 20.953125 74.21875 31.78125 74.21875 
Q 42.671875 74.21875 48.875 69.140625 
Q 55.078125 64.0625 55.078125 55.328125 
Q 55.078125 49.078125 51.53125 44.71875 
Q 48 40.375 41.703125 38.8125 
Q 48.828125 37.15625 52.796875 32.3125 
Q 56.78125 27.484375 56.78125 20.515625 
Q 56.78125 9.90625 50.3125 4.234375 
Q 43.84375 -1.421875 31.78125 -1.421875 
Q 19.734375 -1.421875 13.25 4.234375 
Q 6.78125 9.90625 6.78125 20.515625 
Q 6.78125 27.484375 10.78125 32.3125 
Q 14.796875 37.15625 21.921875 38.8125 
z
M 18.3125 54.390625 
Q 18.3125 48.734375 21.84375 45.5625 
Q 25.390625 42.390625 31.78125 42.390625 
Q 38.140625 42.390625 41.71875 45.5625 
Q 45.3125 48.734375 45.3125 54.390625 
Q 45.3125 60.0625 41.71875 63.234375 
Q 38.140625 66.40625 31.78125 66.40625 
Q 25.390625 66.40625 21.84375 63.234375 
Q 18.3125 60.0625 18.3125 54.390625 
z
" id="DejaVuSans-56"/>
       </defs>
       <use xlink:href="#DejaVuSans-48"/>
       <use x="63.623047" xlink:href="#DejaVuSans-46"/>
       <use x="95.410156" xlink:href="#DejaVuSans-56"/>
      </g>
     </g>
    </g>
    <g id="ytick_6">
     <g id="line2d_11">
      <path clip-path="url(#p91b680a393)" d="M 27 33.48 
L 194.4 33.48 
" style="fill:none;stroke:#ffffff;stroke-linecap:round;"/>
     </g>
     <g id="text_12">
      <!-- 1.0 -->
      <g style="fill:#262626;" transform="translate(0.006563 37.659141)scale(0.11 -0.11)">
       <use xlink:href="#DejaVuSans-49"/>
       <use x="63.623047" xlink:href="#DejaVuSans-46"/>
       <use x="95.410156" xlink:href="#DejaVuSans-48"/>
      </g>
     </g>
    </g>
    <g id="text_13">
     <!-- density -->
     <g style="fill:#262626;" transform="translate(-6.489063 131.079375)rotate(-90)scale(0.12 -0.12)">
      <defs>
       <path d="M 45.40625 46.390625 
L 45.40625 75.984375 
L 54.390625 75.984375 
L 54.390625 0 
L 45.40625 0 
L 45.40625 8.203125 
Q 42.578125 3.328125 38.25 0.953125 
Q 33.9375 -1.421875 27.875 -1.421875 
Q 17.96875 -1.421875 11.734375 6.484375 
Q 5.515625 14.40625 5.515625 27.296875 
Q 5.515625 40.1875 11.734375 48.09375 
Q 17.96875 56 27.875 56 
Q 33.9375 56 38.25 53.625 
Q 42.578125 51.265625 45.40625 46.390625 
z
M 14.796875 27.296875 
Q 14.796875 17.390625 18.875 11.75 
Q 22.953125 6.109375 30.078125 6.109375 
Q 37.203125 6.109375 41.296875 11.75 
Q 45.40625 17.390625 45.40625 27.296875 
Q 45.40625 37.203125 41.296875 42.84375 
Q 37.203125 48.484375 30.078125 48.484375 
Q 22.953125 48.484375 18.875 42.84375 
Q 14.796875 37.203125 14.796875 27.296875 
z
" id="DejaVuSans-100"/>
       <path d="M 56.203125 29.59375 
L 56.203125 25.203125 
L 14.890625 25.203125 
Q 15.484375 15.921875 20.484375 11.0625 
Q 25.484375 6.203125 34.421875 6.203125 
Q 39.59375 6.203125 44.453125 7.46875 
Q 49.3125 8.734375 54.109375 11.28125 
L 54.109375 2.78125 
Q 49.265625 0.734375 44.1875 -0.34375 
Q 39.109375 -1.421875 33.890625 -1.421875 
Q 20.796875 -1.421875 13.15625 6.1875 
Q 5.515625 13.8125 5.515625 26.8125 
Q 5.515625 40.234375 12.765625 48.109375 
Q 20.015625 56 32.328125 56 
Q 43.359375 56 49.78125 48.890625 
Q 56.203125 41.796875 56.203125 29.59375 
z
M 47.21875 32.234375 
Q 47.125 39.59375 43.09375 43.984375 
Q 39.0625 48.390625 32.421875 48.390625 
Q 24.90625 48.390625 20.390625 44.140625 
Q 15.875 39.890625 15.1875 32.171875 
z
" id="DejaVuSans-101"/>
       <path d="M 54.890625 33.015625 
L 54.890625 0 
L 45.90625 0 
L 45.90625 32.71875 
Q 45.90625 40.484375 42.875 44.328125 
Q 39.84375 48.1875 33.796875 48.1875 
Q 26.515625 48.1875 22.3125 43.546875 
Q 18.109375 38.921875 18.109375 30.90625 
L 18.109375 0 
L 9.078125 0 
L 9.078125 54.6875 
L 18.109375 54.6875 
L 18.109375 46.1875 
Q 21.34375 51.125 25.703125 53.5625 
Q 30.078125 56 35.796875 56 
Q 45.21875 56 50.046875 50.171875 
Q 54.890625 44.34375 54.890625 33.015625 
z
" id="DejaVuSans-110"/>
       <path d="M 44.28125 53.078125 
L 44.28125 44.578125 
Q 40.484375 46.53125 36.375 47.5 
Q 32.28125 48.484375 27.875 48.484375 
Q 21.1875 48.484375 17.84375 46.4375 
Q 14.5 44.390625 14.5 40.28125 
Q 14.5 37.15625 16.890625 35.375 
Q 19.28125 33.59375 26.515625 31.984375 
L 29.59375 31.296875 
Q 39.15625 29.25 43.1875 25.515625 
Q 47.21875 21.78125 47.21875 15.09375 
Q 47.21875 7.46875 41.1875 3.015625 
Q 35.15625 -1.421875 24.609375 -1.421875 
Q 20.21875 -1.421875 15.453125 -0.5625 
Q 10.6875 0.296875 5.421875 2 
L 5.421875 11.28125 
Q 10.40625 8.6875 15.234375 7.390625 
Q 20.0625 6.109375 24.8125 6.109375 
Q 31.15625 6.109375 34.5625 8.28125 
Q 37.984375 10.453125 37.984375 14.40625 
Q 37.984375 18.0625 35.515625 20.015625 
Q 33.0625 21.96875 24.703125 23.78125 
L 21.578125 24.515625 
Q 13.234375 26.265625 9.515625 29.90625 
Q 5.8125 33.546875 5.8125 39.890625 
Q 5.8125 47.609375 11.28125 51.796875 
Q 16.75 56 26.8125 56 
Q 31.78125 56 36.171875 55.265625 
Q 40.578125 54.546875 44.28125 53.078125 
z
" id="DejaVuSans-115"/>
       <path d="M 9.421875 54.6875 
L 18.40625 54.6875 
L 18.40625 0 
L 9.421875 0 
z
M 9.421875 75.984375 
L 18.40625 75.984375 
L 18.40625 64.59375 
L 9.421875 64.59375 
z
" id="DejaVuSans-105"/>
       <path d="M 18.3125 70.21875 
L 18.3125 54.6875 
L 36.8125 54.6875 
L 36.8125 47.703125 
L 18.3125 47.703125 
L 18.3125 18.015625 
Q 18.3125 11.328125 20.140625 9.421875 
Q 21.96875 7.515625 27.59375 7.515625 
L 36.8125 7.515625 
L 36.8125 0 
L 27.59375 0 
Q 17.1875 0 13.234375 3.875 
Q 9.28125 7.765625 9.28125 18.015625 
L 9.28125 47.703125 
L 2.6875 47.703125 
L 2.6875 54.6875 
L 9.28125 54.6875 
L 9.28125 70.21875 
z
" id="DejaVuSans-116"/>
       <path d="M 32.171875 -5.078125 
Q 28.375 -14.84375 24.75 -17.8125 
Q 21.140625 -20.796875 15.09375 -20.796875 
L 7.90625 -20.796875 
L 7.90625 -13.28125 
L 13.1875 -13.28125 
Q 16.890625 -13.28125 18.9375 -11.515625 
Q 21 -9.765625 23.484375 -3.21875 
L 25.09375 0.875 
L 2.984375 54.6875 
L 12.5 54.6875 
L 29.59375 11.921875 
L 46.6875 54.6875 
L 56.203125 54.6875 
z
" id="DejaVuSans-121"/>
      </defs>
      <use xlink:href="#DejaVuSans-100"/>
      <use x="63.476562" xlink:href="#DejaVuSans-101"/>
      <use x="125" xlink:href="#DejaVuSans-110"/>
      <use x="188.378906" xlink:href="#DejaVuSans-115"/>
      <use x="240.478516" xlink:href="#DejaVuSans-105"/>
      <use x="268.261719" xlink:href="#DejaVuSans-116"/>
      <use x="307.470703" xlink:href="#DejaVuSans-121"/>
     </g>
    </g>
   </g>
   <g id="PolyCollection_1">
    <defs>
     <path d="M 34.609091 -31.32 
L 34.609091 -182.52 
L 34.761425 -182.368649 
L 34.913759 -182.217297 
L 35.066093 -182.065946 
L 35.218428 -181.914595 
L 35.370762 -181.763243 
L 35.523096 -181.611892 
L 35.67543 -181.460541 
L 35.827764 -181.309189 
L 35.980098 -181.157838 
L 36.132432 -181.006486 
L 36.284767 -180.855135 
L 36.437101 -180.703784 
L 36.589435 -180.552432 
L 36.741769 -180.401081 
L 36.894103 -180.24973 
L 37.046437 -180.098378 
L 37.198771 -179.947027 
L 37.351106 -179.795676 
L 37.50344 -179.644324 
L 37.655774 -179.492973 
L 37.808108 -179.341622 
L 37.960442 -179.19027 
L 38.112776 -179.038919 
L 38.265111 -178.887568 
L 38.417445 -178.736216 
L 38.569779 -178.584865 
L 38.722113 -178.433514 
L 38.874447 -178.282162 
L 39.026781 -178.130811 
L 39.179115 -177.979459 
L 39.33145 -177.828108 
L 39.483784 -177.676757 
L 39.636118 -177.525405 
L 39.788452 -177.374054 
L 39.940786 -177.222703 
L 40.09312 -177.071351 
L 40.245455 -176.92 
L 40.397789 -176.768649 
L 40.550123 -176.617297 
L 40.702457 -176.465946 
L 40.854791 -176.314595 
L 41.007125 -176.163243 
L 41.159459 -176.011892 
L 41.311794 -175.860541 
L 41.464128 -175.709189 
L 41.616462 -175.557838 
L 41.768796 -175.406486 
L 41.92113 -175.255135 
L 42.073464 -175.103784 
L 42.225799 -174.952432 
L 42.378133 -174.801081 
L 42.530467 -174.64973 
L 42.682801 -174.498378 
L 42.835135 -174.347027 
L 42.987469 -174.195676 
L 43.139803 -174.044324 
L 43.292138 -173.892973 
L 43.444472 -173.741622 
L 43.596806 -173.59027 
L 43.74914 -173.438919 
L 43.901474 -173.287568 
L 44.053808 -173.136216 
L 44.206143 -172.984865 
L 44.358477 -172.833514 
L 44.510811 -172.682162 
L 44.663145 -172.530811 
L 44.815479 -172.379459 
L 44.967813 -172.228108 
L 45.120147 -172.076757 
L 45.272482 -171.925405 
L 45.424816 -171.774054 
L 45.57715 -171.622703 
L 45.729484 -171.471351 
L 45.881818 -171.32 
L 46.034152 -171.168649 
L 46.186486 -171.017297 
L 46.338821 -170.865946 
L 46.491155 -170.714595 
L 46.643489 -170.563243 
L 46.795823 -170.411892 
L 46.948157 -170.260541 
L 47.100491 -170.109189 
L 47.252826 -169.957838 
L 47.40516 -169.806486 
L 47.557494 -169.655135 
L 47.709828 -169.503784 
L 47.862162 -169.352432 
L 48.014496 -169.201081 
L 48.16683 -169.04973 
L 48.319165 -168.898378 
L 48.471499 -168.747027 
L 48.623833 -168.595676 
L 48.776167 -168.444324 
L 48.928501 -168.292973 
L 49.080835 -168.141622 
L 49.23317 -167.99027 
L 49.385504 -167.838919 
L 49.537838 -167.687568 
L 49.690172 -167.536216 
L 49.842506 -167.384865 
L 49.99484 -167.233514 
L 50.147174 -167.082162 
L 50.299509 -166.930811 
L 50.451843 -166.779459 
L 50.604177 -166.628108 
L 50.756511 -166.476757 
L 50.908845 -166.325405 
L 51.061179 -166.174054 
L 51.213514 -166.022703 
L 51.365848 -165.871351 
L 51.518182 -165.72 
L 51.670516 -165.568649 
L 51.82285 -165.417297 
L 51.975184 -165.265946 
L 52.127518 -165.114595 
L 52.279853 -164.963243 
L 52.432187 -164.811892 
L 52.584521 -164.660541 
L 52.736855 -164.509189 
L 52.889189 -164.357838 
L 53.041523 -164.206486 
L 53.193857 -164.055135 
L 53.346192 -163.903784 
L 53.498526 -163.752432 
L 53.65086 -163.601081 
L 53.803194 -163.44973 
L 53.955528 -163.298378 
L 54.107862 -163.147027 
L 54.260197 -162.995676 
L 54.412531 -162.844324 
L 54.564865 -162.692973 
L 54.717199 -162.541622 
L 54.869533 -162.39027 
L 55.021867 -162.238919 
L 55.174201 -162.087568 
L 55.326536 -161.936216 
L 55.47887 -161.784865 
L 55.631204 -161.633514 
L 55.783538 -161.482162 
L 55.935872 -161.330811 
L 56.088206 -161.179459 
L 56.240541 -161.028108 
L 56.392875 -160.876757 
L 56.545209 -160.725405 
L 56.697543 -160.574054 
L 56.849877 -160.422703 
L 57.002211 -160.271351 
L 57.154545 -160.12 
L 57.30688 -159.968649 
L 57.459214 -159.817297 
L 57.611548 -159.665946 
L 57.763882 -159.514595 
L 57.916216 -159.363243 
L 58.06855 -159.211892 
L 58.220885 -159.060541 
L 58.373219 -158.909189 
L 58.525553 -158.757838 
L 58.677887 -158.606486 
L 58.830221 -158.455135 
L 58.982555 -158.303784 
L 59.134889 -158.152432 
L 59.287224 -158.001081 
L 59.439558 -157.84973 
L 59.591892 -157.698378 
L 59.744226 -157.547027 
L 59.89656 -157.395676 
L 60.048894 -157.244324 
L 60.201229 -157.092973 
L 60.353563 -156.941622 
L 60.505897 -156.79027 
L 60.658231 -156.638919 
L 60.810565 -156.487568 
L 60.962899 -156.336216 
L 61.115233 -156.184865 
L 61.267568 -156.033514 
L 61.419902 -155.882162 
L 61.572236 -155.730811 
L 61.72457 -155.579459 
L 61.876904 -155.428108 
L 62.029238 -155.276757 
L 62.181572 -155.125405 
L 62.333907 -154.974054 
L 62.486241 -154.822703 
L 62.638575 -154.671351 
L 62.790909 -154.52 
L 62.943243 -154.368649 
L 63.095577 -154.217297 
L 63.247912 -154.065946 
L 63.400246 -153.914595 
L 63.55258 -153.763243 
L 63.704914 -153.611892 
L 63.857248 -153.460541 
L 64.009582 -153.309189 
L 64.161916 -153.157838 
L 64.314251 -153.006486 
L 64.466585 -152.855135 
L 64.618919 -152.703784 
L 64.771253 -152.552432 
L 64.923587 -152.401081 
L 65.075921 -152.24973 
L 65.228256 -152.098378 
L 65.38059 -151.947027 
L 65.532924 -151.795676 
L 65.685258 -151.644324 
L 65.837592 -151.492973 
L 65.989926 -151.341622 
L 66.14226 -151.19027 
L 66.294595 -151.038919 
L 66.446929 -150.887568 
L 66.599263 -150.736216 
L 66.751597 -150.584865 
L 66.903931 -150.433514 
L 67.056265 -150.282162 
L 67.2086 -150.130811 
L 67.360934 -149.979459 
L 67.513268 -149.828108 
L 67.665602 -149.676757 
L 67.817936 -149.525405 
L 67.97027 -149.374054 
L 68.122604 -149.222703 
L 68.274939 -149.071351 
L 68.427273 -148.92 
L 68.579607 -148.768649 
L 68.731941 -148.617297 
L 68.884275 -148.465946 
L 69.036609 -148.314595 
L 69.188943 -148.163243 
L 69.341278 -148.011892 
L 69.493612 -147.860541 
L 69.645946 -147.709189 
L 69.79828 -147.557838 
L 69.950614 -147.406486 
L 70.102948 -147.255135 
L 70.255283 -147.103784 
L 70.407617 -146.952432 
L 70.559951 -146.801081 
L 70.712285 -146.64973 
L 70.864619 -146.498378 
L 71.016953 -146.347027 
L 71.169287 -146.195676 
L 71.321622 -146.044324 
L 71.473956 -145.892973 
L 71.62629 -145.741622 
L 71.778624 -145.59027 
L 71.930958 -145.438919 
L 72.083292 -145.287568 
L 72.235627 -145.136216 
L 72.387961 -144.984865 
L 72.540295 -144.833514 
L 72.692629 -144.682162 
L 72.844963 -144.530811 
L 72.997297 -144.379459 
L 73.149631 -144.228108 
L 73.301966 -144.076757 
L 73.4543 -143.925405 
L 73.606634 -143.774054 
L 73.758968 -143.622703 
L 73.911302 -143.471351 
L 74.063636 -143.32 
L 74.215971 -143.168649 
L 74.368305 -143.017297 
L 74.520639 -142.865946 
L 74.672973 -142.714595 
L 74.825307 -142.563243 
L 74.977641 -142.411892 
L 75.129975 -142.260541 
L 75.28231 -142.109189 
L 75.434644 -141.957838 
L 75.586978 -141.806486 
L 75.739312 -141.655135 
L 75.891646 -141.503784 
L 76.04398 -141.352432 
L 76.196314 -141.201081 
L 76.348649 -141.04973 
L 76.500983 -140.898378 
L 76.653317 -140.747027 
L 76.805651 -140.595676 
L 76.957985 -140.444324 
L 77.110319 -140.292973 
L 77.262654 -140.141622 
L 77.414988 -139.99027 
L 77.567322 -139.838919 
L 77.719656 -139.687568 
L 77.87199 -139.536216 
L 78.024324 -139.384865 
L 78.176658 -139.233514 
L 78.328993 -139.082162 
L 78.481327 -138.930811 
L 78.633661 -138.779459 
L 78.785995 -138.628108 
L 78.938329 -138.476757 
L 79.090663 -138.325405 
L 79.242998 -138.174054 
L 79.395332 -138.022703 
L 79.547666 -137.871351 
L 79.7 -137.72 
L 79.852334 -137.568649 
L 80.004668 -137.417297 
L 80.157002 -137.265946 
L 80.309337 -137.114595 
L 80.461671 -136.963243 
L 80.614005 -136.811892 
L 80.766339 -136.660541 
L 80.918673 -136.509189 
L 81.071007 -136.357838 
L 81.223342 -136.206486 
L 81.375676 -136.055135 
L 81.52801 -135.903784 
L 81.680344 -135.752432 
L 81.832678 -135.601081 
L 81.985012 -135.44973 
L 82.137346 -135.298378 
L 82.289681 -135.147027 
L 82.442015 -134.995676 
L 82.594349 -134.844324 
L 82.746683 -134.692973 
L 82.899017 -134.541622 
L 83.051351 -134.39027 
L 83.203686 -134.238919 
L 83.35602 -134.087568 
L 83.508354 -133.936216 
L 83.660688 -133.784865 
L 83.813022 -133.633514 
L 83.965356 -133.482162 
L 84.11769 -133.330811 
L 84.270025 -133.179459 
L 84.422359 -133.028108 
L 84.574693 -132.876757 
L 84.727027 -132.725405 
L 84.879361 -132.574054 
L 85.031695 -132.422703 
L 85.184029 -132.271351 
L 85.336364 -132.12 
L 85.488698 -131.968649 
L 85.641032 -131.817297 
L 85.793366 -131.665946 
L 85.9457 -131.514595 
L 86.098034 -131.363243 
L 86.250369 -131.211892 
L 86.402703 -131.060541 
L 86.555037 -130.909189 
L 86.707371 -130.757838 
L 86.859705 -130.606486 
L 87.012039 -130.455135 
L 87.164373 -130.303784 
L 87.316708 -130.152432 
L 87.469042 -130.001081 
L 87.621376 -129.84973 
L 87.77371 -129.698378 
L 87.926044 -129.547027 
L 88.078378 -129.395676 
L 88.230713 -129.244324 
L 88.383047 -129.092973 
L 88.535381 -128.941622 
L 88.687715 -128.79027 
L 88.840049 -128.638919 
L 88.992383 -128.487568 
L 89.144717 -128.336216 
L 89.297052 -128.184865 
L 89.449386 -128.033514 
L 89.60172 -127.882162 
L 89.754054 -127.730811 
L 89.906388 -127.579459 
L 90.058722 -127.428108 
L 90.211057 -127.276757 
L 90.363391 -127.125405 
L 90.515725 -126.974054 
L 90.668059 -126.822703 
L 90.820393 -126.671351 
L 90.972727 -126.52 
L 91.125061 -126.368649 
L 91.277396 -126.217297 
L 91.42973 -126.065946 
L 91.582064 -125.914595 
L 91.734398 -125.763243 
L 91.886732 -125.611892 
L 92.039066 -125.460541 
L 92.1914 -125.309189 
L 92.343735 -125.157838 
L 92.496069 -125.006486 
L 92.648403 -124.855135 
L 92.800737 -124.703784 
L 92.953071 -124.552432 
L 93.105405 -124.401081 
L 93.25774 -124.24973 
L 93.410074 -124.098378 
L 93.562408 -123.947027 
L 93.714742 -123.795676 
L 93.867076 -123.644324 
L 94.01941 -123.492973 
L 94.171744 -123.341622 
L 94.324079 -123.19027 
L 94.476413 -123.038919 
L 94.628747 -122.887568 
L 94.781081 -122.736216 
L 94.933415 -122.584865 
L 95.085749 -122.433514 
L 95.238084 -122.282162 
L 95.390418 -122.130811 
L 95.542752 -121.979459 
L 95.695086 -121.828108 
L 95.84742 -121.676757 
L 95.999754 -121.525405 
L 96.152088 -121.374054 
L 96.304423 -121.222703 
L 96.456757 -121.071351 
L 96.609091 -120.92 
L 96.761425 -120.768649 
L 96.913759 -120.617297 
L 97.066093 -120.465946 
L 97.218428 -120.314595 
L 97.370762 -120.163243 
L 97.523096 -120.011892 
L 97.67543 -119.860541 
L 97.827764 -119.709189 
L 97.980098 -119.557838 
L 98.132432 -119.406486 
L 98.284767 -119.255135 
L 98.437101 -119.103784 
L 98.589435 -118.952432 
L 98.741769 -118.801081 
L 98.894103 -118.64973 
L 99.046437 -118.498378 
L 99.198771 -118.347027 
L 99.351106 -118.195676 
L 99.50344 -118.044324 
L 99.655774 -117.892973 
L 99.808108 -117.741622 
L 99.960442 -117.59027 
L 100.112776 -117.438919 
L 100.265111 -117.287568 
L 100.417445 -117.136216 
L 100.569779 -116.984865 
L 100.722113 -116.833514 
L 100.874447 -116.682162 
L 101.026781 -116.530811 
L 101.179115 -116.379459 
L 101.33145 -116.228108 
L 101.483784 -116.076757 
L 101.636118 -115.925405 
L 101.788452 -115.774054 
L 101.940786 -115.622703 
L 102.09312 -115.471351 
L 102.245455 -115.32 
L 102.397789 -115.168649 
L 102.550123 -115.017297 
L 102.702457 -114.865946 
L 102.854791 -114.714595 
L 103.007125 -114.563243 
L 103.159459 -114.411892 
L 103.311794 -114.260541 
L 103.464128 -114.109189 
L 103.616462 -113.957838 
L 103.768796 -113.806486 
L 103.92113 -113.655135 
L 104.073464 -113.503784 
L 104.225799 -113.352432 
L 104.378133 -113.201081 
L 104.530467 -113.04973 
L 104.682801 -112.898378 
L 104.835135 -112.747027 
L 104.987469 -112.595676 
L 105.139803 -112.444324 
L 105.292138 -112.292973 
L 105.444472 -112.141622 
L 105.596806 -111.99027 
L 105.74914 -111.838919 
L 105.901474 -111.687568 
L 106.053808 -111.536216 
L 106.206143 -111.384865 
L 106.358477 -111.233514 
L 106.510811 -111.082162 
L 106.663145 -110.930811 
L 106.815479 -110.779459 
L 106.967813 -110.628108 
L 107.120147 -110.476757 
L 107.272482 -110.325405 
L 107.424816 -110.174054 
L 107.57715 -110.022703 
L 107.729484 -109.871351 
L 107.881818 -109.72 
L 108.034152 -109.568649 
L 108.186486 -109.417297 
L 108.338821 -109.265946 
L 108.491155 -109.114595 
L 108.643489 -108.963243 
L 108.795823 -108.811892 
L 108.948157 -108.660541 
L 109.100491 -108.509189 
L 109.252826 -108.357838 
L 109.40516 -108.206486 
L 109.557494 -108.055135 
L 109.709828 -107.903784 
L 109.862162 -107.752432 
L 110.014496 -107.601081 
L 110.16683 -107.44973 
L 110.319165 -107.298378 
L 110.471499 -107.147027 
L 110.623833 -106.995676 
L 110.776167 -106.844324 
L 110.928501 -106.692973 
L 111.080835 -106.541622 
L 111.23317 -106.39027 
L 111.385504 -106.238919 
L 111.537838 -106.087568 
L 111.690172 -105.936216 
L 111.842506 -105.784865 
L 111.99484 -105.633514 
L 112.147174 -105.482162 
L 112.299509 -105.330811 
L 112.451843 -105.179459 
L 112.604177 -105.028108 
L 112.756511 -104.876757 
L 112.908845 -104.725405 
L 113.061179 -104.574054 
L 113.213514 -104.422703 
L 113.365848 -104.271351 
L 113.518182 -104.12 
L 113.670516 -103.968649 
L 113.82285 -103.817297 
L 113.975184 -103.665946 
L 114.127518 -103.514595 
L 114.279853 -103.363243 
L 114.432187 -103.211892 
L 114.584521 -103.060541 
L 114.736855 -102.909189 
L 114.889189 -102.757838 
L 115.041523 -102.606486 
L 115.193857 -102.455135 
L 115.346192 -102.303784 
L 115.498526 -102.152432 
L 115.65086 -102.001081 
L 115.803194 -101.84973 
L 115.955528 -101.698378 
L 116.107862 -101.547027 
L 116.260197 -101.395676 
L 116.412531 -101.244324 
L 116.564865 -101.092973 
L 116.717199 -100.941622 
L 116.869533 -100.79027 
L 117.021867 -100.638919 
L 117.174201 -100.487568 
L 117.326536 -100.336216 
L 117.47887 -100.184865 
L 117.631204 -100.033514 
L 117.783538 -99.882162 
L 117.935872 -99.730811 
L 118.088206 -99.579459 
L 118.240541 -99.428108 
L 118.392875 -99.276757 
L 118.545209 -99.125405 
L 118.697543 -98.974054 
L 118.849877 -98.822703 
L 119.002211 -98.671351 
L 119.154545 -98.52 
L 119.30688 -98.368649 
L 119.459214 -98.217297 
L 119.611548 -98.065946 
L 119.763882 -97.914595 
L 119.916216 -97.763243 
L 120.06855 -97.611892 
L 120.220885 -97.460541 
L 120.373219 -97.309189 
L 120.525553 -97.157838 
L 120.677887 -97.006486 
L 120.830221 -96.855135 
L 120.982555 -96.703784 
L 121.134889 -96.552432 
L 121.287224 -96.401081 
L 121.439558 -96.24973 
L 121.591892 -96.098378 
L 121.744226 -95.947027 
L 121.89656 -95.795676 
L 122.048894 -95.644324 
L 122.201229 -95.492973 
L 122.353563 -95.341622 
L 122.505897 -95.19027 
L 122.658231 -95.038919 
L 122.810565 -94.887568 
L 122.962899 -94.736216 
L 123.115233 -94.584865 
L 123.267568 -94.433514 
L 123.419902 -94.282162 
L 123.572236 -94.130811 
L 123.72457 -93.979459 
L 123.876904 -93.828108 
L 124.029238 -93.676757 
L 124.181572 -93.525405 
L 124.333907 -93.374054 
L 124.486241 -93.222703 
L 124.638575 -93.071351 
L 124.790909 -92.92 
L 124.943243 -92.768649 
L 125.095577 -92.617297 
L 125.247912 -92.465946 
L 125.400246 -92.314595 
L 125.55258 -92.163243 
L 125.704914 -92.011892 
L 125.857248 -91.860541 
L 126.009582 -91.709189 
L 126.161916 -91.557838 
L 126.314251 -91.406486 
L 126.466585 -91.255135 
L 126.618919 -91.103784 
L 126.771253 -90.952432 
L 126.923587 -90.801081 
L 127.075921 -90.64973 
L 127.228256 -90.498378 
L 127.38059 -90.347027 
L 127.532924 -90.195676 
L 127.685258 -90.044324 
L 127.837592 -89.892973 
L 127.989926 -89.741622 
L 128.14226 -89.59027 
L 128.294595 -89.438919 
L 128.446929 -89.287568 
L 128.599263 -89.136216 
L 128.751597 -88.984865 
L 128.903931 -88.833514 
L 129.056265 -88.682162 
L 129.2086 -88.530811 
L 129.360934 -88.379459 
L 129.513268 -88.228108 
L 129.665602 -88.076757 
L 129.817936 -87.925405 
L 129.97027 -87.774054 
L 130.122604 -87.622703 
L 130.274939 -87.471351 
L 130.427273 -87.32 
L 130.579607 -87.168649 
L 130.731941 -87.017297 
L 130.884275 -86.865946 
L 131.036609 -86.714595 
L 131.188943 -86.563243 
L 131.341278 -86.411892 
L 131.493612 -86.260541 
L 131.645946 -86.109189 
L 131.79828 -85.957838 
L 131.950614 -85.806486 
L 132.102948 -85.655135 
L 132.255283 -85.503784 
L 132.407617 -85.352432 
L 132.559951 -85.201081 
L 132.712285 -85.04973 
L 132.864619 -84.898378 
L 133.016953 -84.747027 
L 133.169287 -84.595676 
L 133.321622 -84.444324 
L 133.473956 -84.292973 
L 133.62629 -84.141622 
L 133.778624 -83.99027 
L 133.930958 -83.838919 
L 134.083292 -83.687568 
L 134.235627 -83.536216 
L 134.387961 -83.384865 
L 134.540295 -83.233514 
L 134.692629 -83.082162 
L 134.844963 -82.930811 
L 134.997297 -82.779459 
L 135.149631 -82.628108 
L 135.301966 -82.476757 
L 135.4543 -82.325405 
L 135.606634 -82.174054 
L 135.758968 -82.022703 
L 135.911302 -81.871351 
L 136.063636 -81.72 
L 136.215971 -81.568649 
L 136.368305 -81.417297 
L 136.520639 -81.265946 
L 136.672973 -81.114595 
L 136.825307 -80.963243 
L 136.977641 -80.811892 
L 137.129975 -80.660541 
L 137.28231 -80.509189 
L 137.434644 -80.357838 
L 137.586978 -80.206486 
L 137.739312 -80.055135 
L 137.891646 -79.903784 
L 138.04398 -79.752432 
L 138.196314 -79.601081 
L 138.348649 -79.44973 
L 138.500983 -79.298378 
L 138.653317 -79.147027 
L 138.805651 -78.995676 
L 138.957985 -78.844324 
L 139.110319 -78.692973 
L 139.262654 -78.541622 
L 139.414988 -78.39027 
L 139.567322 -78.238919 
L 139.719656 -78.087568 
L 139.87199 -77.936216 
L 140.024324 -77.784865 
L 140.176658 -77.633514 
L 140.328993 -77.482162 
L 140.481327 -77.330811 
L 140.633661 -77.179459 
L 140.785995 -77.028108 
L 140.938329 -76.876757 
L 141.090663 -76.725405 
L 141.242998 -76.574054 
L 141.395332 -76.422703 
L 141.547666 -76.271351 
L 141.7 -76.12 
L 141.852334 -75.968649 
L 142.004668 -75.817297 
L 142.157002 -75.665946 
L 142.309337 -75.514595 
L 142.461671 -75.363243 
L 142.614005 -75.211892 
L 142.766339 -75.060541 
L 142.918673 -74.909189 
L 143.071007 -74.757838 
L 143.223342 -74.606486 
L 143.375676 -74.455135 
L 143.52801 -74.303784 
L 143.680344 -74.152432 
L 143.832678 -74.001081 
L 143.985012 -73.84973 
L 144.137346 -73.698378 
L 144.289681 -73.547027 
L 144.442015 -73.395676 
L 144.594349 -73.244324 
L 144.746683 -73.092973 
L 144.899017 -72.941622 
L 145.051351 -72.79027 
L 145.203686 -72.638919 
L 145.35602 -72.487568 
L 145.508354 -72.336216 
L 145.660688 -72.184865 
L 145.813022 -72.033514 
L 145.965356 -71.882162 
L 146.11769 -71.730811 
L 146.270025 -71.579459 
L 146.422359 -71.428108 
L 146.574693 -71.276757 
L 146.727027 -71.125405 
L 146.879361 -70.974054 
L 147.031695 -70.822703 
L 147.184029 -70.671351 
L 147.336364 -70.52 
L 147.488698 -70.368649 
L 147.641032 -70.217297 
L 147.793366 -70.065946 
L 147.9457 -69.914595 
L 148.098034 -69.763243 
L 148.250369 -69.611892 
L 148.402703 -69.460541 
L 148.555037 -69.309189 
L 148.707371 -69.157838 
L 148.859705 -69.006486 
L 149.012039 -68.855135 
L 149.164373 -68.703784 
L 149.316708 -68.552432 
L 149.469042 -68.401081 
L 149.621376 -68.24973 
L 149.77371 -68.098378 
L 149.926044 -67.947027 
L 150.078378 -67.795676 
L 150.230713 -67.644324 
L 150.383047 -67.492973 
L 150.535381 -67.341622 
L 150.687715 -67.19027 
L 150.840049 -67.038919 
L 150.992383 -66.887568 
L 151.144717 -66.736216 
L 151.297052 -66.584865 
L 151.449386 -66.433514 
L 151.60172 -66.282162 
L 151.754054 -66.130811 
L 151.906388 -65.979459 
L 152.058722 -65.828108 
L 152.211057 -65.676757 
L 152.363391 -65.525405 
L 152.515725 -65.374054 
L 152.668059 -65.222703 
L 152.820393 -65.071351 
L 152.972727 -64.92 
L 153.125061 -64.768649 
L 153.277396 -64.617297 
L 153.42973 -64.465946 
L 153.582064 -64.314595 
L 153.734398 -64.163243 
L 153.886732 -64.011892 
L 154.039066 -63.860541 
L 154.1914 -63.709189 
L 154.343735 -63.557838 
L 154.496069 -63.406486 
L 154.648403 -63.255135 
L 154.800737 -63.103784 
L 154.953071 -62.952432 
L 155.105405 -62.801081 
L 155.25774 -62.64973 
L 155.410074 -62.498378 
L 155.562408 -62.347027 
L 155.714742 -62.195676 
L 155.867076 -62.044324 
L 156.01941 -61.892973 
L 156.171744 -61.741622 
L 156.324079 -61.59027 
L 156.476413 -61.438919 
L 156.628747 -61.287568 
L 156.781081 -61.136216 
L 156.933415 -60.984865 
L 157.085749 -60.833514 
L 157.238084 -60.682162 
L 157.390418 -60.530811 
L 157.542752 -60.379459 
L 157.695086 -60.228108 
L 157.84742 -60.076757 
L 157.999754 -59.925405 
L 158.152088 -59.774054 
L 158.304423 -59.622703 
L 158.456757 -59.471351 
L 158.609091 -59.32 
L 158.761425 -59.168649 
L 158.913759 -59.017297 
L 159.066093 -58.865946 
L 159.218428 -58.714595 
L 159.370762 -58.563243 
L 159.523096 -58.411892 
L 159.67543 -58.260541 
L 159.827764 -58.109189 
L 159.980098 -57.957838 
L 160.132432 -57.806486 
L 160.284767 -57.655135 
L 160.437101 -57.503784 
L 160.589435 -57.352432 
L 160.741769 -57.201081 
L 160.894103 -57.04973 
L 161.046437 -56.898378 
L 161.198771 -56.747027 
L 161.351106 -56.595676 
L 161.50344 -56.444324 
L 161.655774 -56.292973 
L 161.808108 -56.141622 
L 161.960442 -55.99027 
L 162.112776 -55.838919 
L 162.265111 -55.687568 
L 162.417445 -55.536216 
L 162.569779 -55.384865 
L 162.722113 -55.233514 
L 162.874447 -55.082162 
L 163.026781 -54.930811 
L 163.179115 -54.779459 
L 163.33145 -54.628108 
L 163.483784 -54.476757 
L 163.636118 -54.325405 
L 163.788452 -54.174054 
L 163.940786 -54.022703 
L 164.09312 -53.871351 
L 164.245455 -53.72 
L 164.397789 -53.568649 
L 164.550123 -53.417297 
L 164.702457 -53.265946 
L 164.854791 -53.114595 
L 165.007125 -52.963243 
L 165.159459 -52.811892 
L 165.311794 -52.660541 
L 165.464128 -52.509189 
L 165.616462 -52.357838 
L 165.768796 -52.206486 
L 165.92113 -52.055135 
L 166.073464 -51.903784 
L 166.225799 -51.752432 
L 166.378133 -51.601081 
L 166.530467 -51.44973 
L 166.682801 -51.298378 
L 166.835135 -51.147027 
L 166.987469 -50.995676 
L 167.139803 -50.844324 
L 167.292138 -50.692973 
L 167.444472 -50.541622 
L 167.596806 -50.39027 
L 167.74914 -50.238919 
L 167.901474 -50.087568 
L 168.053808 -49.936216 
L 168.206143 -49.784865 
L 168.358477 -49.633514 
L 168.510811 -49.482162 
L 168.663145 -49.330811 
L 168.815479 -49.179459 
L 168.967813 -49.028108 
L 169.120147 -48.876757 
L 169.272482 -48.725405 
L 169.424816 -48.574054 
L 169.57715 -48.422703 
L 169.729484 -48.271351 
L 169.881818 -48.12 
L 170.034152 -47.968649 
L 170.186486 -47.817297 
L 170.338821 -47.665946 
L 170.491155 -47.514595 
L 170.643489 -47.363243 
L 170.795823 -47.211892 
L 170.948157 -47.060541 
L 171.100491 -46.909189 
L 171.252826 -46.757838 
L 171.40516 -46.606486 
L 171.557494 -46.455135 
L 171.709828 -46.303784 
L 171.862162 -46.152432 
L 172.014496 -46.001081 
L 172.16683 -45.84973 
L 172.319165 -45.698378 
L 172.471499 -45.547027 
L 172.623833 -45.395676 
L 172.776167 -45.244324 
L 172.928501 -45.092973 
L 173.080835 -44.941622 
L 173.23317 -44.79027 
L 173.385504 -44.638919 
L 173.537838 -44.487568 
L 173.690172 -44.336216 
L 173.842506 -44.184865 
L 173.99484 -44.033514 
L 174.147174 -43.882162 
L 174.299509 -43.730811 
L 174.451843 -43.579459 
L 174.604177 -43.428108 
L 174.756511 -43.276757 
L 174.908845 -43.125405 
L 175.061179 -42.974054 
L 175.213514 -42.822703 
L 175.365848 -42.671351 
L 175.518182 -42.52 
L 175.670516 -42.368649 
L 175.82285 -42.217297 
L 175.975184 -42.065946 
L 176.127518 -41.914595 
L 176.279853 -41.763243 
L 176.432187 -41.611892 
L 176.584521 -41.460541 
L 176.736855 -41.309189 
L 176.889189 -41.157838 
L 177.041523 -41.006486 
L 177.193857 -40.855135 
L 177.346192 -40.703784 
L 177.498526 -40.552432 
L 177.65086 -40.401081 
L 177.803194 -40.24973 
L 177.955528 -40.098378 
L 178.107862 -39.947027 
L 178.260197 -39.795676 
L 178.412531 -39.644324 
L 178.564865 -39.492973 
L 178.717199 -39.341622 
L 178.869533 -39.19027 
L 179.021867 -39.038919 
L 179.174201 -38.887568 
L 179.326536 -38.736216 
L 179.47887 -38.584865 
L 179.631204 -38.433514 
L 179.783538 -38.282162 
L 179.935872 -38.130811 
L 180.088206 -37.979459 
L 180.240541 -37.828108 
L 180.392875 -37.676757 
L 180.545209 -37.525405 
L 180.697543 -37.374054 
L 180.849877 -37.222703 
L 181.002211 -37.071351 
L 181.154545 -36.92 
L 181.30688 -36.768649 
L 181.459214 -36.617297 
L 181.611548 -36.465946 
L 181.763882 -36.314595 
L 181.916216 -36.163243 
L 182.06855 -36.011892 
L 182.220885 -35.860541 
L 182.373219 -35.709189 
L 182.525553 -35.557838 
L 182.677887 -35.406486 
L 182.830221 -35.255135 
L 182.982555 -35.103784 
L 183.134889 -34.952432 
L 183.287224 -34.801081 
L 183.439558 -34.64973 
L 183.591892 -34.498378 
L 183.744226 -34.347027 
L 183.89656 -34.195676 
L 184.048894 -34.044324 
L 184.201229 -33.892973 
L 184.353563 -33.741622 
L 184.505897 -33.59027 
L 184.658231 -33.438919 
L 184.810565 -33.287568 
L 184.962899 -33.136216 
L 185.115233 -32.984865 
L 185.267568 -32.833514 
L 185.419902 -32.682162 
L 185.572236 -32.530811 
L 185.72457 -32.379459 
L 185.876904 -32.228108 
L 186.029238 -32.076757 
L 186.181572 -31.925405 
L 186.333907 -31.774054 
L 186.486241 -31.622703 
L 186.638575 -31.471351 
L 186.790909 -31.32 
L 186.790909 -31.32 
L 186.790909 -31.32 
L 186.638575 -31.32 
L 186.486241 -31.32 
L 186.333907 -31.32 
L 186.181572 -31.32 
L 186.029238 -31.32 
L 185.876904 -31.32 
L 185.72457 -31.32 
L 185.572236 -31.32 
L 185.419902 -31.32 
L 185.267568 -31.32 
L 185.115233 -31.32 
L 184.962899 -31.32 
L 184.810565 -31.32 
L 184.658231 -31.32 
L 184.505897 -31.32 
L 184.353563 -31.32 
L 184.201229 -31.32 
L 184.048894 -31.32 
L 183.89656 -31.32 
L 183.744226 -31.32 
L 183.591892 -31.32 
L 183.439558 -31.32 
L 183.287224 -31.32 
L 183.134889 -31.32 
L 182.982555 -31.32 
L 182.830221 -31.32 
L 182.677887 -31.32 
L 182.525553 -31.32 
L 182.373219 -31.32 
L 182.220885 -31.32 
L 182.06855 -31.32 
L 181.916216 -31.32 
L 181.763882 -31.32 
L 181.611548 -31.32 
L 181.459214 -31.32 
L 181.30688 -31.32 
L 181.154545 -31.32 
L 181.002211 -31.32 
L 180.849877 -31.32 
L 180.697543 -31.32 
L 180.545209 -31.32 
L 180.392875 -31.32 
L 180.240541 -31.32 
L 180.088206 -31.32 
L 179.935872 -31.32 
L 179.783538 -31.32 
L 179.631204 -31.32 
L 179.47887 -31.32 
L 179.326536 -31.32 
L 179.174201 -31.32 
L 179.021867 -31.32 
L 178.869533 -31.32 
L 178.717199 -31.32 
L 178.564865 -31.32 
L 178.412531 -31.32 
L 178.260197 -31.32 
L 178.107862 -31.32 
L 177.955528 -31.32 
L 177.803194 -31.32 
L 177.65086 -31.32 
L 177.498526 -31.32 
L 177.346192 -31.32 
L 177.193857 -31.32 
L 177.041523 -31.32 
L 176.889189 -31.32 
L 176.736855 -31.32 
L 176.584521 -31.32 
L 176.432187 -31.32 
L 176.279853 -31.32 
L 176.127518 -31.32 
L 175.975184 -31.32 
L 175.82285 -31.32 
L 175.670516 -31.32 
L 175.518182 -31.32 
L 175.365848 -31.32 
L 175.213514 -31.32 
L 175.061179 -31.32 
L 174.908845 -31.32 
L 174.756511 -31.32 
L 174.604177 -31.32 
L 174.451843 -31.32 
L 174.299509 -31.32 
L 174.147174 -31.32 
L 173.99484 -31.32 
L 173.842506 -31.32 
L 173.690172 -31.32 
L 173.537838 -31.32 
L 173.385504 -31.32 
L 173.23317 -31.32 
L 173.080835 -31.32 
L 172.928501 -31.32 
L 172.776167 -31.32 
L 172.623833 -31.32 
L 172.471499 -31.32 
L 172.319165 -31.32 
L 172.16683 -31.32 
L 172.014496 -31.32 
L 171.862162 -31.32 
L 171.709828 -31.32 
L 171.557494 -31.32 
L 171.40516 -31.32 
L 171.252826 -31.32 
L 171.100491 -31.32 
L 170.948157 -31.32 
L 170.795823 -31.32 
L 170.643489 -31.32 
L 170.491155 -31.32 
L 170.338821 -31.32 
L 170.186486 -31.32 
L 170.034152 -31.32 
L 169.881818 -31.32 
L 169.729484 -31.32 
L 169.57715 -31.32 
L 169.424816 -31.32 
L 169.272482 -31.32 
L 169.120147 -31.32 
L 168.967813 -31.32 
L 168.815479 -31.32 
L 168.663145 -31.32 
L 168.510811 -31.32 
L 168.358477 -31.32 
L 168.206143 -31.32 
L 168.053808 -31.32 
L 167.901474 -31.32 
L 167.74914 -31.32 
L 167.596806 -31.32 
L 167.444472 -31.32 
L 167.292138 -31.32 
L 167.139803 -31.32 
L 166.987469 -31.32 
L 166.835135 -31.32 
L 166.682801 -31.32 
L 166.530467 -31.32 
L 166.378133 -31.32 
L 166.225799 -31.32 
L 166.073464 -31.32 
L 165.92113 -31.32 
L 165.768796 -31.32 
L 165.616462 -31.32 
L 165.464128 -31.32 
L 165.311794 -31.32 
L 165.159459 -31.32 
L 165.007125 -31.32 
L 164.854791 -31.32 
L 164.702457 -31.32 
L 164.550123 -31.32 
L 164.397789 -31.32 
L 164.245455 -31.32 
L 164.09312 -31.32 
L 163.940786 -31.32 
L 163.788452 -31.32 
L 163.636118 -31.32 
L 163.483784 -31.32 
L 163.33145 -31.32 
L 163.179115 -31.32 
L 163.026781 -31.32 
L 162.874447 -31.32 
L 162.722113 -31.32 
L 162.569779 -31.32 
L 162.417445 -31.32 
L 162.265111 -31.32 
L 162.112776 -31.32 
L 161.960442 -31.32 
L 161.808108 -31.32 
L 161.655774 -31.32 
L 161.50344 -31.32 
L 161.351106 -31.32 
L 161.198771 -31.32 
L 161.046437 -31.32 
L 160.894103 -31.32 
L 160.741769 -31.32 
L 160.589435 -31.32 
L 160.437101 -31.32 
L 160.284767 -31.32 
L 160.132432 -31.32 
L 159.980098 -31.32 
L 159.827764 -31.32 
L 159.67543 -31.32 
L 159.523096 -31.32 
L 159.370762 -31.32 
L 159.218428 -31.32 
L 159.066093 -31.32 
L 158.913759 -31.32 
L 158.761425 -31.32 
L 158.609091 -31.32 
L 158.456757 -31.32 
L 158.304423 -31.32 
L 158.152088 -31.32 
L 157.999754 -31.32 
L 157.84742 -31.32 
L 157.695086 -31.32 
L 157.542752 -31.32 
L 157.390418 -31.32 
L 157.238084 -31.32 
L 157.085749 -31.32 
L 156.933415 -31.32 
L 156.781081 -31.32 
L 156.628747 -31.32 
L 156.476413 -31.32 
L 156.324079 -31.32 
L 156.171744 -31.32 
L 156.01941 -31.32 
L 155.867076 -31.32 
L 155.714742 -31.32 
L 155.562408 -31.32 
L 155.410074 -31.32 
L 155.25774 -31.32 
L 155.105405 -31.32 
L 154.953071 -31.32 
L 154.800737 -31.32 
L 154.648403 -31.32 
L 154.496069 -31.32 
L 154.343735 -31.32 
L 154.1914 -31.32 
L 154.039066 -31.32 
L 153.886732 -31.32 
L 153.734398 -31.32 
L 153.582064 -31.32 
L 153.42973 -31.32 
L 153.277396 -31.32 
L 153.125061 -31.32 
L 152.972727 -31.32 
L 152.820393 -31.32 
L 152.668059 -31.32 
L 152.515725 -31.32 
L 152.363391 -31.32 
L 152.211057 -31.32 
L 152.058722 -31.32 
L 151.906388 -31.32 
L 151.754054 -31.32 
L 151.60172 -31.32 
L 151.449386 -31.32 
L 151.297052 -31.32 
L 151.144717 -31.32 
L 150.992383 -31.32 
L 150.840049 -31.32 
L 150.687715 -31.32 
L 150.535381 -31.32 
L 150.383047 -31.32 
L 150.230713 -31.32 
L 150.078378 -31.32 
L 149.926044 -31.32 
L 149.77371 -31.32 
L 149.621376 -31.32 
L 149.469042 -31.32 
L 149.316708 -31.32 
L 149.164373 -31.32 
L 149.012039 -31.32 
L 148.859705 -31.32 
L 148.707371 -31.32 
L 148.555037 -31.32 
L 148.402703 -31.32 
L 148.250369 -31.32 
L 148.098034 -31.32 
L 147.9457 -31.32 
L 147.793366 -31.32 
L 147.641032 -31.32 
L 147.488698 -31.32 
L 147.336364 -31.32 
L 147.184029 -31.32 
L 147.031695 -31.32 
L 146.879361 -31.32 
L 146.727027 -31.32 
L 146.574693 -31.32 
L 146.422359 -31.32 
L 146.270025 -31.32 
L 146.11769 -31.32 
L 145.965356 -31.32 
L 145.813022 -31.32 
L 145.660688 -31.32 
L 145.508354 -31.32 
L 145.35602 -31.32 
L 145.203686 -31.32 
L 145.051351 -31.32 
L 144.899017 -31.32 
L 144.746683 -31.32 
L 144.594349 -31.32 
L 144.442015 -31.32 
L 144.289681 -31.32 
L 144.137346 -31.32 
L 143.985012 -31.32 
L 143.832678 -31.32 
L 143.680344 -31.32 
L 143.52801 -31.32 
L 143.375676 -31.32 
L 143.223342 -31.32 
L 143.071007 -31.32 
L 142.918673 -31.32 
L 142.766339 -31.32 
L 142.614005 -31.32 
L 142.461671 -31.32 
L 142.309337 -31.32 
L 142.157002 -31.32 
L 142.004668 -31.32 
L 141.852334 -31.32 
L 141.7 -31.32 
L 141.547666 -31.32 
L 141.395332 -31.32 
L 141.242998 -31.32 
L 141.090663 -31.32 
L 140.938329 -31.32 
L 140.785995 -31.32 
L 140.633661 -31.32 
L 140.481327 -31.32 
L 140.328993 -31.32 
L 140.176658 -31.32 
L 140.024324 -31.32 
L 139.87199 -31.32 
L 139.719656 -31.32 
L 139.567322 -31.32 
L 139.414988 -31.32 
L 139.262654 -31.32 
L 139.110319 -31.32 
L 138.957985 -31.32 
L 138.805651 -31.32 
L 138.653317 -31.32 
L 138.500983 -31.32 
L 138.348649 -31.32 
L 138.196314 -31.32 
L 138.04398 -31.32 
L 137.891646 -31.32 
L 137.739312 -31.32 
L 137.586978 -31.32 
L 137.434644 -31.32 
L 137.28231 -31.32 
L 137.129975 -31.32 
L 136.977641 -31.32 
L 136.825307 -31.32 
L 136.672973 -31.32 
L 136.520639 -31.32 
L 136.368305 -31.32 
L 136.215971 -31.32 
L 136.063636 -31.32 
L 135.911302 -31.32 
L 135.758968 -31.32 
L 135.606634 -31.32 
L 135.4543 -31.32 
L 135.301966 -31.32 
L 135.149631 -31.32 
L 134.997297 -31.32 
L 134.844963 -31.32 
L 134.692629 -31.32 
L 134.540295 -31.32 
L 134.387961 -31.32 
L 134.235627 -31.32 
L 134.083292 -31.32 
L 133.930958 -31.32 
L 133.778624 -31.32 
L 133.62629 -31.32 
L 133.473956 -31.32 
L 133.321622 -31.32 
L 133.169287 -31.32 
L 133.016953 -31.32 
L 132.864619 -31.32 
L 132.712285 -31.32 
L 132.559951 -31.32 
L 132.407617 -31.32 
L 132.255283 -31.32 
L 132.102948 -31.32 
L 131.950614 -31.32 
L 131.79828 -31.32 
L 131.645946 -31.32 
L 131.493612 -31.32 
L 131.341278 -31.32 
L 131.188943 -31.32 
L 131.036609 -31.32 
L 130.884275 -31.32 
L 130.731941 -31.32 
L 130.579607 -31.32 
L 130.427273 -31.32 
L 130.274939 -31.32 
L 130.122604 -31.32 
L 129.97027 -31.32 
L 129.817936 -31.32 
L 129.665602 -31.32 
L 129.513268 -31.32 
L 129.360934 -31.32 
L 129.2086 -31.32 
L 129.056265 -31.32 
L 128.903931 -31.32 
L 128.751597 -31.32 
L 128.599263 -31.32 
L 128.446929 -31.32 
L 128.294595 -31.32 
L 128.14226 -31.32 
L 127.989926 -31.32 
L 127.837592 -31.32 
L 127.685258 -31.32 
L 127.532924 -31.32 
L 127.38059 -31.32 
L 127.228256 -31.32 
L 127.075921 -31.32 
L 126.923587 -31.32 
L 126.771253 -31.32 
L 126.618919 -31.32 
L 126.466585 -31.32 
L 126.314251 -31.32 
L 126.161916 -31.32 
L 126.009582 -31.32 
L 125.857248 -31.32 
L 125.704914 -31.32 
L 125.55258 -31.32 
L 125.400246 -31.32 
L 125.247912 -31.32 
L 125.095577 -31.32 
L 124.943243 -31.32 
L 124.790909 -31.32 
L 124.638575 -31.32 
L 124.486241 -31.32 
L 124.333907 -31.32 
L 124.181572 -31.32 
L 124.029238 -31.32 
L 123.876904 -31.32 
L 123.72457 -31.32 
L 123.572236 -31.32 
L 123.419902 -31.32 
L 123.267568 -31.32 
L 123.115233 -31.32 
L 122.962899 -31.32 
L 122.810565 -31.32 
L 122.658231 -31.32 
L 122.505897 -31.32 
L 122.353563 -31.32 
L 122.201229 -31.32 
L 122.048894 -31.32 
L 121.89656 -31.32 
L 121.744226 -31.32 
L 121.591892 -31.32 
L 121.439558 -31.32 
L 121.287224 -31.32 
L 121.134889 -31.32 
L 120.982555 -31.32 
L 120.830221 -31.32 
L 120.677887 -31.32 
L 120.525553 -31.32 
L 120.373219 -31.32 
L 120.220885 -31.32 
L 120.06855 -31.32 
L 119.916216 -31.32 
L 119.763882 -31.32 
L 119.611548 -31.32 
L 119.459214 -31.32 
L 119.30688 -31.32 
L 119.154545 -31.32 
L 119.002211 -31.32 
L 118.849877 -31.32 
L 118.697543 -31.32 
L 118.545209 -31.32 
L 118.392875 -31.32 
L 118.240541 -31.32 
L 118.088206 -31.32 
L 117.935872 -31.32 
L 117.783538 -31.32 
L 117.631204 -31.32 
L 117.47887 -31.32 
L 117.326536 -31.32 
L 117.174201 -31.32 
L 117.021867 -31.32 
L 116.869533 -31.32 
L 116.717199 -31.32 
L 116.564865 -31.32 
L 116.412531 -31.32 
L 116.260197 -31.32 
L 116.107862 -31.32 
L 115.955528 -31.32 
L 115.803194 -31.32 
L 115.65086 -31.32 
L 115.498526 -31.32 
L 115.346192 -31.32 
L 115.193857 -31.32 
L 115.041523 -31.32 
L 114.889189 -31.32 
L 114.736855 -31.32 
L 114.584521 -31.32 
L 114.432187 -31.32 
L 114.279853 -31.32 
L 114.127518 -31.32 
L 113.975184 -31.32 
L 113.82285 -31.32 
L 113.670516 -31.32 
L 113.518182 -31.32 
L 113.365848 -31.32 
L 113.213514 -31.32 
L 113.061179 -31.32 
L 112.908845 -31.32 
L 112.756511 -31.32 
L 112.604177 -31.32 
L 112.451843 -31.32 
L 112.299509 -31.32 
L 112.147174 -31.32 
L 111.99484 -31.32 
L 111.842506 -31.32 
L 111.690172 -31.32 
L 111.537838 -31.32 
L 111.385504 -31.32 
L 111.23317 -31.32 
L 111.080835 -31.32 
L 110.928501 -31.32 
L 110.776167 -31.32 
L 110.623833 -31.32 
L 110.471499 -31.32 
L 110.319165 -31.32 
L 110.16683 -31.32 
L 110.014496 -31.32 
L 109.862162 -31.32 
L 109.709828 -31.32 
L 109.557494 -31.32 
L 109.40516 -31.32 
L 109.252826 -31.32 
L 109.100491 -31.32 
L 108.948157 -31.32 
L 108.795823 -31.32 
L 108.643489 -31.32 
L 108.491155 -31.32 
L 108.338821 -31.32 
L 108.186486 -31.32 
L 108.034152 -31.32 
L 107.881818 -31.32 
L 107.729484 -31.32 
L 107.57715 -31.32 
L 107.424816 -31.32 
L 107.272482 -31.32 
L 107.120147 -31.32 
L 106.967813 -31.32 
L 106.815479 -31.32 
L 106.663145 -31.32 
L 106.510811 -31.32 
L 106.358477 -31.32 
L 106.206143 -31.32 
L 106.053808 -31.32 
L 105.901474 -31.32 
L 105.74914 -31.32 
L 105.596806 -31.32 
L 105.444472 -31.32 
L 105.292138 -31.32 
L 105.139803 -31.32 
L 104.987469 -31.32 
L 104.835135 -31.32 
L 104.682801 -31.32 
L 104.530467 -31.32 
L 104.378133 -31.32 
L 104.225799 -31.32 
L 104.073464 -31.32 
L 103.92113 -31.32 
L 103.768796 -31.32 
L 103.616462 -31.32 
L 103.464128 -31.32 
L 103.311794 -31.32 
L 103.159459 -31.32 
L 103.007125 -31.32 
L 102.854791 -31.32 
L 102.702457 -31.32 
L 102.550123 -31.32 
L 102.397789 -31.32 
L 102.245455 -31.32 
L 102.09312 -31.32 
L 101.940786 -31.32 
L 101.788452 -31.32 
L 101.636118 -31.32 
L 101.483784 -31.32 
L 101.33145 -31.32 
L 101.179115 -31.32 
L 101.026781 -31.32 
L 100.874447 -31.32 
L 100.722113 -31.32 
L 100.569779 -31.32 
L 100.417445 -31.32 
L 100.265111 -31.32 
L 100.112776 -31.32 
L 99.960442 -31.32 
L 99.808108 -31.32 
L 99.655774 -31.32 
L 99.50344 -31.32 
L 99.351106 -31.32 
L 99.198771 -31.32 
L 99.046437 -31.32 
L 98.894103 -31.32 
L 98.741769 -31.32 
L 98.589435 -31.32 
L 98.437101 -31.32 
L 98.284767 -31.32 
L 98.132432 -31.32 
L 97.980098 -31.32 
L 97.827764 -31.32 
L 97.67543 -31.32 
L 97.523096 -31.32 
L 97.370762 -31.32 
L 97.218428 -31.32 
L 97.066093 -31.32 
L 96.913759 -31.32 
L 96.761425 -31.32 
L 96.609091 -31.32 
L 96.456757 -31.32 
L 96.304423 -31.32 
L 96.152088 -31.32 
L 95.999754 -31.32 
L 95.84742 -31.32 
L 95.695086 -31.32 
L 95.542752 -31.32 
L 95.390418 -31.32 
L 95.238084 -31.32 
L 95.085749 -31.32 
L 94.933415 -31.32 
L 94.781081 -31.32 
L 94.628747 -31.32 
L 94.476413 -31.32 
L 94.324079 -31.32 
L 94.171744 -31.32 
L 94.01941 -31.32 
L 93.867076 -31.32 
L 93.714742 -31.32 
L 93.562408 -31.32 
L 93.410074 -31.32 
L 93.25774 -31.32 
L 93.105405 -31.32 
L 92.953071 -31.32 
L 92.800737 -31.32 
L 92.648403 -31.32 
L 92.496069 -31.32 
L 92.343735 -31.32 
L 92.1914 -31.32 
L 92.039066 -31.32 
L 91.886732 -31.32 
L 91.734398 -31.32 
L 91.582064 -31.32 
L 91.42973 -31.32 
L 91.277396 -31.32 
L 91.125061 -31.32 
L 90.972727 -31.32 
L 90.820393 -31.32 
L 90.668059 -31.32 
L 90.515725 -31.32 
L 90.363391 -31.32 
L 90.211057 -31.32 
L 90.058722 -31.32 
L 89.906388 -31.32 
L 89.754054 -31.32 
L 89.60172 -31.32 
L 89.449386 -31.32 
L 89.297052 -31.32 
L 89.144717 -31.32 
L 88.992383 -31.32 
L 88.840049 -31.32 
L 88.687715 -31.32 
L 88.535381 -31.32 
L 88.383047 -31.32 
L 88.230713 -31.32 
L 88.078378 -31.32 
L 87.926044 -31.32 
L 87.77371 -31.32 
L 87.621376 -31.32 
L 87.469042 -31.32 
L 87.316708 -31.32 
L 87.164373 -31.32 
L 87.012039 -31.32 
L 86.859705 -31.32 
L 86.707371 -31.32 
L 86.555037 -31.32 
L 86.402703 -31.32 
L 86.250369 -31.32 
L 86.098034 -31.32 
L 85.9457 -31.32 
L 85.793366 -31.32 
L 85.641032 -31.32 
L 85.488698 -31.32 
L 85.336364 -31.32 
L 85.184029 -31.32 
L 85.031695 -31.32 
L 84.879361 -31.32 
L 84.727027 -31.32 
L 84.574693 -31.32 
L 84.422359 -31.32 
L 84.270025 -31.32 
L 84.11769 -31.32 
L 83.965356 -31.32 
L 83.813022 -31.32 
L 83.660688 -31.32 
L 83.508354 -31.32 
L 83.35602 -31.32 
L 83.203686 -31.32 
L 83.051351 -31.32 
L 82.899017 -31.32 
L 82.746683 -31.32 
L 82.594349 -31.32 
L 82.442015 -31.32 
L 82.289681 -31.32 
L 82.137346 -31.32 
L 81.985012 -31.32 
L 81.832678 -31.32 
L 81.680344 -31.32 
L 81.52801 -31.32 
L 81.375676 -31.32 
L 81.223342 -31.32 
L 81.071007 -31.32 
L 80.918673 -31.32 
L 80.766339 -31.32 
L 80.614005 -31.32 
L 80.461671 -31.32 
L 80.309337 -31.32 
L 80.157002 -31.32 
L 80.004668 -31.32 
L 79.852334 -31.32 
L 79.7 -31.32 
L 79.547666 -31.32 
L 79.395332 -31.32 
L 79.242998 -31.32 
L 79.090663 -31.32 
L 78.938329 -31.32 
L 78.785995 -31.32 
L 78.633661 -31.32 
L 78.481327 -31.32 
L 78.328993 -31.32 
L 78.176658 -31.32 
L 78.024324 -31.32 
L 77.87199 -31.32 
L 77.719656 -31.32 
L 77.567322 -31.32 
L 77.414988 -31.32 
L 77.262654 -31.32 
L 77.110319 -31.32 
L 76.957985 -31.32 
L 76.805651 -31.32 
L 76.653317 -31.32 
L 76.500983 -31.32 
L 76.348649 -31.32 
L 76.196314 -31.32 
L 76.04398 -31.32 
L 75.891646 -31.32 
L 75.739312 -31.32 
L 75.586978 -31.32 
L 75.434644 -31.32 
L 75.28231 -31.32 
L 75.129975 -31.32 
L 74.977641 -31.32 
L 74.825307 -31.32 
L 74.672973 -31.32 
L 74.520639 -31.32 
L 74.368305 -31.32 
L 74.215971 -31.32 
L 74.063636 -31.32 
L 73.911302 -31.32 
L 73.758968 -31.32 
L 73.606634 -31.32 
L 73.4543 -31.32 
L 73.301966 -31.32 
L 73.149631 -31.32 
L 72.997297 -31.32 
L 72.844963 -31.32 
L 72.692629 -31.32 
L 72.540295 -31.32 
L 72.387961 -31.32 
L 72.235627 -31.32 
L 72.083292 -31.32 
L 71.930958 -31.32 
L 71.778624 -31.32 
L 71.62629 -31.32 
L 71.473956 -31.32 
L 71.321622 -31.32 
L 71.169287 -31.32 
L 71.016953 -31.32 
L 70.864619 -31.32 
L 70.712285 -31.32 
L 70.559951 -31.32 
L 70.407617 -31.32 
L 70.255283 -31.32 
L 70.102948 -31.32 
L 69.950614 -31.32 
L 69.79828 -31.32 
L 69.645946 -31.32 
L 69.493612 -31.32 
L 69.341278 -31.32 
L 69.188943 -31.32 
L 69.036609 -31.32 
L 68.884275 -31.32 
L 68.731941 -31.32 
L 68.579607 -31.32 
L 68.427273 -31.32 
L 68.274939 -31.32 
L 68.122604 -31.32 
L 67.97027 -31.32 
L 67.817936 -31.32 
L 67.665602 -31.32 
L 67.513268 -31.32 
L 67.360934 -31.32 
L 67.2086 -31.32 
L 67.056265 -31.32 
L 66.903931 -31.32 
L 66.751597 -31.32 
L 66.599263 -31.32 
L 66.446929 -31.32 
L 66.294595 -31.32 
L 66.14226 -31.32 
L 65.989926 -31.32 
L 65.837592 -31.32 
L 65.685258 -31.32 
L 65.532924 -31.32 
L 65.38059 -31.32 
L 65.228256 -31.32 
L 65.075921 -31.32 
L 64.923587 -31.32 
L 64.771253 -31.32 
L 64.618919 -31.32 
L 64.466585 -31.32 
L 64.314251 -31.32 
L 64.161916 -31.32 
L 64.009582 -31.32 
L 63.857248 -31.32 
L 63.704914 -31.32 
L 63.55258 -31.32 
L 63.400246 -31.32 
L 63.247912 -31.32 
L 63.095577 -31.32 
L 62.943243 -31.32 
L 62.790909 -31.32 
L 62.638575 -31.32 
L 62.486241 -31.32 
L 62.333907 -31.32 
L 62.181572 -31.32 
L 62.029238 -31.32 
L 61.876904 -31.32 
L 61.72457 -31.32 
L 61.572236 -31.32 
L 61.419902 -31.32 
L 61.267568 -31.32 
L 61.115233 -31.32 
L 60.962899 -31.32 
L 60.810565 -31.32 
L 60.658231 -31.32 
L 60.505897 -31.32 
L 60.353563 -31.32 
L 60.201229 -31.32 
L 60.048894 -31.32 
L 59.89656 -31.32 
L 59.744226 -31.32 
L 59.591892 -31.32 
L 59.439558 -31.32 
L 59.287224 -31.32 
L 59.134889 -31.32 
L 58.982555 -31.32 
L 58.830221 -31.32 
L 58.677887 -31.32 
L 58.525553 -31.32 
L 58.373219 -31.32 
L 58.220885 -31.32 
L 58.06855 -31.32 
L 57.916216 -31.32 
L 57.763882 -31.32 
L 57.611548 -31.32 
L 57.459214 -31.32 
L 57.30688 -31.32 
L 57.154545 -31.32 
L 57.002211 -31.32 
L 56.849877 -31.32 
L 56.697543 -31.32 
L 56.545209 -31.32 
L 56.392875 -31.32 
L 56.240541 -31.32 
L 56.088206 -31.32 
L 55.935872 -31.32 
L 55.783538 -31.32 
L 55.631204 -31.32 
L 55.47887 -31.32 
L 55.326536 -31.32 
L 55.174201 -31.32 
L 55.021867 -31.32 
L 54.869533 -31.32 
L 54.717199 -31.32 
L 54.564865 -31.32 
L 54.412531 -31.32 
L 54.260197 -31.32 
L 54.107862 -31.32 
L 53.955528 -31.32 
L 53.803194 -31.32 
L 53.65086 -31.32 
L 53.498526 -31.32 
L 53.346192 -31.32 
L 53.193857 -31.32 
L 53.041523 -31.32 
L 52.889189 -31.32 
L 52.736855 -31.32 
L 52.584521 -31.32 
L 52.432187 -31.32 
L 52.279853 -31.32 
L 52.127518 -31.32 
L 51.975184 -31.32 
L 51.82285 -31.32 
L 51.670516 -31.32 
L 51.518182 -31.32 
L 51.365848 -31.32 
L 51.213514 -31.32 
L 51.061179 -31.32 
L 50.908845 -31.32 
L 50.756511 -31.32 
L 50.604177 -31.32 
L 50.451843 -31.32 
L 50.299509 -31.32 
L 50.147174 -31.32 
L 49.99484 -31.32 
L 49.842506 -31.32 
L 49.690172 -31.32 
L 49.537838 -31.32 
L 49.385504 -31.32 
L 49.23317 -31.32 
L 49.080835 -31.32 
L 48.928501 -31.32 
L 48.776167 -31.32 
L 48.623833 -31.32 
L 48.471499 -31.32 
L 48.319165 -31.32 
L 48.16683 -31.32 
L 48.014496 -31.32 
L 47.862162 -31.32 
L 47.709828 -31.32 
L 47.557494 -31.32 
L 47.40516 -31.32 
L 47.252826 -31.32 
L 47.100491 -31.32 
L 46.948157 -31.32 
L 46.795823 -31.32 
L 46.643489 -31.32 
L 46.491155 -31.32 
L 46.338821 -31.32 
L 46.186486 -31.32 
L 46.034152 -31.32 
L 45.881818 -31.32 
L 45.729484 -31.32 
L 45.57715 -31.32 
L 45.424816 -31.32 
L 45.272482 -31.32 
L 45.120147 -31.32 
L 44.967813 -31.32 
L 44.815479 -31.32 
L 44.663145 -31.32 
L 44.510811 -31.32 
L 44.358477 -31.32 
L 44.206143 -31.32 
L 44.053808 -31.32 
L 43.901474 -31.32 
L 43.74914 -31.32 
L 43.596806 -31.32 
L 43.444472 -31.32 
L 43.292138 -31.32 
L 43.139803 -31.32 
L 42.987469 -31.32 
L 42.835135 -31.32 
L 42.682801 -31.32 
L 42.530467 -31.32 
L 42.378133 -31.32 
L 42.225799 -31.32 
L 42.073464 -31.32 
L 41.92113 -31.32 
L 41.768796 -31.32 
L 41.616462 -31.32 
L 41.464128 -31.32 
L 41.311794 -31.32 
L 41.159459 -31.32 
L 41.007125 -31.32 
L 40.854791 -31.32 
L 40.702457 -31.32 
L 40.550123 -31.32 
L 40.397789 -31.32 
L 40.245455 -31.32 
L 40.09312 -31.32 
L 39.940786 -31.32 
L 39.788452 -31.32 
L 39.636118 -31.32 
L 39.483784 -31.32 
L 39.33145 -31.32 
L 39.179115 -31.32 
L 39.026781 -31.32 
L 38.874447 -31.32 
L 38.722113 -31.32 
L 38.569779 -31.32 
L 38.417445 -31.32 
L 38.265111 -31.32 
L 38.112776 -31.32 
L 37.960442 -31.32 
L 37.808108 -31.32 
L 37.655774 -31.32 
L 37.50344 -31.32 
L 37.351106 -31.32 
L 37.198771 -31.32 
L 37.046437 -31.32 
L 36.894103 -31.32 
L 36.741769 -31.32 
L 36.589435 -31.32 
L 36.437101 -31.32 
L 36.284767 -31.32 
L 36.132432 -31.32 
L 35.980098 -31.32 
L 35.827764 -31.32 
L 35.67543 -31.32 
L 35.523096 -31.32 
L 35.370762 -31.32 
L 35.218428 -31.32 
L 35.066093 -31.32 
L 34.913759 -31.32 
L 34.761425 -31.32 
L 34.609091 -31.32 
z
" id="m1913e7d9af" style="stroke:#ffffff;"/>
    </defs>
    <g clip-path="url(#p91b680a393)">
     <use style="fill:#4c72b0;stroke:#ffffff;" x="0" xlink:href="#m1913e7d9af" y="216"/>
    </g>
   </g>
   <g id="patch_3">
    <path d="M 27 192.24 
L 27 25.92 
" style="fill:none;stroke:#ffffff;stroke-linecap:square;stroke-linejoin:miter;stroke-width:1.25;"/>
   </g>
   <g id="patch_4">
    <path d="M 194.4 192.24 
L 194.4 25.92 
" style="fill:none;stroke:#ffffff;stroke-linecap:square;stroke-linejoin:miter;stroke-width:1.25;"/>
   </g>
   <g id="patch_5">
    <path d="M 27 192.24 
L 194.4 192.24 
" style="fill:none;stroke:#ffffff;stroke-linecap:square;stroke-linejoin:miter;stroke-width:1.25;"/>
   </g>
   <g id="patch_6">
    <path d="M 27 25.92 
L 194.4 25.92 
" style="fill:none;stroke:#ffffff;stroke-linecap:square;stroke-linejoin:miter;stroke-width:1.25;"/>
   </g>
   <g id="text_14">
    <!-- Likelihood ($p(z=0\mid\theta)$) -->
    <g style="fill:#262626;" transform="translate(41.76 19.92)scale(0.12 -0.12)">
     <defs>
      <path d="M 9.8125 72.90625 
L 19.671875 72.90625 
L 19.671875 8.296875 
L 55.171875 8.296875 
L 55.171875 0 
L 9.8125 0 
z
" id="DejaVuSans-76"/>
      <path d="M 9.078125 75.984375 
L 18.109375 75.984375 
L 18.109375 31.109375 
L 44.921875 54.6875 
L 56.390625 54.6875 
L 27.390625 29.109375 
L 57.625 0 
L 45.90625 0 
L 18.109375 26.703125 
L 18.109375 0 
L 9.078125 0 
z
" id="DejaVuSans-107"/>
      <path d="M 9.421875 75.984375 
L 18.40625 75.984375 
L 18.40625 0 
L 9.421875 0 
z
" id="DejaVuSans-108"/>
      <path d="M 54.890625 33.015625 
L 54.890625 0 
L 45.90625 0 
L 45.90625 32.71875 
Q 45.90625 40.484375 42.875 44.328125 
Q 39.84375 48.1875 33.796875 48.1875 
Q 26.515625 48.1875 22.3125 43.546875 
Q 18.109375 38.921875 18.109375 30.90625 
L 18.109375 0 
L 9.078125 0 
L 9.078125 75.984375 
L 18.109375 75.984375 
L 18.109375 46.1875 
Q 21.34375 51.125 25.703125 53.5625 
Q 30.078125 56 35.796875 56 
Q 45.21875 56 50.046875 50.171875 
Q 54.890625 44.34375 54.890625 33.015625 
z
" id="DejaVuSans-104"/>
      <path d="M 30.609375 48.390625 
Q 23.390625 48.390625 19.1875 42.75 
Q 14.984375 37.109375 14.984375 27.296875 
Q 14.984375 17.484375 19.15625 11.84375 
Q 23.34375 6.203125 30.609375 6.203125 
Q 37.796875 6.203125 41.984375 11.859375 
Q 46.1875 17.53125 46.1875 27.296875 
Q 46.1875 37.015625 41.984375 42.703125 
Q 37.796875 48.390625 30.609375 48.390625 
z
M 30.609375 56 
Q 42.328125 56 49.015625 48.375 
Q 55.71875 40.765625 55.71875 27.296875 
Q 55.71875 13.875 49.015625 6.21875 
Q 42.328125 -1.421875 30.609375 -1.421875 
Q 18.84375 -1.421875 12.171875 6.21875 
Q 5.515625 13.875 5.515625 27.296875 
Q 5.515625 40.765625 12.171875 48.375 
Q 18.84375 56 30.609375 56 
z
" id="DejaVuSans-111"/>
      <path id="DejaVuSans-32"/>
      <path d="M 31 75.875 
Q 24.46875 64.65625 21.28125 53.65625 
Q 18.109375 42.671875 18.109375 31.390625 
Q 18.109375 20.125 21.3125 9.0625 
Q 24.515625 -2 31 -13.1875 
L 23.1875 -13.1875 
Q 15.875 -1.703125 12.234375 9.375 
Q 8.59375 20.453125 8.59375 31.390625 
Q 8.59375 42.28125 12.203125 53.3125 
Q 15.828125 64.359375 23.1875 75.875 
z
" id="DejaVuSans-40"/>
      <path d="M 49.609375 33.6875 
Q 49.609375 40.875 46.484375 44.671875 
Q 43.359375 48.484375 37.5 48.484375 
Q 33.5 48.484375 29.859375 46.4375 
Q 26.21875 44.390625 23.390625 40.484375 
Q 20.609375 36.625 18.9375 31.15625 
Q 17.28125 25.6875 17.28125 20.3125 
Q 17.28125 13.484375 20.40625 9.796875 
Q 23.53125 6.109375 29.296875 6.109375 
Q 33.546875 6.109375 37.1875 8.109375 
Q 40.828125 10.109375 43.40625 13.921875 
Q 46.1875 17.921875 47.890625 23.34375 
Q 49.609375 28.765625 49.609375 33.6875 
z
M 21.78125 46.390625 
Q 25.390625 51.125 30.296875 53.5625 
Q 35.203125 56 41.21875 56 
Q 49.609375 56 54.25 50.5 
Q 58.890625 45.015625 58.890625 35.109375 
Q 58.890625 27 56 19.65625 
Q 53.125 12.3125 47.703125 6.5 
Q 44.09375 2.640625 39.546875 0.609375 
Q 35.015625 -1.421875 29.984375 -1.421875 
Q 24.171875 -1.421875 20.21875 1 
Q 16.265625 3.421875 14.3125 8.203125 
L 8.6875 -20.796875 
L -0.296875 -20.796875 
L 14.40625 54.6875 
L 23.390625 54.6875 
z
" id="DejaVuSans-Oblique-112"/>
      <path d="M 11.625 54.6875 
L 54.296875 54.6875 
L 52.6875 46.484375 
L 11.53125 7.171875 
L 45.515625 7.171875 
L 44.09375 0 
L -0.296875 0 
L 1.3125 8.203125 
L 42.484375 47.515625 
L 10.203125 47.515625 
z
" id="DejaVuSans-Oblique-122"/>
      <path d="M 10.59375 45.40625 
L 73.1875 45.40625 
L 73.1875 37.203125 
L 10.59375 37.203125 
z
M 10.59375 25.484375 
L 73.1875 25.484375 
L 73.1875 17.1875 
L 10.59375 17.1875 
z
" id="DejaVuSans-61"/>
      <path d="M 21.09375 77.09375 
L 28.90625 77.09375 
L 28.90625 -21.390625 
L 21.09375 -21.390625 
z
" id="DejaVuSans-8739"/>
      <path d="M 8.015625 75.875 
L 15.828125 75.875 
Q 23.140625 64.359375 26.78125 53.3125 
Q 30.421875 42.28125 30.421875 31.390625 
Q 30.421875 20.453125 26.78125 9.375 
Q 23.140625 -1.703125 15.828125 -13.1875 
L 8.015625 -13.1875 
Q 14.5 -2 17.703125 9.0625 
Q 20.90625 20.125 20.90625 31.390625 
Q 20.90625 42.671875 17.703125 53.65625 
Q 14.5 64.65625 8.015625 75.875 
z
" id="DejaVuSans-41"/>
     </defs>
     <use transform="translate(0 0.90625)" xlink:href="#DejaVuSans-76"/>
     <use transform="translate(55.712891 0.90625)" xlink:href="#DejaVuSans-105"/>
     <use transform="translate(83.496094 0.90625)" xlink:href="#DejaVuSans-107"/>
     <use transform="translate(141.40625 0.90625)" xlink:href="#DejaVuSans-101"/>
     <use transform="translate(202.929688 0.90625)" xlink:href="#DejaVuSans-108"/>
     <use transform="translate(230.712891 0.90625)" xlink:href="#DejaVuSans-105"/>
     <use transform="translate(258.496094 0.90625)" xlink:href="#DejaVuSans-104"/>
     <use transform="translate(321.875 0.90625)" xlink:href="#DejaVuSans-111"/>
     <use transform="translate(383.056641 0.90625)" xlink:href="#DejaVuSans-111"/>
     <use transform="translate(444.238281 0.90625)" xlink:href="#DejaVuSans-100"/>
     <use transform="translate(507.714844 0.90625)" xlink:href="#DejaVuSans-32"/>
     <use transform="translate(539.501953 0.90625)" xlink:href="#DejaVuSans-40"/>
     <use transform="translate(578.515625 0.90625)" xlink:href="#DejaVuSans-Oblique-112"/>
     <use transform="translate(641.992188 0.90625)" xlink:href="#DejaVuSans-40"/>
     <use transform="translate(681.005859 0.90625)" xlink:href="#DejaVuSans-Oblique-122"/>
     <use transform="translate(752.978516 0.90625)" xlink:href="#DejaVuSans-61"/>
     <use transform="translate(856.25 0.90625)" xlink:href="#DejaVuSans-48"/>
     <use transform="translate(939.355469 0.90625)" xlink:href="#DejaVuSans-8739"/>
     <use transform="translate(1008.837891 0.90625)" xlink:href="#DejaVuSans-Oblique-952"/>
     <use transform="translate(1070.019531 0.90625)" xlink:href="#DejaVuSans-41"/>
     <use transform="translate(1109.033203 0.90625)" xlink:href="#DejaVuSans-41"/>
    </g>
   </g>
  </g>
 </g>
 <defs>
  <clipPath id="p91b680a393">
   <rect height="166.32" width="167.4" x="27" y="25.92"/>
  </clipPath>
 </defs>
</svg>
