<?xml version="1.0" encoding="utf-8" standalone="no"?>
<!DOCTYPE svg PUBLIC "-//W3C//DTD SVG 1.1//EN"
  "http://www.w3.org/Graphics/SVG/1.1/DTD/svg11.dtd">
<!-- Created with matplotlib (https://matplotlib.org/) -->
<svg height="216pt" version="1.1" viewBox="0 0 216 216" width="216pt" xmlns="http://www.w3.org/2000/svg" xmlns:xlink="http://www.w3.org/1999/xlink">
 <metadata>
  <rdf:RDF xmlns:cc="http://creativecommons.org/ns#" xmlns:dc="http://purl.org/dc/elements/1.1/" xmlns:rdf="http://www.w3.org/1999/02/22-rdf-syntax-ns#">
   <cc:Work>
    <dc:type rdf:resource="http://purl.org/dc/dcmitype/StillImage"/>
    <dc:date>2021-05-04T22:54:10.423773</dc:date>
    <dc:format>image/svg+xml</dc:format>
    <dc:creator>
     <cc:Agent>
      <dc:title>Matplotlib v3.3.4, https://matplotlib.org/</dc:title>
     </cc:Agent>
    </dc:creator>
   </cc:Work>
  </rdf:RDF>
 </metadata>
 <defs>
  <style type="text/css">*{stroke-linecap:butt;stroke-linejoin:round;}</style>
 </defs>
 <g id="figure_1">
  <g id="patch_1">
   <path d="M 0 216 
L 216 216 
L 216 0 
L 0 0 
z
" style="fill:#ffffff;"/>
  </g>
  <g id="axes_1">
   <g id="patch_2">
    <path d="M 27 192.24 
L 194.4 192.24 
L 194.4 25.92 
L 27 25.92 
z
" style="fill:#eaeaf2;"/>
   </g>
   <g id="matplotlib.axis_1">
    <g id="xtick_1">
     <g id="line2d_1">
      <path clip-path="url(#p2e5792bd1b)" d="M 34.609091 192.24 
L 34.609091 25.92 
" style="fill:none;stroke:#ffffff;stroke-linecap:round;"/>
     </g>
     <g id="text_1">
      <!-- 0.00 -->
      <g style="fill:#262626;" transform="translate(22.362997 210.098281)scale(0.11 -0.11)">
       <defs>
        <path d="M 31.78125 66.40625 
Q 24.171875 66.40625 20.328125 58.90625 
Q 16.5 51.421875 16.5 36.375 
Q 16.5 21.390625 20.328125 13.890625 
Q 24.171875 6.390625 31.78125 6.390625 
Q 39.453125 6.390625 43.28125 13.890625 
Q 47.125 21.390625 47.125 36.375 
Q 47.125 51.421875 43.28125 58.90625 
Q 39.453125 66.40625 31.78125 66.40625 
z
M 31.78125 74.21875 
Q 44.046875 74.21875 50.515625 64.515625 
Q 56.984375 54.828125 56.984375 36.375 
Q 56.984375 17.96875 50.515625 8.265625 
Q 44.046875 -1.421875 31.78125 -1.421875 
Q 19.53125 -1.421875 13.0625 8.265625 
Q 6.59375 17.96875 6.59375 36.375 
Q 6.59375 54.828125 13.0625 64.515625 
Q 19.53125 74.21875 31.78125 74.21875 
z
" id="DejaVuSans-48"/>
        <path d="M 10.6875 12.40625 
L 21 12.40625 
L 21 0 
L 10.6875 0 
z
" id="DejaVuSans-46"/>
       </defs>
       <use xlink:href="#DejaVuSans-48"/>
       <use x="63.623047" xlink:href="#DejaVuSans-46"/>
       <use x="95.410156" xlink:href="#DejaVuSans-48"/>
       <use x="159.033203" xlink:href="#DejaVuSans-48"/>
      </g>
     </g>
    </g>
    <g id="xtick_2">
     <g id="line2d_2">
      <path clip-path="url(#p2e5792bd1b)" d="M 72.654545 192.24 
L 72.654545 25.92 
" style="fill:none;stroke:#ffffff;stroke-linecap:round;"/>
     </g>
     <g id="text_2">
      <!-- 0.25 -->
      <g style="fill:#262626;" transform="translate(60.408452 210.098281)scale(0.11 -0.11)">
       <defs>
        <path d="M 19.1875 8.296875 
L 53.609375 8.296875 
L 53.609375 0 
L 7.328125 0 
L 7.328125 8.296875 
Q 12.9375 14.109375 22.625 23.890625 
Q 32.328125 33.6875 34.8125 36.53125 
Q 39.546875 41.84375 41.421875 45.53125 
Q 43.3125 49.21875 43.3125 52.78125 
Q 43.3125 58.59375 39.234375 62.25 
Q 35.15625 65.921875 28.609375 65.921875 
Q 23.96875 65.921875 18.8125 64.3125 
Q 13.671875 62.703125 7.8125 59.421875 
L 7.8125 69.390625 
Q 13.765625 71.78125 18.9375 73 
Q 24.125 74.21875 28.421875 74.21875 
Q 39.75 74.21875 46.484375 68.546875 
Q 53.21875 62.890625 53.21875 53.421875 
Q 53.21875 48.921875 51.53125 44.890625 
Q 49.859375 40.875 45.40625 35.40625 
Q 44.1875 33.984375 37.640625 27.21875 
Q 31.109375 20.453125 19.1875 8.296875 
z
" id="DejaVuSans-50"/>
        <path d="M 10.796875 72.90625 
L 49.515625 72.90625 
L 49.515625 64.59375 
L 19.828125 64.59375 
L 19.828125 46.734375 
Q 21.96875 47.46875 24.109375 47.828125 
Q 26.265625 48.1875 28.421875 48.1875 
Q 40.625 48.1875 47.75 41.5 
Q 54.890625 34.8125 54.890625 23.390625 
Q 54.890625 11.625 47.5625 5.09375 
Q 40.234375 -1.421875 26.90625 -1.421875 
Q 22.3125 -1.421875 17.546875 -0.640625 
Q 12.796875 0.140625 7.71875 1.703125 
L 7.71875 11.625 
Q 12.109375 9.234375 16.796875 8.0625 
Q 21.484375 6.890625 26.703125 6.890625 
Q 35.15625 6.890625 40.078125 11.328125 
Q 45.015625 15.765625 45.015625 23.390625 
Q 45.015625 31 40.078125 35.4375 
Q 35.15625 39.890625 26.703125 39.890625 
Q 22.75 39.890625 18.8125 39.015625 
Q 14.890625 38.140625 10.796875 36.28125 
z
" id="DejaVuSans-53"/>
       </defs>
       <use xlink:href="#DejaVuSans-48"/>
       <use x="63.623047" xlink:href="#DejaVuSans-46"/>
       <use x="95.410156" xlink:href="#DejaVuSans-50"/>
       <use x="159.033203" xlink:href="#DejaVuSans-53"/>
      </g>
     </g>
    </g>
    <g id="xtick_3">
     <g id="line2d_3">
      <path clip-path="url(#p2e5792bd1b)" d="M 110.7 192.24 
L 110.7 25.92 
" style="fill:none;stroke:#ffffff;stroke-linecap:round;"/>
     </g>
     <g id="text_3">
      <!-- 0.50 -->
      <g style="fill:#262626;" transform="translate(98.453906 210.098281)scale(0.11 -0.11)">
       <use xlink:href="#DejaVuSans-48"/>
       <use x="63.623047" xlink:href="#DejaVuSans-46"/>
       <use x="95.410156" xlink:href="#DejaVuSans-53"/>
       <use x="159.033203" xlink:href="#DejaVuSans-48"/>
      </g>
     </g>
    </g>
    <g id="xtick_4">
     <g id="line2d_4">
      <path clip-path="url(#p2e5792bd1b)" d="M 148.745455 192.24 
L 148.745455 25.92 
" style="fill:none;stroke:#ffffff;stroke-linecap:round;"/>
     </g>
     <g id="text_4">
      <!-- 0.75 -->
      <g style="fill:#262626;" transform="translate(136.499361 210.098281)scale(0.11 -0.11)">
       <defs>
        <path d="M 8.203125 72.90625 
L 55.078125 72.90625 
L 55.078125 68.703125 
L 28.609375 0 
L 18.3125 0 
L 43.21875 64.59375 
L 8.203125 64.59375 
z
" id="DejaVuSans-55"/>
       </defs>
       <use xlink:href="#DejaVuSans-48"/>
       <use x="63.623047" xlink:href="#DejaVuSans-46"/>
       <use x="95.410156" xlink:href="#DejaVuSans-55"/>
       <use x="159.033203" xlink:href="#DejaVuSans-53"/>
      </g>
     </g>
    </g>
    <g id="xtick_5">
     <g id="line2d_5">
      <path clip-path="url(#p2e5792bd1b)" d="M 186.790909 192.24 
L 186.790909 25.92 
" style="fill:none;stroke:#ffffff;stroke-linecap:round;"/>
     </g>
     <g id="text_5">
      <!-- 1.00 -->
      <g style="fill:#262626;" transform="translate(174.544815 210.098281)scale(0.11 -0.11)">
       <defs>
        <path d="M 12.40625 8.296875 
L 28.515625 8.296875 
L 28.515625 63.921875 
L 10.984375 60.40625 
L 10.984375 69.390625 
L 28.421875 72.90625 
L 38.28125 72.90625 
L 38.28125 8.296875 
L 54.390625 8.296875 
L 54.390625 0 
L 12.40625 0 
z
" id="DejaVuSans-49"/>
       </defs>
       <use xlink:href="#DejaVuSans-49"/>
       <use x="63.623047" xlink:href="#DejaVuSans-46"/>
       <use x="95.410156" xlink:href="#DejaVuSans-48"/>
       <use x="159.033203" xlink:href="#DejaVuSans-48"/>
      </g>
     </g>
    </g>
    <g id="text_6">
     <!-- $\theta$ -->
     <g style="fill:#262626;" transform="translate(106.98 225.504063)scale(0.12 -0.12)">
      <defs>
       <path d="M 45.515625 34.671875 
L 14.453125 34.671875 
Q 12.359375 20.0625 14.5 13.875 
Q 17.1875 6.25 24.46875 6.25 
Q 31.78125 6.25 37.359375 13.921875 
Q 42.234375 20.65625 45.515625 34.671875 
z
M 47.015625 42.96875 
Q 48.34375 56.84375 46.625 61.71875 
Q 43.953125 69.4375 36.765625 69.4375 
Q 29.296875 69.4375 23.828125 61.8125 
Q 19.53125 55.671875 16.15625 42.96875 
z
M 38.1875 76.765625 
Q 49.90625 76.765625 54.59375 66.40625 
Q 59.28125 56.109375 55.71875 37.84375 
Q 52.203125 19.625 43.453125 9.28125 
Q 34.765625 -1.125 23.046875 -1.125 
Q 11.28125 -1.125 6.640625 9.28125 
Q 2 19.625 5.515625 37.84375 
Q 9.078125 56.109375 17.71875 66.40625 
Q 26.421875 76.765625 38.1875 76.765625 
z
" id="DejaVuSans-Oblique-952"/>
      </defs>
      <use transform="translate(0 0.234375)" xlink:href="#DejaVuSans-Oblique-952"/>
     </g>
    </g>
   </g>
   <g id="matplotlib.axis_2">
    <g id="ytick_1">
     <g id="line2d_6">
      <path clip-path="url(#p2e5792bd1b)" d="M 27 184.68 
L 194.4 184.68 
" style="fill:none;stroke:#ffffff;stroke-linecap:round;"/>
     </g>
     <g id="text_7">
      <!-- 0.0 -->
      <g style="fill:#262626;" transform="translate(0.006563 188.859141)scale(0.11 -0.11)">
       <use xlink:href="#DejaVuSans-48"/>
       <use x="63.623047" xlink:href="#DejaVuSans-46"/>
       <use x="95.410156" xlink:href="#DejaVuSans-48"/>
      </g>
     </g>
    </g>
    <g id="ytick_2">
     <g id="line2d_7">
      <path clip-path="url(#p2e5792bd1b)" d="M 27 154.44 
L 194.4 154.44 
" style="fill:none;stroke:#ffffff;stroke-linecap:round;"/>
     </g>
     <g id="text_8">
      <!-- 0.2 -->
      <g style="fill:#262626;" transform="translate(0.006563 158.619141)scale(0.11 -0.11)">
       <use xlink:href="#DejaVuSans-48"/>
       <use x="63.623047" xlink:href="#DejaVuSans-46"/>
       <use x="95.410156" xlink:href="#DejaVuSans-50"/>
      </g>
     </g>
    </g>
    <g id="ytick_3">
     <g id="line2d_8">
      <path clip-path="url(#p2e5792bd1b)" d="M 27 124.2 
L 194.4 124.2 
" style="fill:none;stroke:#ffffff;stroke-linecap:round;"/>
     </g>
     <g id="text_9">
      <!-- 0.4 -->
      <g style="fill:#262626;" transform="translate(0.006563 128.379141)scale(0.11 -0.11)">
       <defs>
        <path d="M 37.796875 64.3125 
L 12.890625 25.390625 
L 37.796875 25.390625 
z
M 35.203125 72.90625 
L 47.609375 72.90625 
L 47.609375 25.390625 
L 58.015625 25.390625 
L 58.015625 17.1875 
L 47.609375 17.1875 
L 47.609375 0 
L 37.796875 0 
L 37.796875 17.1875 
L 4.890625 17.1875 
L 4.890625 26.703125 
z
" id="DejaVuSans-52"/>
       </defs>
       <use xlink:href="#DejaVuSans-48"/>
       <use x="63.623047" xlink:href="#DejaVuSans-46"/>
       <use x="95.410156" xlink:href="#DejaVuSans-52"/>
      </g>
     </g>
    </g>
    <g id="ytick_4">
     <g id="line2d_9">
      <path clip-path="url(#p2e5792bd1b)" d="M 27 93.96 
L 194.4 93.96 
" style="fill:none;stroke:#ffffff;stroke-linecap:round;"/>
     </g>
     <g id="text_10">
      <!-- 0.6 -->
      <g style="fill:#262626;" transform="translate(0.006563 98.139141)scale(0.11 -0.11)">
       <defs>
        <path d="M 33.015625 40.375 
Q 26.375 40.375 22.484375 35.828125 
Q 18.609375 31.296875 18.609375 23.390625 
Q 18.609375 15.53125 22.484375 10.953125 
Q 26.375 6.390625 33.015625 6.390625 
Q 39.65625 6.390625 43.53125 10.953125 
Q 47.40625 15.53125 47.40625 23.390625 
Q 47.40625 31.296875 43.53125 35.828125 
Q 39.65625 40.375 33.015625 40.375 
z
M 52.59375 71.296875 
L 52.59375 62.3125 
Q 48.875 64.0625 45.09375 64.984375 
Q 41.3125 65.921875 37.59375 65.921875 
Q 27.828125 65.921875 22.671875 59.328125 
Q 17.53125 52.734375 16.796875 39.40625 
Q 19.671875 43.65625 24.015625 45.921875 
Q 28.375 48.1875 33.59375 48.1875 
Q 44.578125 48.1875 50.953125 41.515625 
Q 57.328125 34.859375 57.328125 23.390625 
Q 57.328125 12.15625 50.6875 5.359375 
Q 44.046875 -1.421875 33.015625 -1.421875 
Q 20.359375 -1.421875 13.671875 8.265625 
Q 6.984375 17.96875 6.984375 36.375 
Q 6.984375 53.65625 15.1875 63.9375 
Q 23.390625 74.21875 37.203125 74.21875 
Q 40.921875 74.21875 44.703125 73.484375 
Q 48.484375 72.75 52.59375 71.296875 
z
" id="DejaVuSans-54"/>
       </defs>
       <use xlink:href="#DejaVuSans-48"/>
       <use x="63.623047" xlink:href="#DejaVuSans-46"/>
       <use x="95.410156" xlink:href="#DejaVuSans-54"/>
      </g>
     </g>
    </g>
    <g id="ytick_5">
     <g id="line2d_10">
      <path clip-path="url(#p2e5792bd1b)" d="M 27 63.72 
L 194.4 63.72 
" style="fill:none;stroke:#ffffff;stroke-linecap:round;"/>
     </g>
     <g id="text_11">
      <!-- 0.8 -->
      <g style="fill:#262626;" transform="translate(0.006563 67.899141)scale(0.11 -0.11)">
       <defs>
        <path d="M 31.78125 34.625 
Q 24.75 34.625 20.71875 30.859375 
Q 16.703125 27.09375 16.703125 20.515625 
Q 16.703125 13.921875 20.71875 10.15625 
Q 24.75 6.390625 31.78125 6.390625 
Q 38.8125 6.390625 42.859375 10.171875 
Q 46.921875 13.96875 46.921875 20.515625 
Q 46.921875 27.09375 42.890625 30.859375 
Q 38.875 34.625 31.78125 34.625 
z
M 21.921875 38.8125 
Q 15.578125 40.375 12.03125 44.71875 
Q 8.5 49.078125 8.5 55.328125 
Q 8.5 64.0625 14.71875 69.140625 
Q 20.953125 74.21875 31.78125 74.21875 
Q 42.671875 74.21875 48.875 69.140625 
Q 55.078125 64.0625 55.078125 55.328125 
Q 55.078125 49.078125 51.53125 44.71875 
Q 48 40.375 41.703125 38.8125 
Q 48.828125 37.15625 52.796875 32.3125 
Q 56.78125 27.484375 56.78125 20.515625 
Q 56.78125 9.90625 50.3125 4.234375 
Q 43.84375 -1.421875 31.78125 -1.421875 
Q 19.734375 -1.421875 13.25 4.234375 
Q 6.78125 9.90625 6.78125 20.515625 
Q 6.78125 27.484375 10.78125 32.3125 
Q 14.796875 37.15625 21.921875 38.8125 
z
M 18.3125 54.390625 
Q 18.3125 48.734375 21.84375 45.5625 
Q 25.390625 42.390625 31.78125 42.390625 
Q 38.140625 42.390625 41.71875 45.5625 
Q 45.3125 48.734375 45.3125 54.390625 
Q 45.3125 60.0625 41.71875 63.234375 
Q 38.140625 66.40625 31.78125 66.40625 
Q 25.390625 66.40625 21.84375 63.234375 
Q 18.3125 60.0625 18.3125 54.390625 
z
" id="DejaVuSans-56"/>
       </defs>
       <use xlink:href="#DejaVuSans-48"/>
       <use x="63.623047" xlink:href="#DejaVuSans-46"/>
       <use x="95.410156" xlink:href="#DejaVuSans-56"/>
      </g>
     </g>
    </g>
    <g id="ytick_6">
     <g id="line2d_11">
      <path clip-path="url(#p2e5792bd1b)" d="M 27 33.48 
L 194.4 33.48 
" style="fill:none;stroke:#ffffff;stroke-linecap:round;"/>
     </g>
     <g id="text_12">
      <!-- 1.0 -->
      <g style="fill:#262626;" transform="translate(0.006563 37.659141)scale(0.11 -0.11)">
       <use xlink:href="#DejaVuSans-49"/>
       <use x="63.623047" xlink:href="#DejaVuSans-46"/>
       <use x="95.410156" xlink:href="#DejaVuSans-48"/>
      </g>
     </g>
    </g>
    <g id="text_13">
     <!-- density -->
     <g style="fill:#262626;" transform="translate(-6.489063 131.079375)rotate(-90)scale(0.12 -0.12)">
      <defs>
       <path d="M 45.40625 46.390625 
L 45.40625 75.984375 
L 54.390625 75.984375 
L 54.390625 0 
L 45.40625 0 
L 45.40625 8.203125 
Q 42.578125 3.328125 38.25 0.953125 
Q 33.9375 -1.421875 27.875 -1.421875 
Q 17.96875 -1.421875 11.734375 6.484375 
Q 5.515625 14.40625 5.515625 27.296875 
Q 5.515625 40.1875 11.734375 48.09375 
Q 17.96875 56 27.875 56 
Q 33.9375 56 38.25 53.625 
Q 42.578125 51.265625 45.40625 46.390625 
z
M 14.796875 27.296875 
Q 14.796875 17.390625 18.875 11.75 
Q 22.953125 6.109375 30.078125 6.109375 
Q 37.203125 6.109375 41.296875 11.75 
Q 45.40625 17.390625 45.40625 27.296875 
Q 45.40625 37.203125 41.296875 42.84375 
Q 37.203125 48.484375 30.078125 48.484375 
Q 22.953125 48.484375 18.875 42.84375 
Q 14.796875 37.203125 14.796875 27.296875 
z
" id="DejaVuSans-100"/>
       <path d="M 56.203125 29.59375 
L 56.203125 25.203125 
L 14.890625 25.203125 
Q 15.484375 15.921875 20.484375 11.0625 
Q 25.484375 6.203125 34.421875 6.203125 
Q 39.59375 6.203125 44.453125 7.46875 
Q 49.3125 8.734375 54.109375 11.28125 
L 54.109375 2.78125 
Q 49.265625 0.734375 44.1875 -0.34375 
Q 39.109375 -1.421875 33.890625 -1.421875 
Q 20.796875 -1.421875 13.15625 6.1875 
Q 5.515625 13.8125 5.515625 26.8125 
Q 5.515625 40.234375 12.765625 48.109375 
Q 20.015625 56 32.328125 56 
Q 43.359375 56 49.78125 48.890625 
Q 56.203125 41.796875 56.203125 29.59375 
z
M 47.21875 32.234375 
Q 47.125 39.59375 43.09375 43.984375 
Q 39.0625 48.390625 32.421875 48.390625 
Q 24.90625 48.390625 20.390625 44.140625 
Q 15.875 39.890625 15.1875 32.171875 
z
" id="DejaVuSans-101"/>
       <path d="M 54.890625 33.015625 
L 54.890625 0 
L 45.90625 0 
L 45.90625 32.71875 
Q 45.90625 40.484375 42.875 44.328125 
Q 39.84375 48.1875 33.796875 48.1875 
Q 26.515625 48.1875 22.3125 43.546875 
Q 18.109375 38.921875 18.109375 30.90625 
L 18.109375 0 
L 9.078125 0 
L 9.078125 54.6875 
L 18.109375 54.6875 
L 18.109375 46.1875 
Q 21.34375 51.125 25.703125 53.5625 
Q 30.078125 56 35.796875 56 
Q 45.21875 56 50.046875 50.171875 
Q 54.890625 44.34375 54.890625 33.015625 
z
" id="DejaVuSans-110"/>
       <path d="M 44.28125 53.078125 
L 44.28125 44.578125 
Q 40.484375 46.53125 36.375 47.5 
Q 32.28125 48.484375 27.875 48.484375 
Q 21.1875 48.484375 17.84375 46.4375 
Q 14.5 44.390625 14.5 40.28125 
Q 14.5 37.15625 16.890625 35.375 
Q 19.28125 33.59375 26.515625 31.984375 
L 29.59375 31.296875 
Q 39.15625 29.25 43.1875 25.515625 
Q 47.21875 21.78125 47.21875 15.09375 
Q 47.21875 7.46875 41.1875 3.015625 
Q 35.15625 -1.421875 24.609375 -1.421875 
Q 20.21875 -1.421875 15.453125 -0.5625 
Q 10.6875 0.296875 5.421875 2 
L 5.421875 11.28125 
Q 10.40625 8.6875 15.234375 7.390625 
Q 20.0625 6.109375 24.8125 6.109375 
Q 31.15625 6.109375 34.5625 8.28125 
Q 37.984375 10.453125 37.984375 14.40625 
Q 37.984375 18.0625 35.515625 20.015625 
Q 33.0625 21.96875 24.703125 23.78125 
L 21.578125 24.515625 
Q 13.234375 26.265625 9.515625 29.90625 
Q 5.8125 33.546875 5.8125 39.890625 
Q 5.8125 47.609375 11.28125 51.796875 
Q 16.75 56 26.8125 56 
Q 31.78125 56 36.171875 55.265625 
Q 40.578125 54.546875 44.28125 53.078125 
z
" id="DejaVuSans-115"/>
       <path d="M 9.421875 54.6875 
L 18.40625 54.6875 
L 18.40625 0 
L 9.421875 0 
z
M 9.421875 75.984375 
L 18.40625 75.984375 
L 18.40625 64.59375 
L 9.421875 64.59375 
z
" id="DejaVuSans-105"/>
       <path d="M 18.3125 70.21875 
L 18.3125 54.6875 
L 36.8125 54.6875 
L 36.8125 47.703125 
L 18.3125 47.703125 
L 18.3125 18.015625 
Q 18.3125 11.328125 20.140625 9.421875 
Q 21.96875 7.515625 27.59375 7.515625 
L 36.8125 7.515625 
L 36.8125 0 
L 27.59375 0 
Q 17.1875 0 13.234375 3.875 
Q 9.28125 7.765625 9.28125 18.015625 
L 9.28125 47.703125 
L 2.6875 47.703125 
L 2.6875 54.6875 
L 9.28125 54.6875 
L 9.28125 70.21875 
z
" id="DejaVuSans-116"/>
       <path d="M 32.171875 -5.078125 
Q 28.375 -14.84375 24.75 -17.8125 
Q 21.140625 -20.796875 15.09375 -20.796875 
L 7.90625 -20.796875 
L 7.90625 -13.28125 
L 13.1875 -13.28125 
Q 16.890625 -13.28125 18.9375 -11.515625 
Q 21 -9.765625 23.484375 -3.21875 
L 25.09375 0.875 
L 2.984375 54.6875 
L 12.5 54.6875 
L 29.59375 11.921875 
L 46.6875 54.6875 
L 56.203125 54.6875 
z
" id="DejaVuSans-121"/>
      </defs>
      <use xlink:href="#DejaVuSans-100"/>
      <use x="63.476562" xlink:href="#DejaVuSans-101"/>
      <use x="125" xlink:href="#DejaVuSans-110"/>
      <use x="188.378906" xlink:href="#DejaVuSans-115"/>
      <use x="240.478516" xlink:href="#DejaVuSans-105"/>
      <use x="268.261719" xlink:href="#DejaVuSans-116"/>
      <use x="307.470703" xlink:href="#DejaVuSans-121"/>
     </g>
    </g>
   </g>
   <g id="PolyCollection_1">
    <defs>
     <path d="M 34.609091 -31.32 
L 34.609091 -182.52 
L 34.761425 -182.52 
L 34.913759 -182.52 
L 35.066093 -182.52 
L 35.218428 -182.52 
L 35.370762 -182.52 
L 35.523096 -182.52 
L 35.67543 -182.52 
L 35.827764 -182.52 
L 35.980098 -182.52 
L 36.132432 -182.52 
L 36.284767 -182.52 
L 36.437101 -182.52 
L 36.589435 -182.52 
L 36.741769 -182.52 
L 36.894103 -182.52 
L 37.046437 -182.52 
L 37.198771 -182.52 
L 37.351106 -182.52 
L 37.50344 -182.52 
L 37.655774 -182.52 
L 37.808108 -182.52 
L 37.960442 -182.52 
L 38.112776 -182.52 
L 38.265111 -182.52 
L 38.417445 -182.52 
L 38.569779 -182.52 
L 38.722113 -182.52 
L 38.874447 -182.52 
L 39.026781 -182.52 
L 39.179115 -182.52 
L 39.33145 -182.52 
L 39.483784 -182.52 
L 39.636118 -182.52 
L 39.788452 -182.52 
L 39.940786 -182.52 
L 40.09312 -182.52 
L 40.245455 -182.52 
L 40.397789 -182.52 
L 40.550123 -182.52 
L 40.702457 -182.52 
L 40.854791 -182.52 
L 41.007125 -182.52 
L 41.159459 -182.52 
L 41.311794 -182.52 
L 41.464128 -182.52 
L 41.616462 -182.52 
L 41.768796 -182.52 
L 41.92113 -182.52 
L 42.073464 -182.52 
L 42.225799 -182.52 
L 42.378133 -182.52 
L 42.530467 -182.52 
L 42.682801 -182.52 
L 42.835135 -182.52 
L 42.987469 -182.52 
L 43.139803 -182.52 
L 43.292138 -182.52 
L 43.444472 -182.52 
L 43.596806 -182.52 
L 43.74914 -182.52 
L 43.901474 -182.52 
L 44.053808 -182.52 
L 44.206143 -182.52 
L 44.358477 -182.52 
L 44.510811 -182.52 
L 44.663145 -182.52 
L 44.815479 -182.52 
L 44.967813 -182.52 
L 45.120147 -182.52 
L 45.272482 -182.52 
L 45.424816 -182.52 
L 45.57715 -182.52 
L 45.729484 -182.52 
L 45.881818 -182.52 
L 46.034152 -182.52 
L 46.186486 -182.52 
L 46.338821 -182.52 
L 46.491155 -182.52 
L 46.643489 -182.52 
L 46.795823 -182.52 
L 46.948157 -182.52 
L 47.100491 -182.52 
L 47.252826 -182.52 
L 47.40516 -182.52 
L 47.557494 -182.52 
L 47.709828 -182.52 
L 47.862162 -182.52 
L 48.014496 -182.52 
L 48.16683 -182.52 
L 48.319165 -182.52 
L 48.471499 -182.52 
L 48.623833 -182.52 
L 48.776167 -182.52 
L 48.928501 -182.52 
L 49.080835 -182.52 
L 49.23317 -182.52 
L 49.385504 -182.52 
L 49.537838 -182.52 
L 49.690172 -182.52 
L 49.842506 -182.52 
L 49.99484 -182.52 
L 50.147174 -182.52 
L 50.299509 -182.52 
L 50.451843 -182.52 
L 50.604177 -182.52 
L 50.756511 -182.52 
L 50.908845 -182.52 
L 51.061179 -182.52 
L 51.213514 -182.52 
L 51.365848 -182.52 
L 51.518182 -182.52 
L 51.670516 -182.52 
L 51.82285 -182.52 
L 51.975184 -182.52 
L 52.127518 -182.52 
L 52.279853 -182.52 
L 52.432187 -182.52 
L 52.584521 -182.52 
L 52.736855 -182.52 
L 52.889189 -182.52 
L 53.041523 -182.52 
L 53.193857 -182.52 
L 53.346192 -182.52 
L 53.498526 -182.52 
L 53.65086 -182.52 
L 53.803194 -182.52 
L 53.955528 -182.52 
L 54.107862 -182.52 
L 54.260197 -182.52 
L 54.412531 -182.52 
L 54.564865 -182.52 
L 54.717199 -182.52 
L 54.869533 -182.52 
L 55.021867 -182.52 
L 55.174201 -182.52 
L 55.326536 -182.52 
L 55.47887 -182.52 
L 55.631204 -182.52 
L 55.783538 -182.52 
L 55.935872 -182.52 
L 56.088206 -182.52 
L 56.240541 -182.52 
L 56.392875 -182.52 
L 56.545209 -182.52 
L 56.697543 -182.52 
L 56.849877 -182.52 
L 57.002211 -182.52 
L 57.154545 -182.52 
L 57.30688 -182.52 
L 57.459214 -182.52 
L 57.611548 -182.52 
L 57.763882 -182.52 
L 57.916216 -182.52 
L 58.06855 -182.52 
L 58.220885 -182.52 
L 58.373219 -182.52 
L 58.525553 -182.52 
L 58.677887 -182.52 
L 58.830221 -182.52 
L 58.982555 -182.52 
L 59.134889 -182.52 
L 59.287224 -182.52 
L 59.439558 -182.52 
L 59.591892 -182.52 
L 59.744226 -182.52 
L 59.89656 -182.52 
L 60.048894 -182.52 
L 60.201229 -182.52 
L 60.353563 -182.52 
L 60.505897 -182.52 
L 60.658231 -182.52 
L 60.810565 -182.52 
L 60.962899 -182.52 
L 61.115233 -182.52 
L 61.267568 -182.52 
L 61.419902 -182.52 
L 61.572236 -182.52 
L 61.72457 -182.52 
L 61.876904 -182.52 
L 62.029238 -182.52 
L 62.181572 -182.52 
L 62.333907 -182.52 
L 62.486241 -182.52 
L 62.638575 -182.52 
L 62.790909 -182.52 
L 62.943243 -182.52 
L 63.095577 -182.52 
L 63.247912 -182.52 
L 63.400246 -182.52 
L 63.55258 -182.52 
L 63.704914 -182.52 
L 63.857248 -182.52 
L 64.009582 -182.52 
L 64.161916 -182.52 
L 64.314251 -182.52 
L 64.466585 -182.52 
L 64.618919 -182.52 
L 64.771253 -182.52 
L 64.923587 -182.52 
L 65.075921 -182.52 
L 65.228256 -182.52 
L 65.38059 -182.52 
L 65.532924 -182.52 
L 65.685258 -182.52 
L 65.837592 -182.52 
L 65.989926 -182.52 
L 66.14226 -182.52 
L 66.294595 -182.52 
L 66.446929 -182.52 
L 66.599263 -182.52 
L 66.751597 -182.52 
L 66.903931 -182.52 
L 67.056265 -182.52 
L 67.2086 -182.52 
L 67.360934 -182.52 
L 67.513268 -182.52 
L 67.665602 -182.52 
L 67.817936 -182.52 
L 67.97027 -182.52 
L 68.122604 -182.52 
L 68.274939 -182.52 
L 68.427273 -182.52 
L 68.579607 -182.52 
L 68.731941 -182.52 
L 68.884275 -182.52 
L 69.036609 -182.52 
L 69.188943 -182.52 
L 69.341278 -182.52 
L 69.493612 -182.52 
L 69.645946 -182.52 
L 69.79828 -182.52 
L 69.950614 -182.52 
L 70.102948 -182.52 
L 70.255283 -182.52 
L 70.407617 -182.52 
L 70.559951 -182.52 
L 70.712285 -182.52 
L 70.864619 -182.52 
L 71.016953 -182.52 
L 71.169287 -182.52 
L 71.321622 -182.52 
L 71.473956 -182.52 
L 71.62629 -182.52 
L 71.778624 -182.52 
L 71.930958 -182.52 
L 72.083292 -182.52 
L 72.235627 -182.52 
L 72.387961 -182.52 
L 72.540295 -182.52 
L 72.692629 -182.52 
L 72.844963 -182.52 
L 72.997297 -182.52 
L 73.149631 -182.52 
L 73.301966 -182.52 
L 73.4543 -182.52 
L 73.606634 -182.52 
L 73.758968 -182.52 
L 73.911302 -182.52 
L 74.063636 -182.52 
L 74.215971 -182.52 
L 74.368305 -182.52 
L 74.520639 -182.52 
L 74.672973 -182.52 
L 74.825307 -182.52 
L 74.977641 -182.52 
L 75.129975 -182.52 
L 75.28231 -182.52 
L 75.434644 -182.52 
L 75.586978 -182.52 
L 75.739312 -182.52 
L 75.891646 -182.52 
L 76.04398 -182.52 
L 76.196314 -182.52 
L 76.348649 -182.52 
L 76.500983 -182.52 
L 76.653317 -182.52 
L 76.805651 -182.52 
L 76.957985 -182.52 
L 77.110319 -182.52 
L 77.262654 -182.52 
L 77.414988 -182.52 
L 77.567322 -182.52 
L 77.719656 -182.52 
L 77.87199 -182.52 
L 78.024324 -182.52 
L 78.176658 -182.52 
L 78.328993 -182.52 
L 78.481327 -182.52 
L 78.633661 -182.52 
L 78.785995 -182.52 
L 78.938329 -182.52 
L 79.090663 -182.52 
L 79.242998 -182.52 
L 79.395332 -182.52 
L 79.547666 -182.52 
L 79.7 -182.52 
L 79.852334 -182.52 
L 80.004668 -182.52 
L 80.157002 -182.52 
L 80.309337 -182.52 
L 80.461671 -182.52 
L 80.614005 -182.52 
L 80.766339 -182.52 
L 80.918673 -182.52 
L 81.071007 -182.52 
L 81.223342 -182.52 
L 81.375676 -182.52 
L 81.52801 -182.52 
L 81.680344 -182.52 
L 81.832678 -182.52 
L 81.985012 -182.52 
L 82.137346 -182.52 
L 82.289681 -182.52 
L 82.442015 -182.52 
L 82.594349 -182.52 
L 82.746683 -182.52 
L 82.899017 -182.52 
L 83.051351 -182.52 
L 83.203686 -182.52 
L 83.35602 -182.52 
L 83.508354 -182.52 
L 83.660688 -182.52 
L 83.813022 -182.52 
L 83.965356 -182.52 
L 84.11769 -182.52 
L 84.270025 -182.52 
L 84.422359 -182.52 
L 84.574693 -182.52 
L 84.727027 -182.52 
L 84.879361 -182.52 
L 85.031695 -182.52 
L 85.184029 -182.52 
L 85.336364 -182.52 
L 85.488698 -182.52 
L 85.641032 -182.52 
L 85.793366 -182.52 
L 85.9457 -182.52 
L 86.098034 -182.52 
L 86.250369 -182.52 
L 86.402703 -182.52 
L 86.555037 -182.52 
L 86.707371 -182.52 
L 86.859705 -182.52 
L 87.012039 -182.52 
L 87.164373 -182.52 
L 87.316708 -182.52 
L 87.469042 -182.52 
L 87.621376 -182.52 
L 87.77371 -182.52 
L 87.926044 -182.52 
L 88.078378 -182.52 
L 88.230713 -182.52 
L 88.383047 -182.52 
L 88.535381 -182.52 
L 88.687715 -182.52 
L 88.840049 -182.52 
L 88.992383 -182.52 
L 89.144717 -182.52 
L 89.297052 -182.52 
L 89.449386 -182.52 
L 89.60172 -182.52 
L 89.754054 -182.52 
L 89.906388 -182.52 
L 90.058722 -182.52 
L 90.211057 -182.52 
L 90.363391 -182.52 
L 90.515725 -182.52 
L 90.668059 -182.52 
L 90.820393 -182.52 
L 90.972727 -182.52 
L 91.125061 -182.52 
L 91.277396 -182.52 
L 91.42973 -182.52 
L 91.582064 -182.52 
L 91.734398 -182.52 
L 91.886732 -182.52 
L 92.039066 -182.52 
L 92.1914 -182.52 
L 92.343735 -182.52 
L 92.496069 -182.52 
L 92.648403 -182.52 
L 92.800737 -182.52 
L 92.953071 -182.52 
L 93.105405 -182.52 
L 93.25774 -182.52 
L 93.410074 -182.52 
L 93.562408 -182.52 
L 93.714742 -182.52 
L 93.867076 -182.52 
L 94.01941 -182.52 
L 94.171744 -182.52 
L 94.324079 -182.52 
L 94.476413 -182.52 
L 94.628747 -182.52 
L 94.781081 -182.52 
L 94.933415 -182.52 
L 95.085749 -182.52 
L 95.238084 -182.52 
L 95.390418 -182.52 
L 95.542752 -182.52 
L 95.695086 -182.52 
L 95.84742 -182.52 
L 95.999754 -182.52 
L 96.152088 -182.52 
L 96.304423 -182.52 
L 96.456757 -182.52 
L 96.609091 -182.52 
L 96.761425 -182.52 
L 96.913759 -182.52 
L 97.066093 -182.52 
L 97.218428 -182.52 
L 97.370762 -182.52 
L 97.523096 -182.52 
L 97.67543 -182.52 
L 97.827764 -182.52 
L 97.980098 -182.52 
L 98.132432 -182.52 
L 98.284767 -182.52 
L 98.437101 -182.52 
L 98.589435 -182.52 
L 98.741769 -182.52 
L 98.894103 -182.52 
L 99.046437 -182.52 
L 99.198771 -182.52 
L 99.351106 -182.52 
L 99.50344 -182.52 
L 99.655774 -182.52 
L 99.808108 -182.52 
L 99.960442 -182.52 
L 100.112776 -182.52 
L 100.265111 -182.52 
L 100.417445 -182.52 
L 100.569779 -182.52 
L 100.722113 -182.52 
L 100.874447 -182.52 
L 101.026781 -182.52 
L 101.179115 -182.52 
L 101.33145 -182.52 
L 101.483784 -182.52 
L 101.636118 -182.52 
L 101.788452 -182.52 
L 101.940786 -182.52 
L 102.09312 -182.52 
L 102.245455 -182.52 
L 102.397789 -182.52 
L 102.550123 -182.52 
L 102.702457 -182.52 
L 102.854791 -182.52 
L 103.007125 -182.52 
L 103.159459 -182.52 
L 103.311794 -182.52 
L 103.464128 -182.52 
L 103.616462 -182.52 
L 103.768796 -182.52 
L 103.92113 -182.52 
L 104.073464 -182.52 
L 104.225799 -182.52 
L 104.378133 -182.52 
L 104.530467 -182.52 
L 104.682801 -182.52 
L 104.835135 -182.52 
L 104.987469 -182.52 
L 105.139803 -182.52 
L 105.292138 -182.52 
L 105.444472 -182.52 
L 105.596806 -182.52 
L 105.74914 -182.52 
L 105.901474 -182.52 
L 106.053808 -182.52 
L 106.206143 -182.52 
L 106.358477 -182.52 
L 106.510811 -182.52 
L 106.663145 -182.52 
L 106.815479 -182.52 
L 106.967813 -182.52 
L 107.120147 -182.52 
L 107.272482 -182.52 
L 107.424816 -182.52 
L 107.57715 -182.52 
L 107.729484 -182.52 
L 107.881818 -182.52 
L 108.034152 -182.52 
L 108.186486 -182.52 
L 108.338821 -182.52 
L 108.491155 -182.52 
L 108.643489 -182.52 
L 108.795823 -182.52 
L 108.948157 -182.52 
L 109.100491 -182.52 
L 109.252826 -182.52 
L 109.40516 -182.52 
L 109.557494 -182.52 
L 109.709828 -182.52 
L 109.862162 -182.52 
L 110.014496 -182.52 
L 110.16683 -182.52 
L 110.319165 -182.52 
L 110.471499 -182.52 
L 110.623833 -182.52 
L 110.776167 -182.52 
L 110.928501 -182.52 
L 111.080835 -182.52 
L 111.23317 -182.52 
L 111.385504 -182.52 
L 111.537838 -182.52 
L 111.690172 -182.52 
L 111.842506 -182.52 
L 111.99484 -182.52 
L 112.147174 -182.52 
L 112.299509 -182.52 
L 112.451843 -182.52 
L 112.604177 -182.52 
L 112.756511 -182.52 
L 112.908845 -182.52 
L 113.061179 -182.52 
L 113.213514 -182.52 
L 113.365848 -182.52 
L 113.518182 -182.52 
L 113.670516 -182.52 
L 113.82285 -182.52 
L 113.975184 -182.52 
L 114.127518 -182.52 
L 114.279853 -182.52 
L 114.432187 -182.52 
L 114.584521 -182.52 
L 114.736855 -182.52 
L 114.889189 -182.52 
L 115.041523 -182.52 
L 115.193857 -182.52 
L 115.346192 -182.52 
L 115.498526 -182.52 
L 115.65086 -182.52 
L 115.803194 -182.52 
L 115.955528 -182.52 
L 116.107862 -182.52 
L 116.260197 -182.52 
L 116.412531 -182.52 
L 116.564865 -182.52 
L 116.717199 -182.52 
L 116.869533 -182.52 
L 117.021867 -182.52 
L 117.174201 -182.52 
L 117.326536 -182.52 
L 117.47887 -182.52 
L 117.631204 -182.52 
L 117.783538 -182.52 
L 117.935872 -182.52 
L 118.088206 -182.52 
L 118.240541 -182.52 
L 118.392875 -182.52 
L 118.545209 -182.52 
L 118.697543 -182.52 
L 118.849877 -182.52 
L 119.002211 -182.52 
L 119.154545 -182.52 
L 119.30688 -182.52 
L 119.459214 -182.52 
L 119.611548 -182.52 
L 119.763882 -182.52 
L 119.916216 -182.52 
L 120.06855 -182.52 
L 120.220885 -182.52 
L 120.373219 -182.52 
L 120.525553 -182.52 
L 120.677887 -182.52 
L 120.830221 -182.52 
L 120.982555 -182.52 
L 121.134889 -182.52 
L 121.287224 -182.52 
L 121.439558 -182.52 
L 121.591892 -182.52 
L 121.744226 -182.52 
L 121.89656 -182.52 
L 122.048894 -182.52 
L 122.201229 -182.52 
L 122.353563 -182.52 
L 122.505897 -182.52 
L 122.658231 -182.52 
L 122.810565 -182.52 
L 122.962899 -182.52 
L 123.115233 -182.52 
L 123.267568 -182.52 
L 123.419902 -182.52 
L 123.572236 -182.52 
L 123.72457 -182.52 
L 123.876904 -182.52 
L 124.029238 -182.52 
L 124.181572 -182.52 
L 124.333907 -182.52 
L 124.486241 -182.52 
L 124.638575 -182.52 
L 124.790909 -182.52 
L 124.943243 -182.52 
L 125.095577 -182.52 
L 125.247912 -182.52 
L 125.400246 -182.52 
L 125.55258 -182.52 
L 125.704914 -182.52 
L 125.857248 -182.52 
L 126.009582 -182.52 
L 126.161916 -182.52 
L 126.314251 -182.52 
L 126.466585 -182.52 
L 126.618919 -182.52 
L 126.771253 -182.52 
L 126.923587 -182.52 
L 127.075921 -182.52 
L 127.228256 -182.52 
L 127.38059 -182.52 
L 127.532924 -182.52 
L 127.685258 -182.52 
L 127.837592 -182.52 
L 127.989926 -182.52 
L 128.14226 -182.52 
L 128.294595 -182.52 
L 128.446929 -182.52 
L 128.599263 -182.52 
L 128.751597 -182.52 
L 128.903931 -182.52 
L 129.056265 -182.52 
L 129.2086 -182.52 
L 129.360934 -182.52 
L 129.513268 -182.52 
L 129.665602 -182.52 
L 129.817936 -182.52 
L 129.97027 -182.52 
L 130.122604 -182.52 
L 130.274939 -182.52 
L 130.427273 -182.52 
L 130.579607 -182.52 
L 130.731941 -182.52 
L 130.884275 -182.52 
L 131.036609 -182.52 
L 131.188943 -182.52 
L 131.341278 -182.52 
L 131.493612 -182.52 
L 131.645946 -182.52 
L 131.79828 -182.52 
L 131.950614 -182.52 
L 132.102948 -182.52 
L 132.255283 -182.52 
L 132.407617 -182.52 
L 132.559951 -182.52 
L 132.712285 -182.52 
L 132.864619 -182.52 
L 133.016953 -182.52 
L 133.169287 -182.52 
L 133.321622 -182.52 
L 133.473956 -182.52 
L 133.62629 -182.52 
L 133.778624 -182.52 
L 133.930958 -182.52 
L 134.083292 -182.52 
L 134.235627 -182.52 
L 134.387961 -182.52 
L 134.540295 -182.52 
L 134.692629 -182.52 
L 134.844963 -182.52 
L 134.997297 -182.52 
L 135.149631 -182.52 
L 135.301966 -182.52 
L 135.4543 -182.52 
L 135.606634 -182.52 
L 135.758968 -182.52 
L 135.911302 -182.52 
L 136.063636 -182.52 
L 136.215971 -182.52 
L 136.368305 -182.52 
L 136.520639 -182.52 
L 136.672973 -182.52 
L 136.825307 -182.52 
L 136.977641 -182.52 
L 137.129975 -182.52 
L 137.28231 -182.52 
L 137.434644 -182.52 
L 137.586978 -182.52 
L 137.739312 -182.52 
L 137.891646 -182.52 
L 138.04398 -182.52 
L 138.196314 -182.52 
L 138.348649 -182.52 
L 138.500983 -182.52 
L 138.653317 -182.52 
L 138.805651 -182.52 
L 138.957985 -182.52 
L 139.110319 -182.52 
L 139.262654 -182.52 
L 139.414988 -182.52 
L 139.567322 -182.52 
L 139.719656 -182.52 
L 139.87199 -182.52 
L 140.024324 -182.52 
L 140.176658 -182.52 
L 140.328993 -182.52 
L 140.481327 -182.52 
L 140.633661 -182.52 
L 140.785995 -182.52 
L 140.938329 -182.52 
L 141.090663 -182.52 
L 141.242998 -182.52 
L 141.395332 -182.52 
L 141.547666 -182.52 
L 141.7 -182.52 
L 141.852334 -182.52 
L 142.004668 -182.52 
L 142.157002 -182.52 
L 142.309337 -182.52 
L 142.461671 -182.52 
L 142.614005 -182.52 
L 142.766339 -182.52 
L 142.918673 -182.52 
L 143.071007 -182.52 
L 143.223342 -182.52 
L 143.375676 -182.52 
L 143.52801 -182.52 
L 143.680344 -182.52 
L 143.832678 -182.52 
L 143.985012 -182.52 
L 144.137346 -182.52 
L 144.289681 -182.52 
L 144.442015 -182.52 
L 144.594349 -182.52 
L 144.746683 -182.52 
L 144.899017 -182.52 
L 145.051351 -182.52 
L 145.203686 -182.52 
L 145.35602 -182.52 
L 145.508354 -182.52 
L 145.660688 -182.52 
L 145.813022 -182.52 
L 145.965356 -182.52 
L 146.11769 -182.52 
L 146.270025 -182.52 
L 146.422359 -182.52 
L 146.574693 -182.52 
L 146.727027 -182.52 
L 146.879361 -182.52 
L 147.031695 -182.52 
L 147.184029 -182.52 
L 147.336364 -182.52 
L 147.488698 -182.52 
L 147.641032 -182.52 
L 147.793366 -182.52 
L 147.9457 -182.52 
L 148.098034 -182.52 
L 148.250369 -182.52 
L 148.402703 -182.52 
L 148.555037 -182.52 
L 148.707371 -182.52 
L 148.859705 -182.52 
L 149.012039 -182.52 
L 149.164373 -182.52 
L 149.316708 -182.52 
L 149.469042 -182.52 
L 149.621376 -182.52 
L 149.77371 -182.52 
L 149.926044 -182.52 
L 150.078378 -182.52 
L 150.230713 -182.52 
L 150.383047 -182.52 
L 150.535381 -182.52 
L 150.687715 -182.52 
L 150.840049 -182.52 
L 150.992383 -182.52 
L 151.144717 -182.52 
L 151.297052 -182.52 
L 151.449386 -182.52 
L 151.60172 -182.52 
L 151.754054 -182.52 
L 151.906388 -182.52 
L 152.058722 -182.52 
L 152.211057 -182.52 
L 152.363391 -182.52 
L 152.515725 -182.52 
L 152.668059 -182.52 
L 152.820393 -182.52 
L 152.972727 -182.52 
L 153.125061 -182.52 
L 153.277396 -182.52 
L 153.42973 -182.52 
L 153.582064 -182.52 
L 153.734398 -182.52 
L 153.886732 -182.52 
L 154.039066 -182.52 
L 154.1914 -182.52 
L 154.343735 -182.52 
L 154.496069 -182.52 
L 154.648403 -182.52 
L 154.800737 -182.52 
L 154.953071 -182.52 
L 155.105405 -182.52 
L 155.25774 -182.52 
L 155.410074 -182.52 
L 155.562408 -182.52 
L 155.714742 -182.52 
L 155.867076 -182.52 
L 156.01941 -182.52 
L 156.171744 -182.52 
L 156.324079 -182.52 
L 156.476413 -182.52 
L 156.628747 -182.52 
L 156.781081 -182.52 
L 156.933415 -182.52 
L 157.085749 -182.52 
L 157.238084 -182.52 
L 157.390418 -182.52 
L 157.542752 -182.52 
L 157.695086 -182.52 
L 157.84742 -182.52 
L 157.999754 -182.52 
L 158.152088 -182.52 
L 158.304423 -182.52 
L 158.456757 -182.52 
L 158.609091 -182.52 
L 158.761425 -182.52 
L 158.913759 -182.52 
L 159.066093 -182.52 
L 159.218428 -182.52 
L 159.370762 -182.52 
L 159.523096 -182.52 
L 159.67543 -182.52 
L 159.827764 -182.52 
L 159.980098 -182.52 
L 160.132432 -182.52 
L 160.284767 -182.52 
L 160.437101 -182.52 
L 160.589435 -182.52 
L 160.741769 -182.52 
L 160.894103 -182.52 
L 161.046437 -182.52 
L 161.198771 -182.52 
L 161.351106 -182.52 
L 161.50344 -182.52 
L 161.655774 -182.52 
L 161.808108 -182.52 
L 161.960442 -182.52 
L 162.112776 -182.52 
L 162.265111 -182.52 
L 162.417445 -182.52 
L 162.569779 -182.52 
L 162.722113 -182.52 
L 162.874447 -182.52 
L 163.026781 -182.52 
L 163.179115 -182.52 
L 163.33145 -182.52 
L 163.483784 -182.52 
L 163.636118 -182.52 
L 163.788452 -182.52 
L 163.940786 -182.52 
L 164.09312 -182.52 
L 164.245455 -182.52 
L 164.397789 -182.52 
L 164.550123 -182.52 
L 164.702457 -182.52 
L 164.854791 -182.52 
L 165.007125 -182.52 
L 165.159459 -182.52 
L 165.311794 -182.52 
L 165.464128 -182.52 
L 165.616462 -182.52 
L 165.768796 -182.52 
L 165.92113 -182.52 
L 166.073464 -182.52 
L 166.225799 -182.52 
L 166.378133 -182.52 
L 166.530467 -182.52 
L 166.682801 -182.52 
L 166.835135 -182.52 
L 166.987469 -182.52 
L 167.139803 -182.52 
L 167.292138 -182.52 
L 167.444472 -182.52 
L 167.596806 -182.52 
L 167.74914 -182.52 
L 167.901474 -182.52 
L 168.053808 -182.52 
L 168.206143 -182.52 
L 168.358477 -182.52 
L 168.510811 -182.52 
L 168.663145 -182.52 
L 168.815479 -182.52 
L 168.967813 -182.52 
L 169.120147 -182.52 
L 169.272482 -182.52 
L 169.424816 -182.52 
L 169.57715 -182.52 
L 169.729484 -182.52 
L 169.881818 -182.52 
L 170.034152 -182.52 
L 170.186486 -182.52 
L 170.338821 -182.52 
L 170.491155 -182.52 
L 170.643489 -182.52 
L 170.795823 -182.52 
L 170.948157 -182.52 
L 171.100491 -182.52 
L 171.252826 -182.52 
L 171.40516 -182.52 
L 171.557494 -182.52 
L 171.709828 -182.52 
L 171.862162 -182.52 
L 172.014496 -182.52 
L 172.16683 -182.52 
L 172.319165 -182.52 
L 172.471499 -182.52 
L 172.623833 -182.52 
L 172.776167 -182.52 
L 172.928501 -182.52 
L 173.080835 -182.52 
L 173.23317 -182.52 
L 173.385504 -182.52 
L 173.537838 -182.52 
L 173.690172 -182.52 
L 173.842506 -182.52 
L 173.99484 -182.52 
L 174.147174 -182.52 
L 174.299509 -182.52 
L 174.451843 -182.52 
L 174.604177 -182.52 
L 174.756511 -182.52 
L 174.908845 -182.52 
L 175.061179 -182.52 
L 175.213514 -182.52 
L 175.365848 -182.52 
L 175.518182 -182.52 
L 175.670516 -182.52 
L 175.82285 -182.52 
L 175.975184 -182.52 
L 176.127518 -182.52 
L 176.279853 -182.52 
L 176.432187 -182.52 
L 176.584521 -182.52 
L 176.736855 -182.52 
L 176.889189 -182.52 
L 177.041523 -182.52 
L 177.193857 -182.52 
L 177.346192 -182.52 
L 177.498526 -182.52 
L 177.65086 -182.52 
L 177.803194 -182.52 
L 177.955528 -182.52 
L 178.107862 -182.52 
L 178.260197 -182.52 
L 178.412531 -182.52 
L 178.564865 -182.52 
L 178.717199 -182.52 
L 178.869533 -182.52 
L 179.021867 -182.52 
L 179.174201 -182.52 
L 179.326536 -182.52 
L 179.47887 -182.52 
L 179.631204 -182.52 
L 179.783538 -182.52 
L 179.935872 -182.52 
L 180.088206 -182.52 
L 180.240541 -182.52 
L 180.392875 -182.52 
L 180.545209 -182.52 
L 180.697543 -182.52 
L 180.849877 -182.52 
L 181.002211 -182.52 
L 181.154545 -182.52 
L 181.30688 -182.52 
L 181.459214 -182.52 
L 181.611548 -182.52 
L 181.763882 -182.52 
L 181.916216 -182.52 
L 182.06855 -182.52 
L 182.220885 -182.52 
L 182.373219 -182.52 
L 182.525553 -182.52 
L 182.677887 -182.52 
L 182.830221 -182.52 
L 182.982555 -182.52 
L 183.134889 -182.52 
L 183.287224 -182.52 
L 183.439558 -182.52 
L 183.591892 -182.52 
L 183.744226 -182.52 
L 183.89656 -182.52 
L 184.048894 -182.52 
L 184.201229 -182.52 
L 184.353563 -182.52 
L 184.505897 -182.52 
L 184.658231 -182.52 
L 184.810565 -182.52 
L 184.962899 -182.52 
L 185.115233 -182.52 
L 185.267568 -182.52 
L 185.419902 -182.52 
L 185.572236 -182.52 
L 185.72457 -182.52 
L 185.876904 -182.52 
L 186.029238 -182.52 
L 186.181572 -182.52 
L 186.333907 -182.52 
L 186.486241 -182.52 
L 186.638575 -182.52 
L 186.790909 -182.52 
L 186.790909 -31.32 
L 186.790909 -31.32 
L 186.638575 -31.32 
L 186.486241 -31.32 
L 186.333907 -31.32 
L 186.181572 -31.32 
L 186.029238 -31.32 
L 185.876904 -31.32 
L 185.72457 -31.32 
L 185.572236 -31.32 
L 185.419902 -31.32 
L 185.267568 -31.32 
L 185.115233 -31.32 
L 184.962899 -31.32 
L 184.810565 -31.32 
L 184.658231 -31.32 
L 184.505897 -31.32 
L 184.353563 -31.32 
L 184.201229 -31.32 
L 184.048894 -31.32 
L 183.89656 -31.32 
L 183.744226 -31.32 
L 183.591892 -31.32 
L 183.439558 -31.32 
L 183.287224 -31.32 
L 183.134889 -31.32 
L 182.982555 -31.32 
L 182.830221 -31.32 
L 182.677887 -31.32 
L 182.525553 -31.32 
L 182.373219 -31.32 
L 182.220885 -31.32 
L 182.06855 -31.32 
L 181.916216 -31.32 
L 181.763882 -31.32 
L 181.611548 -31.32 
L 181.459214 -31.32 
L 181.30688 -31.32 
L 181.154545 -31.32 
L 181.002211 -31.32 
L 180.849877 -31.32 
L 180.697543 -31.32 
L 180.545209 -31.32 
L 180.392875 -31.32 
L 180.240541 -31.32 
L 180.088206 -31.32 
L 179.935872 -31.32 
L 179.783538 -31.32 
L 179.631204 -31.32 
L 179.47887 -31.32 
L 179.326536 -31.32 
L 179.174201 -31.32 
L 179.021867 -31.32 
L 178.869533 -31.32 
L 178.717199 -31.32 
L 178.564865 -31.32 
L 178.412531 -31.32 
L 178.260197 -31.32 
L 178.107862 -31.32 
L 177.955528 -31.32 
L 177.803194 -31.32 
L 177.65086 -31.32 
L 177.498526 -31.32 
L 177.346192 -31.32 
L 177.193857 -31.32 
L 177.041523 -31.32 
L 176.889189 -31.32 
L 176.736855 -31.32 
L 176.584521 -31.32 
L 176.432187 -31.32 
L 176.279853 -31.32 
L 176.127518 -31.32 
L 175.975184 -31.32 
L 175.82285 -31.32 
L 175.670516 -31.32 
L 175.518182 -31.32 
L 175.365848 -31.32 
L 175.213514 -31.32 
L 175.061179 -31.32 
L 174.908845 -31.32 
L 174.756511 -31.32 
L 174.604177 -31.32 
L 174.451843 -31.32 
L 174.299509 -31.32 
L 174.147174 -31.32 
L 173.99484 -31.32 
L 173.842506 -31.32 
L 173.690172 -31.32 
L 173.537838 -31.32 
L 173.385504 -31.32 
L 173.23317 -31.32 
L 173.080835 -31.32 
L 172.928501 -31.32 
L 172.776167 -31.32 
L 172.623833 -31.32 
L 172.471499 -31.32 
L 172.319165 -31.32 
L 172.16683 -31.32 
L 172.014496 -31.32 
L 171.862162 -31.32 
L 171.709828 -31.32 
L 171.557494 -31.32 
L 171.40516 -31.32 
L 171.252826 -31.32 
L 171.100491 -31.32 
L 170.948157 -31.32 
L 170.795823 -31.32 
L 170.643489 -31.32 
L 170.491155 -31.32 
L 170.338821 -31.32 
L 170.186486 -31.32 
L 170.034152 -31.32 
L 169.881818 -31.32 
L 169.729484 -31.32 
L 169.57715 -31.32 
L 169.424816 -31.32 
L 169.272482 -31.32 
L 169.120147 -31.32 
L 168.967813 -31.32 
L 168.815479 -31.32 
L 168.663145 -31.32 
L 168.510811 -31.32 
L 168.358477 -31.32 
L 168.206143 -31.32 
L 168.053808 -31.32 
L 167.901474 -31.32 
L 167.74914 -31.32 
L 167.596806 -31.32 
L 167.444472 -31.32 
L 167.292138 -31.32 
L 167.139803 -31.32 
L 166.987469 -31.32 
L 166.835135 -31.32 
L 166.682801 -31.32 
L 166.530467 -31.32 
L 166.378133 -31.32 
L 166.225799 -31.32 
L 166.073464 -31.32 
L 165.92113 -31.32 
L 165.768796 -31.32 
L 165.616462 -31.32 
L 165.464128 -31.32 
L 165.311794 -31.32 
L 165.159459 -31.32 
L 165.007125 -31.32 
L 164.854791 -31.32 
L 164.702457 -31.32 
L 164.550123 -31.32 
L 164.397789 -31.32 
L 164.245455 -31.32 
L 164.09312 -31.32 
L 163.940786 -31.32 
L 163.788452 -31.32 
L 163.636118 -31.32 
L 163.483784 -31.32 
L 163.33145 -31.32 
L 163.179115 -31.32 
L 163.026781 -31.32 
L 162.874447 -31.32 
L 162.722113 -31.32 
L 162.569779 -31.32 
L 162.417445 -31.32 
L 162.265111 -31.32 
L 162.112776 -31.32 
L 161.960442 -31.32 
L 161.808108 -31.32 
L 161.655774 -31.32 
L 161.50344 -31.32 
L 161.351106 -31.32 
L 161.198771 -31.32 
L 161.046437 -31.32 
L 160.894103 -31.32 
L 160.741769 -31.32 
L 160.589435 -31.32 
L 160.437101 -31.32 
L 160.284767 -31.32 
L 160.132432 -31.32 
L 159.980098 -31.32 
L 159.827764 -31.32 
L 159.67543 -31.32 
L 159.523096 -31.32 
L 159.370762 -31.32 
L 159.218428 -31.32 
L 159.066093 -31.32 
L 158.913759 -31.32 
L 158.761425 -31.32 
L 158.609091 -31.32 
L 158.456757 -31.32 
L 158.304423 -31.32 
L 158.152088 -31.32 
L 157.999754 -31.32 
L 157.84742 -31.32 
L 157.695086 -31.32 
L 157.542752 -31.32 
L 157.390418 -31.32 
L 157.238084 -31.32 
L 157.085749 -31.32 
L 156.933415 -31.32 
L 156.781081 -31.32 
L 156.628747 -31.32 
L 156.476413 -31.32 
L 156.324079 -31.32 
L 156.171744 -31.32 
L 156.01941 -31.32 
L 155.867076 -31.32 
L 155.714742 -31.32 
L 155.562408 -31.32 
L 155.410074 -31.32 
L 155.25774 -31.32 
L 155.105405 -31.32 
L 154.953071 -31.32 
L 154.800737 -31.32 
L 154.648403 -31.32 
L 154.496069 -31.32 
L 154.343735 -31.32 
L 154.1914 -31.32 
L 154.039066 -31.32 
L 153.886732 -31.32 
L 153.734398 -31.32 
L 153.582064 -31.32 
L 153.42973 -31.32 
L 153.277396 -31.32 
L 153.125061 -31.32 
L 152.972727 -31.32 
L 152.820393 -31.32 
L 152.668059 -31.32 
L 152.515725 -31.32 
L 152.363391 -31.32 
L 152.211057 -31.32 
L 152.058722 -31.32 
L 151.906388 -31.32 
L 151.754054 -31.32 
L 151.60172 -31.32 
L 151.449386 -31.32 
L 151.297052 -31.32 
L 151.144717 -31.32 
L 150.992383 -31.32 
L 150.840049 -31.32 
L 150.687715 -31.32 
L 150.535381 -31.32 
L 150.383047 -31.32 
L 150.230713 -31.32 
L 150.078378 -31.32 
L 149.926044 -31.32 
L 149.77371 -31.32 
L 149.621376 -31.32 
L 149.469042 -31.32 
L 149.316708 -31.32 
L 149.164373 -31.32 
L 149.012039 -31.32 
L 148.859705 -31.32 
L 148.707371 -31.32 
L 148.555037 -31.32 
L 148.402703 -31.32 
L 148.250369 -31.32 
L 148.098034 -31.32 
L 147.9457 -31.32 
L 147.793366 -31.32 
L 147.641032 -31.32 
L 147.488698 -31.32 
L 147.336364 -31.32 
L 147.184029 -31.32 
L 147.031695 -31.32 
L 146.879361 -31.32 
L 146.727027 -31.32 
L 146.574693 -31.32 
L 146.422359 -31.32 
L 146.270025 -31.32 
L 146.11769 -31.32 
L 145.965356 -31.32 
L 145.813022 -31.32 
L 145.660688 -31.32 
L 145.508354 -31.32 
L 145.35602 -31.32 
L 145.203686 -31.32 
L 145.051351 -31.32 
L 144.899017 -31.32 
L 144.746683 -31.32 
L 144.594349 -31.32 
L 144.442015 -31.32 
L 144.289681 -31.32 
L 144.137346 -31.32 
L 143.985012 -31.32 
L 143.832678 -31.32 
L 143.680344 -31.32 
L 143.52801 -31.32 
L 143.375676 -31.32 
L 143.223342 -31.32 
L 143.071007 -31.32 
L 142.918673 -31.32 
L 142.766339 -31.32 
L 142.614005 -31.32 
L 142.461671 -31.32 
L 142.309337 -31.32 
L 142.157002 -31.32 
L 142.004668 -31.32 
L 141.852334 -31.32 
L 141.7 -31.32 
L 141.547666 -31.32 
L 141.395332 -31.32 
L 141.242998 -31.32 
L 141.090663 -31.32 
L 140.938329 -31.32 
L 140.785995 -31.32 
L 140.633661 -31.32 
L 140.481327 -31.32 
L 140.328993 -31.32 
L 140.176658 -31.32 
L 140.024324 -31.32 
L 139.87199 -31.32 
L 139.719656 -31.32 
L 139.567322 -31.32 
L 139.414988 -31.32 
L 139.262654 -31.32 
L 139.110319 -31.32 
L 138.957985 -31.32 
L 138.805651 -31.32 
L 138.653317 -31.32 
L 138.500983 -31.32 
L 138.348649 -31.32 
L 138.196314 -31.32 
L 138.04398 -31.32 
L 137.891646 -31.32 
L 137.739312 -31.32 
L 137.586978 -31.32 
L 137.434644 -31.32 
L 137.28231 -31.32 
L 137.129975 -31.32 
L 136.977641 -31.32 
L 136.825307 -31.32 
L 136.672973 -31.32 
L 136.520639 -31.32 
L 136.368305 -31.32 
L 136.215971 -31.32 
L 136.063636 -31.32 
L 135.911302 -31.32 
L 135.758968 -31.32 
L 135.606634 -31.32 
L 135.4543 -31.32 
L 135.301966 -31.32 
L 135.149631 -31.32 
L 134.997297 -31.32 
L 134.844963 -31.32 
L 134.692629 -31.32 
L 134.540295 -31.32 
L 134.387961 -31.32 
L 134.235627 -31.32 
L 134.083292 -31.32 
L 133.930958 -31.32 
L 133.778624 -31.32 
L 133.62629 -31.32 
L 133.473956 -31.32 
L 133.321622 -31.32 
L 133.169287 -31.32 
L 133.016953 -31.32 
L 132.864619 -31.32 
L 132.712285 -31.32 
L 132.559951 -31.32 
L 132.407617 -31.32 
L 132.255283 -31.32 
L 132.102948 -31.32 
L 131.950614 -31.32 
L 131.79828 -31.32 
L 131.645946 -31.32 
L 131.493612 -31.32 
L 131.341278 -31.32 
L 131.188943 -31.32 
L 131.036609 -31.32 
L 130.884275 -31.32 
L 130.731941 -31.32 
L 130.579607 -31.32 
L 130.427273 -31.32 
L 130.274939 -31.32 
L 130.122604 -31.32 
L 129.97027 -31.32 
L 129.817936 -31.32 
L 129.665602 -31.32 
L 129.513268 -31.32 
L 129.360934 -31.32 
L 129.2086 -31.32 
L 129.056265 -31.32 
L 128.903931 -31.32 
L 128.751597 -31.32 
L 128.599263 -31.32 
L 128.446929 -31.32 
L 128.294595 -31.32 
L 128.14226 -31.32 
L 127.989926 -31.32 
L 127.837592 -31.32 
L 127.685258 -31.32 
L 127.532924 -31.32 
L 127.38059 -31.32 
L 127.228256 -31.32 
L 127.075921 -31.32 
L 126.923587 -31.32 
L 126.771253 -31.32 
L 126.618919 -31.32 
L 126.466585 -31.32 
L 126.314251 -31.32 
L 126.161916 -31.32 
L 126.009582 -31.32 
L 125.857248 -31.32 
L 125.704914 -31.32 
L 125.55258 -31.32 
L 125.400246 -31.32 
L 125.247912 -31.32 
L 125.095577 -31.32 
L 124.943243 -31.32 
L 124.790909 -31.32 
L 124.638575 -31.32 
L 124.486241 -31.32 
L 124.333907 -31.32 
L 124.181572 -31.32 
L 124.029238 -31.32 
L 123.876904 -31.32 
L 123.72457 -31.32 
L 123.572236 -31.32 
L 123.419902 -31.32 
L 123.267568 -31.32 
L 123.115233 -31.32 
L 122.962899 -31.32 
L 122.810565 -31.32 
L 122.658231 -31.32 
L 122.505897 -31.32 
L 122.353563 -31.32 
L 122.201229 -31.32 
L 122.048894 -31.32 
L 121.89656 -31.32 
L 121.744226 -31.32 
L 121.591892 -31.32 
L 121.439558 -31.32 
L 121.287224 -31.32 
L 121.134889 -31.32 
L 120.982555 -31.32 
L 120.830221 -31.32 
L 120.677887 -31.32 
L 120.525553 -31.32 
L 120.373219 -31.32 
L 120.220885 -31.32 
L 120.06855 -31.32 
L 119.916216 -31.32 
L 119.763882 -31.32 
L 119.611548 -31.32 
L 119.459214 -31.32 
L 119.30688 -31.32 
L 119.154545 -31.32 
L 119.002211 -31.32 
L 118.849877 -31.32 
L 118.697543 -31.32 
L 118.545209 -31.32 
L 118.392875 -31.32 
L 118.240541 -31.32 
L 118.088206 -31.32 
L 117.935872 -31.32 
L 117.783538 -31.32 
L 117.631204 -31.32 
L 117.47887 -31.32 
L 117.326536 -31.32 
L 117.174201 -31.32 
L 117.021867 -31.32 
L 116.869533 -31.32 
L 116.717199 -31.32 
L 116.564865 -31.32 
L 116.412531 -31.32 
L 116.260197 -31.32 
L 116.107862 -31.32 
L 115.955528 -31.32 
L 115.803194 -31.32 
L 115.65086 -31.32 
L 115.498526 -31.32 
L 115.346192 -31.32 
L 115.193857 -31.32 
L 115.041523 -31.32 
L 114.889189 -31.32 
L 114.736855 -31.32 
L 114.584521 -31.32 
L 114.432187 -31.32 
L 114.279853 -31.32 
L 114.127518 -31.32 
L 113.975184 -31.32 
L 113.82285 -31.32 
L 113.670516 -31.32 
L 113.518182 -31.32 
L 113.365848 -31.32 
L 113.213514 -31.32 
L 113.061179 -31.32 
L 112.908845 -31.32 
L 112.756511 -31.32 
L 112.604177 -31.32 
L 112.451843 -31.32 
L 112.299509 -31.32 
L 112.147174 -31.32 
L 111.99484 -31.32 
L 111.842506 -31.32 
L 111.690172 -31.32 
L 111.537838 -31.32 
L 111.385504 -31.32 
L 111.23317 -31.32 
L 111.080835 -31.32 
L 110.928501 -31.32 
L 110.776167 -31.32 
L 110.623833 -31.32 
L 110.471499 -31.32 
L 110.319165 -31.32 
L 110.16683 -31.32 
L 110.014496 -31.32 
L 109.862162 -31.32 
L 109.709828 -31.32 
L 109.557494 -31.32 
L 109.40516 -31.32 
L 109.252826 -31.32 
L 109.100491 -31.32 
L 108.948157 -31.32 
L 108.795823 -31.32 
L 108.643489 -31.32 
L 108.491155 -31.32 
L 108.338821 -31.32 
L 108.186486 -31.32 
L 108.034152 -31.32 
L 107.881818 -31.32 
L 107.729484 -31.32 
L 107.57715 -31.32 
L 107.424816 -31.32 
L 107.272482 -31.32 
L 107.120147 -31.32 
L 106.967813 -31.32 
L 106.815479 -31.32 
L 106.663145 -31.32 
L 106.510811 -31.32 
L 106.358477 -31.32 
L 106.206143 -31.32 
L 106.053808 -31.32 
L 105.901474 -31.32 
L 105.74914 -31.32 
L 105.596806 -31.32 
L 105.444472 -31.32 
L 105.292138 -31.32 
L 105.139803 -31.32 
L 104.987469 -31.32 
L 104.835135 -31.32 
L 104.682801 -31.32 
L 104.530467 -31.32 
L 104.378133 -31.32 
L 104.225799 -31.32 
L 104.073464 -31.32 
L 103.92113 -31.32 
L 103.768796 -31.32 
L 103.616462 -31.32 
L 103.464128 -31.32 
L 103.311794 -31.32 
L 103.159459 -31.32 
L 103.007125 -31.32 
L 102.854791 -31.32 
L 102.702457 -31.32 
L 102.550123 -31.32 
L 102.397789 -31.32 
L 102.245455 -31.32 
L 102.09312 -31.32 
L 101.940786 -31.32 
L 101.788452 -31.32 
L 101.636118 -31.32 
L 101.483784 -31.32 
L 101.33145 -31.32 
L 101.179115 -31.32 
L 101.026781 -31.32 
L 100.874447 -31.32 
L 100.722113 -31.32 
L 100.569779 -31.32 
L 100.417445 -31.32 
L 100.265111 -31.32 
L 100.112776 -31.32 
L 99.960442 -31.32 
L 99.808108 -31.32 
L 99.655774 -31.32 
L 99.50344 -31.32 
L 99.351106 -31.32 
L 99.198771 -31.32 
L 99.046437 -31.32 
L 98.894103 -31.32 
L 98.741769 -31.32 
L 98.589435 -31.32 
L 98.437101 -31.32 
L 98.284767 -31.32 
L 98.132432 -31.32 
L 97.980098 -31.32 
L 97.827764 -31.32 
L 97.67543 -31.32 
L 97.523096 -31.32 
L 97.370762 -31.32 
L 97.218428 -31.32 
L 97.066093 -31.32 
L 96.913759 -31.32 
L 96.761425 -31.32 
L 96.609091 -31.32 
L 96.456757 -31.32 
L 96.304423 -31.32 
L 96.152088 -31.32 
L 95.999754 -31.32 
L 95.84742 -31.32 
L 95.695086 -31.32 
L 95.542752 -31.32 
L 95.390418 -31.32 
L 95.238084 -31.32 
L 95.085749 -31.32 
L 94.933415 -31.32 
L 94.781081 -31.32 
L 94.628747 -31.32 
L 94.476413 -31.32 
L 94.324079 -31.32 
L 94.171744 -31.32 
L 94.01941 -31.32 
L 93.867076 -31.32 
L 93.714742 -31.32 
L 93.562408 -31.32 
L 93.410074 -31.32 
L 93.25774 -31.32 
L 93.105405 -31.32 
L 92.953071 -31.32 
L 92.800737 -31.32 
L 92.648403 -31.32 
L 92.496069 -31.32 
L 92.343735 -31.32 
L 92.1914 -31.32 
L 92.039066 -31.32 
L 91.886732 -31.32 
L 91.734398 -31.32 
L 91.582064 -31.32 
L 91.42973 -31.32 
L 91.277396 -31.32 
L 91.125061 -31.32 
L 90.972727 -31.32 
L 90.820393 -31.32 
L 90.668059 -31.32 
L 90.515725 -31.32 
L 90.363391 -31.32 
L 90.211057 -31.32 
L 90.058722 -31.32 
L 89.906388 -31.32 
L 89.754054 -31.32 
L 89.60172 -31.32 
L 89.449386 -31.32 
L 89.297052 -31.32 
L 89.144717 -31.32 
L 88.992383 -31.32 
L 88.840049 -31.32 
L 88.687715 -31.32 
L 88.535381 -31.32 
L 88.383047 -31.32 
L 88.230713 -31.32 
L 88.078378 -31.32 
L 87.926044 -31.32 
L 87.77371 -31.32 
L 87.621376 -31.32 
L 87.469042 -31.32 
L 87.316708 -31.32 
L 87.164373 -31.32 
L 87.012039 -31.32 
L 86.859705 -31.32 
L 86.707371 -31.32 
L 86.555037 -31.32 
L 86.402703 -31.32 
L 86.250369 -31.32 
L 86.098034 -31.32 
L 85.9457 -31.32 
L 85.793366 -31.32 
L 85.641032 -31.32 
L 85.488698 -31.32 
L 85.336364 -31.32 
L 85.184029 -31.32 
L 85.031695 -31.32 
L 84.879361 -31.32 
L 84.727027 -31.32 
L 84.574693 -31.32 
L 84.422359 -31.32 
L 84.270025 -31.32 
L 84.11769 -31.32 
L 83.965356 -31.32 
L 83.813022 -31.32 
L 83.660688 -31.32 
L 83.508354 -31.32 
L 83.35602 -31.32 
L 83.203686 -31.32 
L 83.051351 -31.32 
L 82.899017 -31.32 
L 82.746683 -31.32 
L 82.594349 -31.32 
L 82.442015 -31.32 
L 82.289681 -31.32 
L 82.137346 -31.32 
L 81.985012 -31.32 
L 81.832678 -31.32 
L 81.680344 -31.32 
L 81.52801 -31.32 
L 81.375676 -31.32 
L 81.223342 -31.32 
L 81.071007 -31.32 
L 80.918673 -31.32 
L 80.766339 -31.32 
L 80.614005 -31.32 
L 80.461671 -31.32 
L 80.309337 -31.32 
L 80.157002 -31.32 
L 80.004668 -31.32 
L 79.852334 -31.32 
L 79.7 -31.32 
L 79.547666 -31.32 
L 79.395332 -31.32 
L 79.242998 -31.32 
L 79.090663 -31.32 
L 78.938329 -31.32 
L 78.785995 -31.32 
L 78.633661 -31.32 
L 78.481327 -31.32 
L 78.328993 -31.32 
L 78.176658 -31.32 
L 78.024324 -31.32 
L 77.87199 -31.32 
L 77.719656 -31.32 
L 77.567322 -31.32 
L 77.414988 -31.32 
L 77.262654 -31.32 
L 77.110319 -31.32 
L 76.957985 -31.32 
L 76.805651 -31.32 
L 76.653317 -31.32 
L 76.500983 -31.32 
L 76.348649 -31.32 
L 76.196314 -31.32 
L 76.04398 -31.32 
L 75.891646 -31.32 
L 75.739312 -31.32 
L 75.586978 -31.32 
L 75.434644 -31.32 
L 75.28231 -31.32 
L 75.129975 -31.32 
L 74.977641 -31.32 
L 74.825307 -31.32 
L 74.672973 -31.32 
L 74.520639 -31.32 
L 74.368305 -31.32 
L 74.215971 -31.32 
L 74.063636 -31.32 
L 73.911302 -31.32 
L 73.758968 -31.32 
L 73.606634 -31.32 
L 73.4543 -31.32 
L 73.301966 -31.32 
L 73.149631 -31.32 
L 72.997297 -31.32 
L 72.844963 -31.32 
L 72.692629 -31.32 
L 72.540295 -31.32 
L 72.387961 -31.32 
L 72.235627 -31.32 
L 72.083292 -31.32 
L 71.930958 -31.32 
L 71.778624 -31.32 
L 71.62629 -31.32 
L 71.473956 -31.32 
L 71.321622 -31.32 
L 71.169287 -31.32 
L 71.016953 -31.32 
L 70.864619 -31.32 
L 70.712285 -31.32 
L 70.559951 -31.32 
L 70.407617 -31.32 
L 70.255283 -31.32 
L 70.102948 -31.32 
L 69.950614 -31.32 
L 69.79828 -31.32 
L 69.645946 -31.32 
L 69.493612 -31.32 
L 69.341278 -31.32 
L 69.188943 -31.32 
L 69.036609 -31.32 
L 68.884275 -31.32 
L 68.731941 -31.32 
L 68.579607 -31.32 
L 68.427273 -31.32 
L 68.274939 -31.32 
L 68.122604 -31.32 
L 67.97027 -31.32 
L 67.817936 -31.32 
L 67.665602 -31.32 
L 67.513268 -31.32 
L 67.360934 -31.32 
L 67.2086 -31.32 
L 67.056265 -31.32 
L 66.903931 -31.32 
L 66.751597 -31.32 
L 66.599263 -31.32 
L 66.446929 -31.32 
L 66.294595 -31.32 
L 66.14226 -31.32 
L 65.989926 -31.32 
L 65.837592 -31.32 
L 65.685258 -31.32 
L 65.532924 -31.32 
L 65.38059 -31.32 
L 65.228256 -31.32 
L 65.075921 -31.32 
L 64.923587 -31.32 
L 64.771253 -31.32 
L 64.618919 -31.32 
L 64.466585 -31.32 
L 64.314251 -31.32 
L 64.161916 -31.32 
L 64.009582 -31.32 
L 63.857248 -31.32 
L 63.704914 -31.32 
L 63.55258 -31.32 
L 63.400246 -31.32 
L 63.247912 -31.32 
L 63.095577 -31.32 
L 62.943243 -31.32 
L 62.790909 -31.32 
L 62.638575 -31.32 
L 62.486241 -31.32 
L 62.333907 -31.32 
L 62.181572 -31.32 
L 62.029238 -31.32 
L 61.876904 -31.32 
L 61.72457 -31.32 
L 61.572236 -31.32 
L 61.419902 -31.32 
L 61.267568 -31.32 
L 61.115233 -31.32 
L 60.962899 -31.32 
L 60.810565 -31.32 
L 60.658231 -31.32 
L 60.505897 -31.32 
L 60.353563 -31.32 
L 60.201229 -31.32 
L 60.048894 -31.32 
L 59.89656 -31.32 
L 59.744226 -31.32 
L 59.591892 -31.32 
L 59.439558 -31.32 
L 59.287224 -31.32 
L 59.134889 -31.32 
L 58.982555 -31.32 
L 58.830221 -31.32 
L 58.677887 -31.32 
L 58.525553 -31.32 
L 58.373219 -31.32 
L 58.220885 -31.32 
L 58.06855 -31.32 
L 57.916216 -31.32 
L 57.763882 -31.32 
L 57.611548 -31.32 
L 57.459214 -31.32 
L 57.30688 -31.32 
L 57.154545 -31.32 
L 57.002211 -31.32 
L 56.849877 -31.32 
L 56.697543 -31.32 
L 56.545209 -31.32 
L 56.392875 -31.32 
L 56.240541 -31.32 
L 56.088206 -31.32 
L 55.935872 -31.32 
L 55.783538 -31.32 
L 55.631204 -31.32 
L 55.47887 -31.32 
L 55.326536 -31.32 
L 55.174201 -31.32 
L 55.021867 -31.32 
L 54.869533 -31.32 
L 54.717199 -31.32 
L 54.564865 -31.32 
L 54.412531 -31.32 
L 54.260197 -31.32 
L 54.107862 -31.32 
L 53.955528 -31.32 
L 53.803194 -31.32 
L 53.65086 -31.32 
L 53.498526 -31.32 
L 53.346192 -31.32 
L 53.193857 -31.32 
L 53.041523 -31.32 
L 52.889189 -31.32 
L 52.736855 -31.32 
L 52.584521 -31.32 
L 52.432187 -31.32 
L 52.279853 -31.32 
L 52.127518 -31.32 
L 51.975184 -31.32 
L 51.82285 -31.32 
L 51.670516 -31.32 
L 51.518182 -31.32 
L 51.365848 -31.32 
L 51.213514 -31.32 
L 51.061179 -31.32 
L 50.908845 -31.32 
L 50.756511 -31.32 
L 50.604177 -31.32 
L 50.451843 -31.32 
L 50.299509 -31.32 
L 50.147174 -31.32 
L 49.99484 -31.32 
L 49.842506 -31.32 
L 49.690172 -31.32 
L 49.537838 -31.32 
L 49.385504 -31.32 
L 49.23317 -31.32 
L 49.080835 -31.32 
L 48.928501 -31.32 
L 48.776167 -31.32 
L 48.623833 -31.32 
L 48.471499 -31.32 
L 48.319165 -31.32 
L 48.16683 -31.32 
L 48.014496 -31.32 
L 47.862162 -31.32 
L 47.709828 -31.32 
L 47.557494 -31.32 
L 47.40516 -31.32 
L 47.252826 -31.32 
L 47.100491 -31.32 
L 46.948157 -31.32 
L 46.795823 -31.32 
L 46.643489 -31.32 
L 46.491155 -31.32 
L 46.338821 -31.32 
L 46.186486 -31.32 
L 46.034152 -31.32 
L 45.881818 -31.32 
L 45.729484 -31.32 
L 45.57715 -31.32 
L 45.424816 -31.32 
L 45.272482 -31.32 
L 45.120147 -31.32 
L 44.967813 -31.32 
L 44.815479 -31.32 
L 44.663145 -31.32 
L 44.510811 -31.32 
L 44.358477 -31.32 
L 44.206143 -31.32 
L 44.053808 -31.32 
L 43.901474 -31.32 
L 43.74914 -31.32 
L 43.596806 -31.32 
L 43.444472 -31.32 
L 43.292138 -31.32 
L 43.139803 -31.32 
L 42.987469 -31.32 
L 42.835135 -31.32 
L 42.682801 -31.32 
L 42.530467 -31.32 
L 42.378133 -31.32 
L 42.225799 -31.32 
L 42.073464 -31.32 
L 41.92113 -31.32 
L 41.768796 -31.32 
L 41.616462 -31.32 
L 41.464128 -31.32 
L 41.311794 -31.32 
L 41.159459 -31.32 
L 41.007125 -31.32 
L 40.854791 -31.32 
L 40.702457 -31.32 
L 40.550123 -31.32 
L 40.397789 -31.32 
L 40.245455 -31.32 
L 40.09312 -31.32 
L 39.940786 -31.32 
L 39.788452 -31.32 
L 39.636118 -31.32 
L 39.483784 -31.32 
L 39.33145 -31.32 
L 39.179115 -31.32 
L 39.026781 -31.32 
L 38.874447 -31.32 
L 38.722113 -31.32 
L 38.569779 -31.32 
L 38.417445 -31.32 
L 38.265111 -31.32 
L 38.112776 -31.32 
L 37.960442 -31.32 
L 37.808108 -31.32 
L 37.655774 -31.32 
L 37.50344 -31.32 
L 37.351106 -31.32 
L 37.198771 -31.32 
L 37.046437 -31.32 
L 36.894103 -31.32 
L 36.741769 -31.32 
L 36.589435 -31.32 
L 36.437101 -31.32 
L 36.284767 -31.32 
L 36.132432 -31.32 
L 35.980098 -31.32 
L 35.827764 -31.32 
L 35.67543 -31.32 
L 35.523096 -31.32 
L 35.370762 -31.32 
L 35.218428 -31.32 
L 35.066093 -31.32 
L 34.913759 -31.32 
L 34.761425 -31.32 
L 34.609091 -31.32 
z
" id="m1cb91a4102" style="stroke:#ffffff;"/>
    </defs>
    <g clip-path="url(#p2e5792bd1b)">
     <use style="fill:#4c72b0;stroke:#ffffff;" x="0" xlink:href="#m1cb91a4102" y="216"/>
    </g>
   </g>
   <g id="patch_3">
    <path d="M 27 192.24 
L 27 25.92 
" style="fill:none;stroke:#ffffff;stroke-linecap:square;stroke-linejoin:miter;stroke-width:1.25;"/>
   </g>
   <g id="patch_4">
    <path d="M 194.4 192.24 
L 194.4 25.92 
" style="fill:none;stroke:#ffffff;stroke-linecap:square;stroke-linejoin:miter;stroke-width:1.25;"/>
   </g>
   <g id="patch_5">
    <path d="M 27 192.24 
L 194.4 192.24 
" style="fill:none;stroke:#ffffff;stroke-linecap:square;stroke-linejoin:miter;stroke-width:1.25;"/>
   </g>
   <g id="patch_6">
    <path d="M 27 25.92 
L 194.4 25.92 
" style="fill:none;stroke:#ffffff;stroke-linecap:square;stroke-linejoin:miter;stroke-width:1.25;"/>
   </g>
   <g id="text_14">
    <!-- Prior ($\theta \sim Beta(1,1)$) -->
    <g style="fill:#262626;" transform="translate(49.92 19.92)scale(0.12 -0.12)">
     <defs>
      <path d="M 19.671875 64.796875 
L 19.671875 37.40625 
L 32.078125 37.40625 
Q 38.96875 37.40625 42.71875 40.96875 
Q 46.484375 44.53125 46.484375 51.125 
Q 46.484375 57.671875 42.71875 61.234375 
Q 38.96875 64.796875 32.078125 64.796875 
z
M 9.8125 72.90625 
L 32.078125 72.90625 
Q 44.34375 72.90625 50.609375 67.359375 
Q 56.890625 61.8125 56.890625 51.125 
Q 56.890625 40.328125 50.609375 34.8125 
Q 44.34375 29.296875 32.078125 29.296875 
L 19.671875 29.296875 
L 19.671875 0 
L 9.8125 0 
z
" id="DejaVuSans-80"/>
      <path d="M 41.109375 46.296875 
Q 39.59375 47.171875 37.8125 47.578125 
Q 36.03125 48 33.890625 48 
Q 26.265625 48 22.1875 43.046875 
Q 18.109375 38.09375 18.109375 28.8125 
L 18.109375 0 
L 9.078125 0 
L 9.078125 54.6875 
L 18.109375 54.6875 
L 18.109375 46.1875 
Q 20.953125 51.171875 25.484375 53.578125 
Q 30.03125 56 36.53125 56 
Q 37.453125 56 38.578125 55.875 
Q 39.703125 55.765625 41.0625 55.515625 
z
" id="DejaVuSans-114"/>
      <path d="M 30.609375 48.390625 
Q 23.390625 48.390625 19.1875 42.75 
Q 14.984375 37.109375 14.984375 27.296875 
Q 14.984375 17.484375 19.15625 11.84375 
Q 23.34375 6.203125 30.609375 6.203125 
Q 37.796875 6.203125 41.984375 11.859375 
Q 46.1875 17.53125 46.1875 27.296875 
Q 46.1875 37.015625 41.984375 42.703125 
Q 37.796875 48.390625 30.609375 48.390625 
z
M 30.609375 56 
Q 42.328125 56 49.015625 48.375 
Q 55.71875 40.765625 55.71875 27.296875 
Q 55.71875 13.875 49.015625 6.21875 
Q 42.328125 -1.421875 30.609375 -1.421875 
Q 18.84375 -1.421875 12.171875 6.21875 
Q 5.515625 13.875 5.515625 27.296875 
Q 5.515625 40.765625 12.171875 48.375 
Q 18.84375 56 30.609375 56 
z
" id="DejaVuSans-111"/>
      <path id="DejaVuSans-32"/>
      <path d="M 31 75.875 
Q 24.46875 64.65625 21.28125 53.65625 
Q 18.109375 42.671875 18.109375 31.390625 
Q 18.109375 20.125 21.3125 9.0625 
Q 24.515625 -2 31 -13.1875 
L 23.1875 -13.1875 
Q 15.875 -1.703125 12.234375 9.375 
Q 8.59375 20.453125 8.59375 31.390625 
Q 8.59375 42.28125 12.203125 53.3125 
Q 15.828125 64.359375 23.1875 75.875 
z
" id="DejaVuSans-40"/>
      <path d="M 73.1875 39.9375 
L 73.1875 31.203125 
Q 68.0625 27.390625 63.6875 25.703125 
Q 59.328125 24.03125 54.59375 24.03125 
Q 49.21875 24.03125 42.09375 26.90625 
Q 41.609375 27.09375 41.265625 27.25 
Q 40.96875 27.34375 40.234375 27.640625 
Q 32.671875 30.609375 28.078125 30.609375 
Q 23.78125 30.609375 19.578125 28.75 
Q 15.375 26.90625 10.59375 22.796875 
L 10.59375 31.546875 
Q 15.71875 35.359375 20.09375 37.03125 
Q 24.46875 38.71875 29.203125 38.71875 
Q 34.578125 38.71875 41.75 35.84375 
Q 42.28125 35.59375 42.53125 35.5 
Q 42.828125 35.40625 43.5625 35.109375 
Q 51.125 32.125 55.71875 32.125 
Q 59.90625 32.125 64.03125 33.953125 
Q 68.171875 35.796875 73.1875 39.9375 
z
" id="DejaVuSans-8764"/>
      <path d="M 16.890625 72.90625 
L 42.09375 72.90625 
Q 52.34375 72.90625 57.421875 69.09375 
Q 62.5 65.28125 62.5 57.625 
Q 62.5 50.59375 58.125 45.484375 
Q 53.765625 40.375 46.6875 39.3125 
Q 52.734375 37.9375 55.765625 34.078125 
Q 58.796875 30.21875 58.796875 23.78125 
Q 58.796875 12.796875 50.65625 6.390625 
Q 42.53125 0 28.421875 0 
L 2.6875 0 
z
M 19.28125 34.8125 
L 14.109375 8.109375 
L 29.984375 8.109375 
Q 38.921875 8.109375 43.75 12.203125 
Q 48.578125 16.3125 48.578125 23.78125 
Q 48.578125 29.546875 45.375 32.171875 
Q 42.1875 34.8125 35.109375 34.8125 
z
M 25.09375 64.796875 
L 20.796875 42.828125 
L 35.5 42.828125 
Q 43.359375 42.828125 47.78125 46.234375 
Q 52.203125 49.65625 52.203125 55.71875 
Q 52.203125 60.453125 49.21875 62.625 
Q 46.234375 64.796875 39.703125 64.796875 
z
" id="DejaVuSans-Oblique-66"/>
      <path d="M 48.09375 32.234375 
Q 48.25 33.015625 48.3125 33.84375 
Q 48.390625 34.671875 48.390625 35.5 
Q 48.390625 41.453125 44.890625 44.921875 
Q 41.40625 48.390625 35.40625 48.390625 
Q 28.71875 48.390625 23.578125 44.15625 
Q 18.453125 39.9375 15.828125 32.171875 
z
M 55.90625 25.203125 
L 14.109375 25.203125 
Q 13.8125 23.34375 13.71875 22.265625 
Q 13.625 21.1875 13.625 20.40625 
Q 13.625 13.625 17.796875 9.90625 
Q 21.96875 6.203125 29.59375 6.203125 
Q 35.453125 6.203125 40.671875 7.515625 
Q 45.90625 8.84375 50.390625 11.375 
L 48.6875 2.484375 
Q 43.84375 0.53125 38.6875 -0.4375 
Q 33.546875 -1.421875 28.21875 -1.421875 
Q 16.84375 -1.421875 10.71875 4.015625 
Q 4.59375 9.46875 4.59375 19.484375 
Q 4.59375 28.03125 7.640625 35.375 
Q 10.6875 42.71875 16.609375 48.484375 
Q 20.40625 52.09375 25.65625 54.046875 
Q 30.90625 56 36.8125 56 
Q 46.09375 56 51.578125 50.4375 
Q 57.078125 44.875 57.078125 35.5 
Q 57.078125 33.25 56.78125 30.6875 
Q 56.5 28.125 55.90625 25.203125 
z
" id="DejaVuSans-Oblique-101"/>
      <path d="M 42.28125 54.6875 
L 40.921875 47.703125 
L 23 47.703125 
L 17.1875 18.015625 
Q 16.890625 16.359375 16.75 15.234375 
Q 16.609375 14.109375 16.609375 13.484375 
Q 16.609375 10.359375 18.484375 8.9375 
Q 20.359375 7.515625 24.515625 7.515625 
L 33.59375 7.515625 
L 32.078125 0 
L 23.484375 0 
Q 15.484375 0 11.546875 3.125 
Q 7.625 6.25 7.625 12.59375 
Q 7.625 13.71875 7.765625 15.0625 
Q 7.90625 16.40625 8.203125 18.015625 
L 14.015625 47.703125 
L 6.390625 47.703125 
L 7.8125 54.6875 
L 15.28125 54.6875 
L 18.3125 70.21875 
L 27.296875 70.21875 
L 24.3125 54.6875 
z
" id="DejaVuSans-Oblique-116"/>
      <path d="M 53.71875 31.203125 
L 47.609375 0 
L 38.625 0 
L 40.28125 8.296875 
Q 36.328125 3.421875 31.265625 1 
Q 26.21875 -1.421875 20.015625 -1.421875 
Q 13.03125 -1.421875 8.5625 2.84375 
Q 4.109375 7.125 4.109375 13.8125 
Q 4.109375 23.390625 11.75 28.953125 
Q 19.390625 34.515625 32.8125 34.515625 
L 45.3125 34.515625 
L 45.796875 36.921875 
Q 45.90625 37.3125 45.953125 37.765625 
Q 46 38.234375 46 39.203125 
Q 46 43.5625 42.453125 45.96875 
Q 38.921875 48.390625 32.515625 48.390625 
Q 28.125 48.390625 23.5 47.265625 
Q 18.890625 46.140625 14.015625 43.890625 
L 15.578125 52.203125 
Q 20.65625 54.109375 25.515625 55.046875 
Q 30.375 56 34.90625 56 
Q 44.578125 56 49.625 51.796875 
Q 54.6875 47.609375 54.6875 39.59375 
Q 54.6875 37.984375 54.4375 35.8125 
Q 54.203125 33.640625 53.71875 31.203125 
z
M 44 27.484375 
L 35.015625 27.484375 
Q 23.96875 27.484375 18.671875 24.53125 
Q 13.375 21.578125 13.375 15.375 
Q 13.375 11.078125 16.078125 8.640625 
Q 18.796875 6.203125 23.578125 6.203125 
Q 30.90625 6.203125 36.375 11.453125 
Q 41.84375 16.703125 43.609375 25.484375 
z
" id="DejaVuSans-Oblique-97"/>
      <path d="M 11.71875 12.40625 
L 22.015625 12.40625 
L 22.015625 4 
L 14.015625 -11.625 
L 7.71875 -11.625 
L 11.71875 4 
z
" id="DejaVuSans-44"/>
      <path d="M 8.015625 75.875 
L 15.828125 75.875 
Q 23.140625 64.359375 26.78125 53.3125 
Q 30.421875 42.28125 30.421875 31.390625 
Q 30.421875 20.453125 26.78125 9.375 
Q 23.140625 -1.703125 15.828125 -13.1875 
L 8.015625 -13.1875 
Q 14.5 -2 17.703125 9.0625 
Q 20.90625 20.125 20.90625 31.390625 
Q 20.90625 42.671875 17.703125 53.65625 
Q 14.5 64.65625 8.015625 75.875 
z
" id="DejaVuSans-41"/>
     </defs>
     <use transform="translate(0 0.234375)" xlink:href="#DejaVuSans-80"/>
     <use transform="translate(60.302734 0.234375)" xlink:href="#DejaVuSans-114"/>
     <use transform="translate(101.416016 0.234375)" xlink:href="#DejaVuSans-105"/>
     <use transform="translate(129.199219 0.234375)" xlink:href="#DejaVuSans-111"/>
     <use transform="translate(190.380859 0.234375)" xlink:href="#DejaVuSans-114"/>
     <use transform="translate(231.494141 0.234375)" xlink:href="#DejaVuSans-32"/>
     <use transform="translate(263.28125 0.234375)" xlink:href="#DejaVuSans-40"/>
     <use transform="translate(302.294922 0.234375)" xlink:href="#DejaVuSans-Oblique-952"/>
     <use transform="translate(382.958984 0.234375)" xlink:href="#DejaVuSans-8764"/>
     <use transform="translate(486.230469 0.234375)" xlink:href="#DejaVuSans-Oblique-66"/>
     <use transform="translate(554.833984 0.234375)" xlink:href="#DejaVuSans-Oblique-101"/>
     <use transform="translate(616.357422 0.234375)" xlink:href="#DejaVuSans-Oblique-116"/>
     <use transform="translate(655.566406 0.234375)" xlink:href="#DejaVuSans-Oblique-97"/>
     <use transform="translate(716.845703 0.234375)" xlink:href="#DejaVuSans-40"/>
     <use transform="translate(755.859375 0.234375)" xlink:href="#DejaVuSans-49"/>
     <use transform="translate(819.482422 0.234375)" xlink:href="#DejaVuSans-44"/>
     <use transform="translate(870.751953 0.234375)" xlink:href="#DejaVuSans-49"/>
     <use transform="translate(934.375 0.234375)" xlink:href="#DejaVuSans-41"/>
     <use transform="translate(973.388672 0.234375)" xlink:href="#DejaVuSans-41"/>
    </g>
   </g>
  </g>
 </g>
 <defs>
  <clipPath id="p2e5792bd1b">
   <rect height="166.32" width="167.4" x="27" y="25.92"/>
  </clipPath>
 </defs>
</svg>
